<?xml version="1.0" encoding="UTF-8" standalone="no"?>
<svg
   width="177"
   height="177"
   viewBox="0 0 177 177"
   fill="none"
   version="1.1"
   id="svg88"
   sodipodi:docname="fav_logo_small_0.svg"
   inkscape:version="1.2.2 (b0a8486, 2022-12-01)"
   inkscape:export-filename="logo.png"
   inkscape:export-xdpi="97.627121"
   inkscape:export-ydpi="97.627121"
   xmlns:inkscape="http://www.inkscape.org/namespaces/inkscape"
   xmlns:sodipodi="http://sodipodi.sourceforge.net/DTD/sodipodi-0.dtd"
   xmlns="http://www.w3.org/2000/svg"
   xmlns:svg="http://www.w3.org/2000/svg">
  <sodipodi:namedview
     id="namedview90"
     pagecolor="#ffffff"
     bordercolor="#000000"
     borderopacity="0.25"
     inkscape:showpageshadow="2"
     inkscape:pageopacity="0.0"
     inkscape:pagecheckerboard="0"
     inkscape:deskcolor="#d1d1d1"
     showgrid="false"
     inkscape:zoom="3.1982185"
     inkscape:cx="96.303615"
     inkscape:cy="100.21204"
     inkscape:window-width="1669"
     inkscape:window-height="933"
     inkscape:window-x="6"
     inkscape:window-y="25"
     inkscape:window-maximized="0"
     inkscape:current-layer="svg88" />
  <g
     clip-path="url(#clip0_38_863)"
     id="g81"
     transform="matrix(1.1917538,0,0,1.1830239,0.15426072,-2.3313618)"
     style="stroke-width:0.84219">
    <path
       d="m 110.06777,142.16497 c -0.14016,0.07 -0.28031,0.1411 -0.42047,0.20205 -8.83519,4.13145 -18.235987,6.73449 -27.845115,7.70978 C 35.729249,155.26595 10.889217,124.35685 3.6192205,96.318309 -3.7249426,67.999944 3.2148895,32.409214 34.469536,14.241905 c 1.472921,-0.866362 3.012522,-1.689039 4.602452,-2.467806 7.360037,-3.5340809 15.1415,-5.9779569 23.126615,-7.2634469 47.424277,-8.016024 73.853387,22.7353809 82.078047,51.5001919 8.3733,29.307545 1.24123,68.765916 -34.20888,86.154126 z"
       fill="#ffae5d"
       id="path33"
       style="stroke-width:0.84219" />
    <path
       d="m 109.6473,142.36702 c -8.83519,4.13145 -18.235987,6.73449 -27.845115,7.70978 C 35.729249,155.26595 10.889217,124.35685 3.6192205,96.318309 -3.7249426,68.000283 3.2148895,32.409552 34.469536,14.242244 41.728278,10.790566 49.393474,8.4001961 57.256058,7.1363791 104.68023,-0.8796449 129.2151,28.608959 137.68715,58.636571 c 8.20767,29.072978 3.49437,65.309389 -28.03985,83.730449 z"
       fill="#ffca62"
       id="path35"
       style="stroke-width:0.84219" />
    <path
       d="M 71.786283,151.5341 C 31.638794,151.5341 9.6319465,122.80586 2.8254235,96.556489 -1.0984999,81.670183 -0.76228279,65.878908 3.7912305,51.196239 8.9872255,35.017218 19.459275,21.975389 34.07508,13.478942 c 1.452322,-0.854058 3.019105,-1.694119 4.652675,-2.494898 7.428841,-3.5676069 15.283143,-6.0350739 23.343114,-7.3334329 47.942751,-8.102604 74.676601,23.0075369 82.992571,52.1102009 8.47205,29.656687 1.2423,69.593898 -34.64846,87.202228 -0.15078,0.0756 -0.30367,0.15013 -0.45445,0.21673 -8.90845,4.16418 -18.386974,6.78754 -28.075313,7.77073 -3.354313,0.3838 -6.725296,0.57795 -10.098934,0.5836 z M 77.027616,4.0978461 c -4.923857,0.01558 -9.838794,0.444639 -14.69905,1.282894 -7.910895,1.272395 -15.62005,3.692792 -22.911707,7.1933469 -1.597257,0.783282 -3.128682,1.604153 -4.548088,2.439022 C 20.618541,23.297678 10.40918,36.004364 5.3497325,51.761548 0.90188801,66.111556 0.57599161,81.544433 4.4136545,96.092549 11.059529,121.72446 32.575721,149.77767 71.823233,149.78105 c 3.30494,-0.005 6.607225,-0.19415 9.893265,-0.56892 9.521,-0.96739 18.835472,-3.54446 27.591032,-7.63415 0.15396,-0.0688 0.28243,-0.13207 0.41197,-0.19641 h 0.006 C 144.72685,124.21462 151.76442,85.231919 143.49304,56.276227 136.25373,30.963659 114.74604,4.0978461 77.027616,4.0978461 Z"
       fill="#670a39"
       id="path37"
       style="stroke-width:0.84219" />
    <path
       d="m 100.78132,111.38342 c -0.22085,0.4741 -0.44595,0.93691 -0.6891,1.39183 -3.858766,7.36097 -10.108488,12.97568 -17.579907,15.79206 -4.947217,1.88173 -10.173154,2.79945 -15.426804,2.70802 -20.796614,-0.11514 -32.761226,-27.3906 -28.103667,-32.833731 4.281365,-4.98234 10.550196,7.116031 24.224191,6.393591 21.964056,-1.15816 28.925281,-16.673891 36.473151,-10.162681 4.004016,3.44964 3.120606,12.355961 1.102136,16.710911 z"
       fill="#670a39"
       id="path39"
       style="stroke-width:0.84219" />
    <path
       d="m 67.371875,132.14677 h -0.292312 c -13.151061,-0.0734 -23.499623,-10.90431 -27.922525,-21.60544 -2.339132,-5.66212 -2.63962,-10.52503 -0.785515,-12.690091 2.492242,-2.90105 5.559977,-1.03287 9.11274,1.12881 3.913241,2.381791 8.781672,5.343791 15.67951,4.981441 10.996469,-0.58134 18.278039,-4.885491 23.587752,-8.029231 5.405169,-3.19646 9.310229,-5.50849 13.446875,-1.9393 4.54872,3.92036 3.29899,13.510741 1.31662,17.777641 -0.22722,0.48765 -0.46082,0.96288 -0.7114,1.43359 -3.947006,7.54723 -10.352062,13.30191 -18.010675,16.18264 -4.946686,1.8806 -10.167739,2.81525 -15.42107,2.75994 z M 41.408041,98.110859 c -0.348162,0 -0.691865,0.0824 -1.006581,0.24044 -0.314609,0.15803 -0.592268,0.38831 -0.813015,0.67503 -1.366741,1.597271 -0.934485,5.942061 1.076871,10.809491 4.208102,10.18413 14.010689,20.49018 26.423272,20.55903 5.154903,0.0881 10.282625,-0.81048 15.13789,-2.65383 7.289109,-2.73962 13.385606,-8.21436 17.143726,-15.39585 0.2389,-0.4504 0.45869,-0.89741 0.671046,-1.3557 1.96326,-4.2353 2.61308,-12.634781 -0.880226,-15.645321 -3.12889,-2.70283 -5.97843,-1.22025 -11.609225,2.10975 -5.455391,3.227271 -12.926385,7.647691 -24.307329,8.247091 -7.375433,0.39621 -12.695764,-2.84686 -16.579487,-5.20946 -2.384365,-1.448271 -3.999778,-2.380671 -5.256942,-2.380671 z"
       fill="#670a39"
       id="path41"
       style="stroke-width:0.84219" />
    <path
       d="m 100.09222,112.77525 c -3.859196,7.36097 -10.108913,12.97568 -17.580332,15.79319 -4.889773,-2.49242 -7.375433,-8.3961 -7.132494,-13.41818 0.397641,-8.18388 7.238673,-9.1682 9.447736,-7.43773 0.773092,-2.34116 6.010284,-6.0493 11.241004,-2.15942 1.68496,1.24621 3.70449,4.85953 4.024086,7.22214 z"
       fill="#ec4949"
       id="path43"
       style="stroke-width:0.84219" />
    <path
       d="m 82.511463,129.43988 c -0.123486,0 -0.245274,-0.0305 -0.35655,-0.0869 -5.557429,-2.83218 -7.834871,-9.37251 -7.598516,-14.25124 0.255999,-5.27154 2.978863,-7.41064 4.578562,-8.21661 1.665848,-0.87031 3.588332,-1.00464 5.346769,-0.37138 1.032488,-1.47423 2.482156,-2.55788 4.13643,-3.09181 1.331065,-0.44701 2.742508,-0.55199 4.119226,-0.30817 1.37662,0.24495 2.67944,0.83194 3.80197,1.71354 1.89328,1.40424 4.014746,5.20494 4.364076,7.81927 0.0244,0.18851 -0.008,0.37928 -0.0945,0.54635 -3.947426,7.55061 -10.354505,13.30755 -18.015879,16.1894 -0.09004,0.0373 -0.185283,0.0564 -0.281588,0.0576 z m -0.164684,-21.57722 c -0.867592,0.005 -1.723716,0.21109 -2.507851,0.60504 -2.189313,1.10285 -3.481941,3.49142 -3.638343,6.72546 -0.205032,4.22514 1.703436,9.85113 6.356111,12.41918 7.054346,-2.73963 12.963338,-8.05407 16.672288,-14.99513 -0.4003,-2.11765 -2.19399,-5.28509 -3.63399,-6.35295 -0.91081,-0.73485 -1.97483,-1.22476 -3.10182,-1.42907 -1.126987,-0.20432 -2.283599,-0.11627 -3.372044,0.25511 -1.80558,0.61746 -3.20683,1.96075 -3.518891,2.90556 -0.04268,0.12868 -0.113187,0.24495 -0.205882,0.3409 -0.0928,0.0948 -0.205138,0.16481 -0.328094,0.20544 -0.122956,0.0395 -0.253132,0.0485 -0.380016,0.026 -0.126884,-0.0226 -0.246973,-0.0768 -0.350711,-0.15804 -0.595985,-0.39169 -1.289761,-0.58246 -1.989908,-0.54747 z"
       fill="#670a39"
       id="path45"
       style="stroke-width:0.84219" />
    <path
       d="m 84.83074,107.7035 c -0.92408,1.79255 -1.407196,3.80296 -1.404648,5.84724 z"
       fill="#ec4949"
       id="path47"
       style="stroke-width:0.84219" />
    <path
       d="m 83.426199,114.42557 c -0.218411,0 -0.427797,-0.0914 -0.582182,-0.25624 -0.154491,-0.16368 -0.24124,-0.38606 -0.24124,-0.61859 -0.0044,-2.19215 0.514015,-4.34931 1.506792,-6.27055 0.05097,-0.10272 0.120726,-0.19415 0.205245,-0.26752 0.08441,-0.0745 0.181885,-0.12982 0.286578,-0.16255 0.104693,-0.0339 0.214695,-0.044 0.323316,-0.0316 0.108728,0.0124 0.214058,0.0474 0.309832,0.10272 0.09577,0.0564 0.18008,0.13207 0.248035,0.22351 0.06795,0.0903 0.118178,0.19528 0.147802,0.30703 0.02952,0.11176 0.0378,0.22915 0.02432,0.34429 -0.01338,0.11514 -0.04831,0.22689 -0.102676,0.32736 -0.858779,1.66273 -1.306962,3.52866 -1.302502,5.42619 0,0.23141 -0.08675,0.45378 -0.241134,0.61859 -0.154385,0.16368 -0.363877,0.25624 -0.582181,0.25624 z"
       fill="#670a39"
       id="path49"
       style="stroke-width:0.84219" />
    <path
       d="m 18.497714,50.830618 c -0.154916,-2.26e-4 -0.306752,-0.04696 -0.437884,-0.134893 -0.131025,-0.08794 -0.236143,-0.213346 -0.303142,-0.361897 -0.067,-0.148552 -0.09323,-0.314148 -0.0756,-0.477826 0.01763,-0.163677 0.07847,-0.318776 0.175303,-0.447348 2.688249,-3.563768 6.115614,-6.41808 10.014202,-8.33988 6.669022,-3.269375 13.70107,-3.363857 19.810208,-0.262449 0.104905,0.04425 0.200148,0.110849 0.279783,0.195962 0.07963,0.085 0.141961,0.186479 0.183159,0.298119 0.0412,0.111752 0.06031,0.23118 0.05617,0.35106 -0.004,0.11988 -0.03132,0.237615 -0.08006,0.345868 -0.04863,0.10814 -0.117753,0.204653 -0.203015,0.283218 -0.08526,0.07868 -0.184753,0.137828 -0.292418,0.173837 -0.107666,0.03601 -0.221172,0.0482 -0.333404,0.03556 -0.112231,-0.01253 -0.220853,-0.04944 -0.319069,-0.108479 -5.65883,-2.87034 -12.197676,-2.77236 -18.4114,0.275656 -3.666905,1.808129 -6.890511,4.493231 -9.418961,7.845348 -0.07719,0.102609 -0.175196,0.185351 -0.286685,0.24213 -0.111488,0.05689 -0.233488,0.08624 -0.357187,0.08602 z"
       fill="#670a39"
       id="path51"
       style="stroke-width:0.84219" />
    <path
       d="m 71.7883,37.752779 c -0.165109,1.13e-4 -0.326501,-0.0526 -0.463154,-0.151374 -0.136653,-0.09866 -0.242195,-0.238743 -0.30293,-0.401969 -0.06073,-0.163339 -0.0739,-0.342256 -0.03769,-0.513496 0.03621,-0.171354 0.120089,-0.32713 0.240603,-0.447122 9.189295,-9.162446 21.983055,-10.924068 31.102161,-4.282822 0.0913,0.06434 0.16883,0.147084 0.22935,0.243485 0.0595,0.09651 0.10193,0.204653 0.12211,0.318437 0.0212,0.113672 0.0202,0.230616 -0.002,0.344062 -0.0223,0.113332 -0.0648,0.221021 -0.12635,0.316518 -0.0616,0.09561 -0.14122,0.177224 -0.23253,0.240098 -0.0913,0.06299 -0.19325,0.105996 -0.30049,0.126653 -0.10724,0.02054 -0.21767,0.01829 -0.32385,-0.0067 -0.10618,-0.02483 -0.20705,-0.07202 -0.29624,-0.138618 -8.480436,-6.173015 -20.423701,-4.480589 -29.04568,4.113048 -0.152155,0.15318 -0.353577,0.238857 -0.563176,0.23976 z"
       fill="#670a39"
       id="path53"
       style="stroke-width:0.84219" />
    <path
       d="m 40.753551,95.257229 c -5.786352,0.84886 -11.491264,-2.36768 -15.390596,-8.01998 -2.413882,-3.53521 -4.011139,-7.62455 -4.66255,-11.937398 -0.297939,-1.863554 -0.4313,-3.752731 -0.398491,-5.6427 0.292312,-19.310229 18.758819,-28.52776 29.735538,-11.802621 l 0.0057,0.01219 c 9.982986,15.193681 2.876824,36.179289 -9.289635,37.390509 z"
       fill="#fff8ea"
       id="path55"
       style="stroke-width:0.84219" />
    <path
       d="m 43.340732,70.315013 c -1.229247,-5.557526 0.189217,-10.735202 3.17838,-11.574735 0.663032,-0.178106 1.357417,-0.142584 2.003117,0.102733 0.06756,0.09593 0.139539,0.200507 0.21229,0.30695 2.509717,3.876234 4.170389,8.360054 4.847661,13.08894 0.166035,1.133488 0.280183,2.245686 0.342446,3.336349 -0.21505,0.772077 -0.593152,1.47472 -1.102294,2.048024 -0.509031,0.573304 -1.134087,1.000434 -1.821958,1.245004 -2.996891,0.827155 -6.419245,-3.002293 -7.659642,-8.55326 z"
       fill="#670a39"
       id="path57"
       inkscape:transform-center-x="7.4421405"
       inkscape:transform-center-y="1.9632538"
       style="stroke-width:0.899206" />
    <path
       d="m 47.260309,57.307964 c 0.533452,0.0019 1.06316,0.09421 1.569557,0.273198 0.173067,0.06001 0.326085,0.172669 0.440215,0.324174 0.0721,0.100013 0.149758,0.200029 0.227534,0.313077 2.84455,4.17929 4.727993,9.015187 5.498158,14.11654 0.187317,1.21049 0.315578,2.414141 0.386713,3.57869 0.0085,0.147246 -0.01329,0.294751 -0.06364,0.432189 -0.288405,0.953295 -0.788038,1.818189 -1.456635,2.520867 -0.668474,0.702678 -1.48598,1.222492 -2.382956,1.51492 -3.83307,1.010462 -8.011671,-3.227417 -9.515647,-9.644436 -1.489968,-6.422957 0.336109,-12.256669 4.158913,-13.280038 0.372342,-0.09821 0.754343,-0.148149 1.137795,-0.149181 z m 0.72862,2.096032 c -0.465577,-0.124017 -0.952289,-0.126081 -1.418833,-0.0061 -2.705419,0.724357 -3.986571,5.696661 -2.789719,10.855054 1.196733,5.158394 4.526908,8.904076 7.244646,8.187718 0.572944,-0.206223 1.093955,-0.550271 1.522696,-1.00556 0.428863,-0.455288 0.754102,-1.009816 0.950599,-1.620612 C 53.428988,74.785109 53.311,73.72664 53.148078,72.662104 52.431053,67.888796 50.674541,63.362103 48.019846,59.44698 Z"
       fill="#670a39"
       id="path59"
       style="stroke-width:0.960384" />
    <path
       d="m 38.936716,96.265259 c -5.16722,0 -10.29749,-2.9699 -14.027147,-8.21876 -0.04778,-0.063 -0.116054,-0.15758 -0.184434,-0.25297 -2.500843,-3.65554 -4.156711,-7.885646 -4.833816,-12.347722 -0.164685,-1.058938 -0.277447,-2.111667 -0.339987,-3.130306 -0.0618,-0.848866 -0.0824,-1.750221 -0.06997,-2.672573 0.149819,-9.969319 5.243775,-18.289784 12.679306,-20.705101 6.724128,-2.187861 13.660721,0.962537 18.553786,8.417656 0.01157,0.01659 0.02145,0.0333 0.03132,0.04989 2.652149,4.068121 4.276056,8.792533 4.715958,13.719793 0.439901,4.927147 -0.319069,9.891883 -2.203966,14.417633 -2.705451,6.20541 -7.227206,10.06323 -12.408442,10.58926 -0.633997,0.0903 -1.272985,0.13433 -1.912608,0.1332 z m -2.582814,-46.25111 c -1.259075,0.0017 -2.510824,0.202847 -3.714049,0.596802 -6.75131,2.187861 -11.374361,9.852036 -11.511863,19.061665 -0.01476,0.867266 0.0074,1.714438 0.06583,2.518603 0.05935,0.973148 0.164684,1.968082 0.321936,2.968434 0.630387,4.175246 2.17466,8.134666 4.508589,11.559246 l 0.183584,0.25116 c 3.844968,5.41175 9.232086,8.17655 14.433071,7.4225 h 0.03461 c 4.590028,-0.45717 8.630154,-3.94914 11.08534,-9.58135 1.769798,-4.254485 2.479183,-8.921667 2.059987,-13.552049 -0.419197,-4.630382 -1.952852,-9.06819 -4.453376,-12.885941 -0.01073,-0.01659 -0.0206,-0.03319 -0.03047,-0.0508 -3.54448,-5.383638 -8.209472,-8.308274 -12.983191,-8.308274 z"
       fill="#670a39"
       id="path61"
       style="stroke-width:0.84219" />
    <path
       d="m 90.655422,89.306479 c -5.40761,0.29575 -10.465359,-2.73737 -14.050187,-7.778075 -3.024733,-4.387914 -4.815236,-9.598505 -5.163079,-15.025602 -0.10533,-1.406724 -0.124018,-2.819205 -0.05596,-4.228525 0.968993,-21.413995 21.916278,-30.214092 32.222684,-11.137526 l -0.006,0.0175 c 9.10807,16.861612 -0.12848,38.102328 -12.947091,38.152228 z"
       fill="#fff8ea"
       id="path63"
       style="stroke-width:0.84219" />
    <path
       d="m 89.931916,90.196879 c -5.213408,0 -10.273599,-2.93423 -13.988498,-8.147303 C 75.66353,81.664539 75.403284,81.262005 75.137411,80.846377 72.509046,76.57823 70.954792,71.664855 70.623088,66.575949 l -0.0058,-0.08748 c -0.106392,-1.416319 -0.124867,-2.83862 -0.05511,-4.257423 0.501379,-11.042141 6.416208,-19.895631 14.717844,-22.022197 7.354942,-1.881502 14.473532,2.04247 19.042418,10.501327 0.0255,0.0473 0.0467,0.09674 0.0637,0.147875 2.39541,4.502713 3.66425,9.58304 3.68549,14.755477 0.0212,5.172437 -1.2062,10.264278 -3.56338,14.789116 -3.35633,6.187005 -8.398046,9.750555 -13.824663,9.780245 -0.246973,0.007 -0.501379,0.014 -0.751644,0.014 z M 88.861522,41.496142 c -1.07581,0.0017 -2.147585,0.139182 -3.192921,0.409532 -6.311621,1.616344 -12.921395,8.555145 -13.45983,20.413755 -0.06541,1.336286 -0.04863,2.675733 0.05022,4.009762 l 0.0066,0.08748 c 0.307495,4.794173 1.766825,9.424329 4.238575,13.447863 0.246973,0.380635 0.485771,0.756077 0.750051,1.120119 3.566672,5.004696 8.438289,7.708766 13.365118,7.438416 h 0.04035 c 4.836259,-0.0184 9.364595,-3.26418 12.423625,-8.90429 2.22871,-4.280677 3.38075,-9.099457 3.34784,-13.991498 -0.034,-4.892041 -1.25398,-9.692196 -3.54109,-13.937654 -0.0244,-0.04572 -0.0446,-0.0938 -0.0616,-0.143472 -3.506036,-6.406679 -8.563366,-9.950016 -13.969386,-9.950016 z"
       fill="#670a39"
       id="path65"
       style="stroke-width:0.84219" />
    <path
       d="m 94.576024,60.196188 c -1.28757,-5.972272 0.49396,-11.469285 3.97978,-12.281084 0.66635,-0.126728 1.35113,-0.107564 2.010056,0.05626 0.65881,0.163818 1.27692,0.468583 1.81457,0.894512 2.86976,4.538704 4.56724,9.760007 4.93118,15.16726 0,0.04599 0,0.07851 0.01,0.124501 -0.59141,2.844881 -2.0479,4.933477 -4.08466,5.407871 -3.494206,0.799435 -7.371746,-3.39593 -8.660266,-9.369315 z"
       fill="#670a39"
       id="path67"
       style="stroke-width:0.935909" />
    <ellipse
       style="fill:#fff8ea;fill-opacity:1;stroke-width:0.84219"
       id="path1378-2"
       cx="97.700218"
       cy="55.128918"
       rx="2.0999782"
       ry="3.3139133" />
    <path
       d="m 99.391294,47.314077 c 1.183476,0.0329 2.329476,0.457974 3.284766,1.218268 0.0915,0.06865 0.1703,0.155534 0.23193,0.255979 2.80204,4.658511 4.45901,10.0205 4.81259,15.573888 l 0.005,0.09552 c 0.006,0.100318 0.001,0.201012 -0.0142,0.300099 -0.6606,3.343988 -2.31225,5.577914 -4.53319,6.12253 -3.839956,0.922853 -7.899576,-3.49607 -9.244636,-10.063757 -1.34324,-6.564978 0.60274,-12.442868 4.43044,-13.383099 0.33684,-0.08109 0.68102,-0.121148 1.02602,-0.119422 z m 2.152376,2.693503 c -0.39845,-0.31341 -0.85039,-0.536975 -1.3293,-0.657878 -0.479006,-0.121026 -0.975376,-0.136678 -1.459926,-0.04634 -2.77621,0.681293 -4.19672,5.766107 -3.10477,11.103324 1.09376,5.339066 4.365406,9.282144 7.145936,8.614283 1.4733,-0.361106 2.65395,-2.04943 3.1723,-4.527872 -0.33106,-5.156295 -1.85276,-10.138569 -4.42424,-14.485517 z"
       fill="#670a39"
       id="path69"
       style="stroke-width:0.909009" />
    <path
       d="M 107.74138,114.97078 C 97.261584,114.06773 86.725405,104.97516 87.698539,91.020349 88.661055,77.211041 100.36191,68.560625 111.95033,68.442438 Z"
       fill="#ffca62"
       id="path71"
       style="stroke-width:0.84219" />
    <path
       d="m 39.369184,124.02949 c 12.630676,-5.53907 16.740774,-25.241341 3.909101,-34.062771 -8.945508,-6.15033 -17.972561,-3.27999 -24.034767,2.02317 z"
       fill="#ffca62"
       id="path73"
       style="stroke-width:0.84219" />
    <path
       d="m 107.73926,115.849 c -0.0223,0 -0.0446,0 -0.0669,0 -11.010046,-0.94933 -21.799045,-10.51713 -20.79703,-24.887011 0.233382,-3.3029 1.103098,-6.51967 2.555101,-9.450404 1.452109,-2.930732 3.455393,-5.512887 5.885733,-7.586174 4.718716,-4.031887 10.571326,-6.269303 16.624616,-6.355995 0.21873,-0.0021 0.42896,0.08793 0.58504,0.250483 0.15503,0.162549 0.24422,0.384247 0.24634,0.616331 0.002,0.232083 -0.0828,0.455588 -0.23572,0.621184 -0.1529,0.16571 -0.36101,0.260078 -0.57974,0.262223 -14.249266,0.142682 -22.710915,11.320393 -23.439624,21.764942 -0.926203,13.285541 9.079928,22.133161 19.288014,23.015891 0.21873,0.009 0.42472,0.10949 0.57231,0.28107 0.14865,0.17045 0.22722,0.39622 0.21873,0.62875 -0.01,0.23141 -0.10406,0.4504 -0.26439,0.60843 -0.16139,0.1569 -0.37375,0.24044 -0.59248,0.23141 z"
       fill="#670a39"
       id="path77"
       style="stroke-width:0.84219" />
    <path
       d="m 39.369928,124.90996 c -0.190805,0 -0.375875,-0.07 -0.523465,-0.19867 -0.147589,-0.12868 -0.248672,-0.30703 -0.285729,-0.50571 -0.03716,-0.19979 -0.0082,-0.40637 0.08208,-0.58472 0.09025,-0.17835 0.236143,-0.31832 0.412613,-0.39508 3.076442,-1.40989 5.737191,-3.67654 7.700554,-6.56178 1.963257,-2.88524 3.156183,-6.2807 3.452317,-9.82743 0.32459,-3.1539 -0.195689,-6.34053 -1.500846,-9.194161 -1.305157,-2.85364 -3.342102,-5.25676 -5.876179,-6.93361 -7.298028,-5.01869 -15.920857,-4.28282 -23.064075,1.96469 -0.168932,0.14404 -0.384476,0.21154 -0.599914,0.18795 -0.215438,-0.0237 -0.413356,-0.13659 -0.551071,-0.31437 -0.137608,-0.17768 -0.203864,-0.40592 -0.184327,-0.63518 0.01964,-0.22927 0.12338,-0.44114 0.288808,-0.58958 7.7254,-6.75763 17.073539,-7.53561 25.005565,-2.08277 2.789969,1.84628 5.032478,4.49267 6.46951,7.63415 1.436926,3.141481 2.009763,6.650951 1.652682,10.123171 -0.324909,3.86505 -1.626987,7.56529 -3.768413,10.7079 -2.141532,3.14261 -5.042671,5.61132 -8.396347,7.14425 -0.09992,0.0418 -0.206519,0.0621 -0.31376,0.0609 z"
       fill="#670a39"
       id="path79"
       style="stroke-width:0.84219" />
    <ellipse
       style="fill:#fff8ea;fill-opacity:1;stroke-width:0.84219"
       id="path1378"
       cx="45.584332"
       cy="65.361427"
       rx="2.0999782"
       ry="3.3139133" />
  </g>
  <defs
     id="defs86">
    <clipPath
       id="clip0_38_863">
      <rect
         width="177"
         height="161"
         fill="#ffffff"
         id="rect83"
         x="0"
         y="0" />
    </clipPath>
  </defs>
</svg>
