<?xml version="1.0" encoding="UTF-8" standalone="no"?>
<svg
   width="160"
   height="160"
   viewBox="0 0 160 160"
   fill="none"
   version="1.1"
   id="svg88"
   sodipodi:docname="fav_logo_small_00.svg"
   inkscape:version="1.2.2 (b0a8486, 2022-12-01)"
   inkscape:export-filename="logo.png"
   inkscape:export-xdpi="26.030001"
   inkscape:export-ydpi="26.030001"
   xmlns:inkscape="http://www.inkscape.org/namespaces/inkscape"
   xmlns:sodipodi="http://sodipodi.sourceforge.net/DTD/sodipodi-0.dtd"
   xmlns="http://www.w3.org/2000/svg"
   xmlns:svg="http://www.w3.org/2000/svg">
  <sodipodi:namedview
     id="namedview90"
     pagecolor="#ffffff"
     bordercolor="#000000"
     borderopacity="0.25"
     inkscape:showpageshadow="2"
     inkscape:pageopacity="0.0"
     inkscape:pagecheckerboard="0"
     inkscape:deskcolor="#d1d1d1"
     showgrid="false"
     inkscape:zoom="3.1982184"
     inkscape:cx="-1.5633704"
     inkscape:cy="74.572767"
     inkscape:window-width="1669"
     inkscape:window-height="933"
     inkscape:window-x="102"
     inkscape:window-y="31"
     inkscape:window-maximized="0"
     inkscape:current-layer="g81" />
  <g
     clip-path="url(#clip0_38_863)"
     id="g81"
     transform="translate(0.39655172,0.19827587)">
    <path
       d="M 66.784345,2.2167019 C 171.51709,-15.302709 197.38577,145.9786 87.856576,158.18884 -12.240797,169.34647 -34.888601,19.225252 66.784345,2.2167019 Z"
       fill="#ffca62"
       id="path29"
       style="stroke-width:1" />
    <path
       d="m 89.615639,157.96779 c -0.581785,0.0727 -1.172175,0.14632 -1.761064,0.21158 C -12.238896,169.34331 -34.884399,19.217356 66.783145,2.2112284 70.151096,1.6481889 73.435306,1.2673557 76.635775,1.0687288 75.866998,1.1911471 75.099722,1.3217756 74.315338,1.4605091 66.364139,2.8530028 58.653459,5.4792572 51.435521,9.2535899 49.868452,10.085886 48.347807,10.967234 46.888591,11.897528 38.231347,17.303718 30.87404,24.734491 25.38735,33.613757 13.144448,53.451609 11.282535,78.609861 16.379534,99.916521 c 2.650299,11.149209 7.413134,21.621599 14.003165,30.788759 12.25761,16.8575 31.714649,29.27825 59.23294,27.26251 z"
       fill="#ffae5d"
       id="path31"
       style="stroke-width:1" />
    <path
       d="m 111.90387,140.65978 c -0.13207,0.0652 -0.26413,0.13157 -0.3962,0.18842 -8.32508,3.85254 -17.183123,6.27984 -26.237462,7.1893 C 41.857325,152.87633 18.45145,124.05386 11.601191,97.908147 4.6810488,71.501502 11.220205,38.313437 40.670343,21.372569 c 1.38788,-0.807875 2.838591,-1.575016 4.336726,-2.301209 6.9351,-3.295502 14.267295,-5.574396 21.791383,-6.773105 44.686208,-7.4748773 69.589418,21.200557 77.339218,48.023508 7.88987,27.329044 1.16957,64.123657 -32.2338,80.338017 z"
       fill="#ffae5d"
       id="path33"
       style="stroke-width:1" />
    <path
       d="m 111.50767,140.8482 c -8.32508,3.85254 -17.183123,6.27984 -26.237462,7.1893 C 41.857325,152.87633 18.45145,124.05386 11.601191,97.908147 4.6810488,71.501817 11.220205,38.313752 40.670343,21.372886 47.509996,18.154224 54.732637,15.925223 62.141269,14.746725 106.82738,7.2718469 129.94571,34.76973 137.92862,62.770232 c 7.7338,27.110313 3.29262,60.900468 -26.42095,78.077968 z"
       fill="#ffca62"
       id="path35"
       style="stroke-width:1" />
    <path
       d="m 75.832581,149.39641 c -37.829546,0 -58.565812,-26.78884 -64.979356,-51.266163 -3.6973729,-13.88136 -3.3805676,-28.606594 0.910046,-42.298063 4.896,-15.086804 14.763438,-27.248204 28.53539,-35.171072 1.368471,-0.796402 2.844794,-1.579752 4.384049,-2.326471 6.999932,-3.326766 14.40076,-5.627659 21.995383,-6.838367 45.174747,-7.5556125 70.365097,21.454341 78.200937,48.592336 7.98292,27.654616 1.17058,64.89574 -32.648,81.31536 -0.14207,0.0706 -0.28614,0.13999 -0.42821,0.20211 -8.39412,3.88306 -17.325398,6.32932 -26.454373,7.24614 -3.16065,0.35788 -6.337007,0.53893 -9.515866,0.54419 z M 80.771303,11.913317 c -4.639575,0.01453 -9.270745,0.414622 -13.850391,1.196288 -7.454154,1.186498 -14.718215,3.443498 -21.588884,6.707738 -1.505038,0.730404 -2.948045,1.495859 -4.285501,2.274368 -13.427483,7.725292 -23.047399,19.574173 -27.814736,34.267618 -4.1910449,13.381265 -4.4981254,27.772298 -0.882033,41.338296 6.262171,23.901545 26.53611,50.060925 63.517641,50.064095 3.114126,-0.004 6.225752,-0.18105 9.32207,-0.53052 8.971298,-0.90208 17.748001,-3.30519 25.998041,-7.11878 0.14508,-0.0641 0.26614,-0.12316 0.38819,-0.18316 h 0.006 C 144.56188,123.92123 151.19313,87.570178 143.39931,60.56923 136.57796,36.965467 116.31203,11.913317 80.771303,11.913317 Z"
       fill="#670a39"
       id="path37"
       style="stroke-width:1" />
    <path
       d="m 103.15358,111.95624 c -0.20811,0.4421 -0.42021,0.87366 -0.64932,1.29786 -3.635985,6.86405 -9.524872,12.09972 -16.564924,14.72598 -4.661585,1.75469 -9.585799,2.61046 -14.536126,2.52519 -19.595907,-0.10736 -30.869734,-25.54149 -26.481083,-30.617169 4.034178,-4.645997 9.941074,6.635639 22.825591,5.961969 20.695946,-1.07998 27.255262,-15.548271 34.367352,-9.476625 3.77285,3.216764 2.94044,11.521835 1.03851,15.582795 z"
       fill="#670a39"
       id="path39"
       style="stroke-width:1" />
    <path
       d="M 71.673042,131.31789 H 71.397607 C 59.005832,131.2494 49.254751,121.1497 45.087208,111.171 c -2.20408,-5.27988 -2.487219,-9.81451 -0.740163,-11.833413 2.348352,-2.705201 5.238969,-0.963135 8.58661,1.052603 3.687308,2.221 8.274657,4.98304 14.774243,4.64516 10.36158,-0.54209 17.222744,-4.55569 22.225897,-7.487195 5.093097,-2.980667 8.772701,-5.136617 12.670515,-1.808379 4.2861,3.65571 3.10852,12.598644 1.2406,16.577504 -0.2141,0.45473 -0.43421,0.89788 -0.67032,1.33681 -3.719127,7.03774 -9.754386,12.40392 -16.970824,15.09017 -4.661085,1.75364 -9.580697,2.62521 -14.530724,2.57363 z M 47.208248,99.579682 c -0.328061,0 -0.651919,0.07682 -0.948465,0.224212 -0.296445,0.14736 -0.558073,0.362096 -0.766075,0.629456 -1.287832,1.48945 -0.880532,5.54092 1.014697,10.07976 3.965144,9.49663 13.201772,19.10692 24.897706,19.17114 4.857282,0.0821 9.68895,-0.75578 14.263893,-2.47468 6.868268,-2.55468 12.612784,-7.65983 16.153916,-14.35651 0.22511,-0.41999 0.43222,-0.83682 0.63231,-1.26418 1.84991,-3.94938 2.46221,-11.781834 -0.8294,-14.589133 -2.948248,-2.520362 -5.633264,-1.137868 -10.938966,1.967318 -5.14042,3.009405 -12.180071,7.131415 -22.903928,7.690345 -6.949608,0.36947 -11.962765,-2.65467 -15.622259,-4.85778 -2.246702,-1.35049 -3.768848,-2.219948 -4.953429,-2.219948 z"
       fill="#670a39"
       id="path41"
       style="stroke-width:1" />
    <path
       d="m 102.50426,113.2541 c -3.636385,6.86405 -9.525272,12.09972 -16.565324,14.72703 -4.607459,-2.32416 -6.949607,-7.8293 -6.720695,-12.51234 0.374684,-7.6314 6.820744,-8.54927 8.902265,-6.93562 0.728457,-2.18311 5.663276,-5.64092 10.591993,-2.01365 1.587681,1.16209 3.490611,4.53148 3.791761,6.73458 z"
       fill="#ec4949"
       id="path43"
       style="stroke-width:1" />
    <path
       d="m 85.938536,128.79374 c -0.116357,0 -0.231113,-0.0285 -0.335965,-0.081 -5.236567,-2.64099 -7.382519,-8.7398 -7.15981,-13.28916 0.241218,-4.91568 2.806876,-6.91037 4.314215,-7.66193 1.56967,-0.81156 3.381158,-0.93682 5.03807,-0.34631 0.972877,-1.3747 2.338847,-2.3852 3.897611,-2.88309 1.254215,-0.41683 2.584167,-0.51472 3.881403,-0.28735 1.297136,0.2284 2.524738,0.77576 3.582456,1.59784 1.783974,1.30944 3.782954,4.85358 4.112114,7.29142 0.023,0.17578 -0.008,0.35368 -0.089,0.50946 -3.719525,7.04089 -9.756685,12.40918 -16.975724,15.09648 -0.08484,0.0347 -0.174585,0.0526 -0.26533,0.0536 z M 85.78336,108.67316 c -0.817501,0.004 -1.624196,0.19683 -2.363059,0.56419 -2.062911,1.0284 -3.280908,3.25572 -3.42828,6.27143 -0.193195,3.93991 1.605087,9.18611 5.989136,11.58079 6.647059,-2.55468 12.214888,-7.51035 15.709703,-13.98283 -0.37719,-1.9747 -2.067315,-4.92831 -3.42418,-5.92407 -0.858221,-0.68525 -1.860812,-1.14208 -2.922733,-1.3326 -1.061921,-0.19053 -2.151755,-0.10842 -3.177358,0.23788 -1.701334,0.57578 -3.021681,1.82839 -3.315725,2.70942 -0.04022,0.11999 -0.106652,0.22841 -0.193995,0.31788 -0.08744,0.0884 -0.193295,0.15369 -0.309152,0.19158 -0.115857,0.0368 -0.238517,0.0453 -0.358075,0.0242 -0.119559,-0.021 -0.232715,-0.0716 -0.330462,-0.14735 -0.561576,-0.36526 -1.215296,-0.54315 -1.87502,-0.51052 z"
       fill="#670a39"
       id="path45"
       style="stroke-width:1" />
    <path
       d="m 88.123907,108.52474 c -0.870726,1.67155 -1.32595,3.54623 -1.323548,5.45251 z"
       fill="#ec4949"
       id="path47"
       style="stroke-width:1" />
    <path
       d="m 86.800459,114.79301 c -0.205801,0 -0.403098,-0.0853 -0.548569,-0.23894 -0.145572,-0.15262 -0.227312,-0.35998 -0.227312,-0.57682 -0.0041,-2.04417 0.484338,-4.0557 1.419796,-5.84724 0.04802,-0.0957 0.113756,-0.18104 0.193395,-0.24947 0.07954,-0.0695 0.171384,-0.12105 0.270032,-0.15157 0.09865,-0.0315 0.2023,-0.0411 0.30465,-0.0294 0.10245,0.0115 0.201699,0.0442 0.291943,0.0958 0.09024,0.0526 0.169683,0.12316 0.233715,0.20841 0.06403,0.0842 0.111354,0.18212 0.139268,0.28632 0.02781,0.1042 0.03562,0.21367 0.02291,0.32104 -0.01261,0.10737 -0.04552,0.21157 -0.09675,0.30527 -0.809197,1.55048 -1.231504,3.29044 -1.227302,5.05987 0,0.21579 -0.08174,0.42315 -0.227211,0.57682 -0.145472,0.15264 -0.342869,0.23895 -0.548569,0.23895 z"
       fill="#670a39"
       id="path49"
       style="stroke-width:1" />
    <path
       d="m 25.620665,55.491245 c -0.145972,-2.11e-4 -0.289042,-0.04378 -0.412603,-0.125786 -0.12346,-0.082 -0.222509,-0.198944 -0.28564,-0.337466 -0.06313,-0.138523 -0.08784,-0.292941 -0.07124,-0.445569 0.01661,-0.152628 0.07394,-0.297257 0.165181,-0.417148 2.533042,-3.323185 5.762525,-5.984808 9.436026,-7.776871 6.283981,-3.048665 12.91003,-3.136768 18.666452,-0.244731 0.09885,0.04126 0.188592,0.103365 0.263629,0.182732 0.07504,0.07926 0.133766,0.173892 0.172585,0.277994 0.03882,0.104208 0.05683,0.215574 0.05293,0.32736 -0.0038,0.111787 -0.02951,0.221575 -0.07544,0.322519 -0.04582,0.100841 -0.110955,0.190838 -0.191294,0.2641 -0.08034,0.07337 -0.174085,0.128522 -0.275535,0.162101 -0.10145,0.03357 -0.208402,0.04495 -0.314154,0.03316 C 52.64581,47.70195 52.54346,47.66754 52.450914,47.612484 47.1188,44.935915 40.95748,45.027281 35.102509,47.869531 c -3.455194,1.686065 -6.492683,4.189901 -8.875151,7.315723 -0.07274,0.09568 -0.165081,0.172838 -0.270132,0.225784 -0.105052,0.05305 -0.220008,0.08042 -0.336565,0.0802 z"
       fill="#670a39"
       id="path51"
       style="stroke-width:1" />
    <path
       d="m 75.834482,43.296267 c -0.155576,1.05e-4 -0.30765,-0.04905 -0.436414,-0.141155 -0.128763,-0.092 -0.228211,-0.222626 -0.285439,-0.374833 -0.05723,-0.152312 -0.06964,-0.31915 -0.03552,-0.478831 0.03412,-0.159786 0.113156,-0.305046 0.226711,-0.416938 8.658745,-8.543905 20.713855,-10.186603 29.30647,-3.993696 0.086,0.05999 0.15908,0.137155 0.21611,0.227048 0.056,0.09 0.096,0.190837 0.11505,0.29694 0.02,0.105998 0.019,0.215048 -0.002,0.320835 -0.021,0.105682 -0.061,0.2061 -0.11906,0.295151 -0.058,0.08915 -0.13306,0.165259 -0.2191,0.223889 -0.0861,0.05873 -0.18209,0.09884 -0.28314,0.118103 -0.10105,0.01916 -0.2051,0.01706 -0.30515,-0.0061 -0.10005,-0.02316 -0.1951,-0.06715 -0.27914,-0.12926 -7.990819,-5.756286 -19.244536,-4.178113 -27.368719,3.835383 -0.143371,0.142839 -0.333164,0.222733 -0.530661,0.223574 z"
       fill="#670a39"
       id="path53"
       style="stroke-width:1" />
    <path
       d="M 46.591546,96.918696 C 41.139273,97.710256 35.763737,94.710853 32.089536,89.440134 29.815021,86.14358 28.309983,82.330301 27.696182,78.308605 27.415445,76.570856 27.289783,74.809213 27.320698,73.046834 27.596133,55.040203 44.996464,46.44493 55.339435,62.040986 l 0.0054,0.01137 c 9.406612,14.167985 2.710729,33.736895 -8.753291,34.866342 z"
       fill="#fff8ea"
       id="path55"
       style="stroke-width:1" />
    <path
       d="m 49.029354,73.660284 c -1.158276,-5.182347 0.178292,-10.010488 2.994874,-10.793346 0.624751,-0.166082 1.279045,-0.132958 1.887466,0.09581 0.06366,0.08945 0.131482,0.186971 0.200033,0.286228 2.364817,3.614557 3.929608,7.795683 4.567778,12.20533 0.156449,1.056968 0.264006,2.094084 0.322674,3.111118 -0.202633,0.719955 -0.558906,1.375164 -1.038652,1.909766 -0.479641,0.534602 -1.06861,0.932897 -1.716766,1.160956 -2.823863,0.771315 -6.048625,-2.799613 -7.217407,-7.975845 z"
       fill="#670a39"
       id="path57"
       inkscape:transform-center-x="7.012463"
       inkscape:transform-center-y="1.8307235"
       style="stroke-width:1.0677" />
    <path
       d="m 52.722632,61.531317 c 0.502652,0.0018 1.001777,0.08785 1.478937,0.254755 0.163075,0.05596 0.307258,0.161013 0.414799,0.30229 0.06793,0.09327 0.141111,0.186525 0.214397,0.291941 2.680318,3.897155 4.455019,8.40659 5.180718,13.163558 0.176503,1.128774 0.297358,2.251168 0.364386,3.3371 0.008,0.137305 -0.01253,0.274853 -0.05997,0.403014 -0.271753,0.888939 -0.74254,1.695445 -1.372535,2.350686 -0.629878,0.655242 -1.400186,1.139963 -2.245374,1.412651 -3.611765,0.942248 -7.549111,-3.009541 -8.966254,-8.993358 -1.403945,-5.989354 0.316703,-11.429243 3.918795,-12.383527 0.350844,-0.09157 0.71079,-0.138147 1.072104,-0.13911 z m 0.686552,1.954533 c -0.438697,-0.115644 -0.897308,-0.11757 -1.336915,-0.0056 -2.54922,0.675457 -3.756404,5.31209 -2.628653,10.122249 1.127639,4.810161 4.265543,8.302978 6.826371,7.634981 0.539864,-0.192301 1.030795,-0.513124 1.434782,-0.937677 0.404102,-0.424553 0.710564,-0.941645 0.895715,-1.511207 -0.06532,-0.959896 -0.176502,-1.94691 -0.330018,-2.93958 -0.675627,-4.45107 -2.330725,-8.672175 -4.83215,-12.322996 z"
       fill="#670a39"
       id="path59"
       style="stroke-width:1.14034" />
    <path
       d="m 44.879606,97.858674 c -4.868887,0 -9.702956,-2.769409 -13.217279,-7.663926 -0.04502,-0.05873 -0.109354,-0.146944 -0.173786,-0.23589 -2.356455,-3.408761 -3.91672,-7.3533 -4.554733,-11.51415 -0.155176,-0.987451 -0.261428,-1.969113 -0.320357,-2.918985 -0.05823,-0.791561 -0.07764,-1.632067 -0.06593,-2.492152 0.141169,-9.296309 4.941022,-17.055074 11.947257,-19.307338 6.335906,-2.040163 12.872011,0.897558 17.482571,7.849395 0.01091,0.01547 0.02021,0.03105 0.02951,0.04652 2.499025,3.79349 4.029175,8.198965 4.443678,12.793595 0.414503,4.594525 -0.300647,9.224101 -2.076718,13.444317 -2.54925,5.786496 -6.809938,9.383885 -11.692032,9.874401 -0.597393,0.08421 -1.199488,0.12526 -1.802184,0.124207 z m -2.433693,-43.12878 c -1.186381,0.0016 -2.36586,0.189154 -3.499615,0.556514 -6.361519,2.040162 -10.717655,9.186942 -10.847218,17.774847 -0.01391,0.808718 0.007,1.598699 0.06203,2.348576 0.05593,0.907453 0.155176,1.835221 0.303349,2.768041 0.593991,3.893382 2.049104,7.585507 4.248283,10.778905 l 0.172984,0.234205 c 3.622977,5.046408 8.699065,7.624558 13.599768,6.921418 h 0.03262 c 4.32502,-0.426307 8.131887,-3.682546 10.445321,-8.934528 1.667617,-3.967277 2.336045,-8.319385 1.941051,-12.637179 -0.394993,-4.317793 -1.840102,-8.456012 -4.196257,-12.016035 -0.0101,-0.01547 -0.01941,-0.03095 -0.02871,-0.04736 C 51.339682,57.457099 46.944027,54.7299 42.445921,54.729901 Z"
       fill="#670a39"
       id="path61"
       style="stroke-width:1" />
    <path
       d="M 93.612298,91.369668 C 88.5169,91.64545 83.751164,88.817096 80.373308,84.11668 77.52321,80.024986 75.836083,75.166153 75.508323,70.10543 75.409074,68.79367 75.391465,67.476544 75.455597,66.162363 76.368644,46.193988 96.106521,37.98797 105.81788,55.776712 l -0.006,0.01631 c 8.58221,15.723315 -0.12106,35.530115 -12.199582,35.57664 z"
       fill="#fff8ea"
       id="path63"
       style="stroke-width:1" />
    <path
       d="m 92.930564,92.199965 c -4.912408,0 -9.680446,-2.736147 -13.180862,-7.597296 -0.263729,-0.359045 -0.50895,-0.734405 -0.759472,-1.121974 -2.476615,-3.980013 -3.941133,-8.561694 -4.253686,-13.307057 l -0.0055,-0.08158 c -0.100249,-1.320706 -0.117657,-2.646991 -0.05193,-3.970013 0.472432,-10.296706 6.045764,-18.552513 13.868099,-20.535519 6.930298,-1.754485 13.637887,1.904587 17.942997,9.792402 0.024,0.0441 0.044,0.0902 0.06,0.137892 2.25711,4.198743 3.45269,8.936107 3.4727,13.759362 0.02,4.823255 -1.13655,9.571355 -3.35764,13.79073 -3.16255,5.769339 -7.913184,9.092313 -13.026491,9.119997 -0.232714,0.0065 -0.472431,0.01305 -0.708247,0.01305 z M 91.921969,46.786922 c -1.013697,0.0016 -2.023592,0.129786 -3.008575,0.381886 -5.947215,1.507228 -12.175369,7.977602 -12.682717,19.035659 -0.06163,1.246077 -0.04582,2.4951 0.04732,3.739071 l 0.0062,0.08158 c 0.289742,4.470527 1.664816,8.788109 3.993858,12.540022 0.232714,0.35494 0.457724,0.705037 0.706746,1.044503 3.360748,4.666837 7.951099,7.188357 12.593474,6.936258 h 0.03802 c 4.557034,-0.01716 8.823935,-3.043824 11.706345,-8.303174 2.10003,-3.991696 3.18556,-8.485171 3.15455,-13.046958 -0.032,-4.561788 -1.18158,-9.037894 -3.33664,-12.996748 -0.023,-0.04263 -0.042,-0.08747 -0.058,-0.133786 -3.30362,-5.974176 -8.068959,-9.27831 -13.162857,-9.27831 z"
       fill="#670a39"
       id="path65"
       style="stroke-width:1" />
    <path
       d="m 97.30654,64.224563 c -1.213227,-5.569095 0.465437,-10.695014 3.75001,-11.45201 0.62788,-0.118173 1.27312,-0.100303 1.89401,0.05247 0.62077,0.152758 1.20319,0.436948 1.70979,0.834124 2.70408,4.232304 4.30355,9.101127 4.64648,14.143346 0,0.04288 0,0.07321 0.009,0.116097 -0.55727,2.652827 -1.92966,4.600426 -3.84883,5.042794 -3.29246,0.745467 -6.946133,-3.166675 -8.160264,-8.736808 z"
       fill="#670a39"
       id="path67"
       style="stroke-width:1.11128" />
    <ellipse
       style="fill:#fff8ea;fill-opacity:1;stroke-width:1"
       id="path1378-2"
       cx="100.25036"
       cy="59.499374"
       rx="1.9787346"
       ry="3.0901971" />
    <path
       d="m 101.84379,52.212099 c 1.11516,0.03068 2.19499,0.427057 3.09513,1.136026 0.0862,0.06401 0.16047,0.145034 0.21854,0.238698 2.64026,4.344023 4.20157,9.344035 4.53473,14.522522 l 0.005,0.08907 c 0.006,0.09355 10e-4,0.187443 -0.0134,0.27984 -0.62247,3.118242 -2.17875,5.20136 -4.27147,5.70921 -3.61825,0.860553 -7.443493,-3.260057 -8.710888,-9.384373 -1.265687,-6.121787 0.567936,-11.602872 4.174638,-12.479628 0.31739,-0.07562 0.6417,-0.112971 0.96678,-0.111361 z m 2.02812,2.51167 c -0.37545,-0.292252 -0.80129,-0.500725 -1.25256,-0.613466 -0.45135,-0.112856 -0.91906,-0.127451 -1.37563,-0.04321 -2.615926,0.635301 -3.954421,5.376848 -2.925516,10.353759 1.030614,4.978635 4.113366,8.655523 6.733366,8.032749 1.38824,-0.336728 2.50072,-1.911077 2.98914,-4.222204 -0.31194,-4.808204 -1.74578,-9.454132 -4.1688,-13.507628 z"
       fill="#670a39"
       id="path69"
       style="stroke-width:1.07933" />
    <path
       d="M 109.71179,115.30142 C 99.83705,114.45934 89.909183,105.98059 90.826132,92.967841 91.733077,80.090774 102.75838,72.024331 113.67774,71.914123 Z"
       fill="#ffca62"
       id="path71"
       style="stroke-width:1" />
    <path
       d="M 45.287106,123.74859 C 57.188541,118.58345 61.06134,100.21125 48.970512,91.985339 40.54148,86.250209 32.03561,88.926778 26.323409,93.871926 Z"
       fill="#ffca62"
       id="path73"
       style="stroke-width:1" />
    <path
       d="m 77.414557,159.59197 c -19.451536,0 -36.725505,-6.31775 -50.426922,-18.54378 C 12.605884,128.22323 3.2684262,109.88577 0.69199709,89.417293 -1.8262415,69.415445 2.50116,49.820851 12.877417,34.244478 24.567949,16.692363 43.166166,5.3372606 66.661986,1.4064051 97.987143,-3.8333144 124.92425,6.2960802 142.50187,29.930054 c 17.50758,23.535237 21.86472,56.013319 11.10244,82.746176 -10.6042,26.33411 -33.92463,42.78636 -65.666094,46.32417 -3.495513,0.39157 -7.008336,0.58947 -10.523659,0.59157 z M 66.783845,2.212702 66.905605,3.0188937 C 43.831793,6.8779613 25.59125,17.999701 14.14744,35.181194 3.9953426,50.42231 -0.23352966,69.603967 2.2296269,89.202666 4.7564057,109.26999 13.90382,127.24009 27.986124,139.80506 43.783669,153.89737 64.458005,159.9709 87.772235,157.37203 129.80864,152.68687 146.16466,126.95588 152.17261,112.03518 162.71878,85.844639 158.44268,54.010437 141.27727,30.935398 124.06283,7.7902557 97.650478,-2.1253543 66.905605,3.0156306 Z"
       fill="#670a39"
       id="path75"
       style="stroke-width:1" />
    <path
       d="m 109.70979,116.12036 c -0.021,0 -0.042,0 -0.063,0 -10.374387,-0.88524 -20.540471,-9.80715 -19.596308,-23.206938 0.219908,-3.079928 1.03941,-6.079543 2.40758,-8.812426 1.368271,-2.732884 3.255896,-5.140721 5.545919,-7.074044 4.446279,-3.759702 9.960979,-5.846074 15.664779,-5.926915 0.2061,-0.002 0.4042,0.082 0.55127,0.233574 0.14607,0.151575 0.23011,0.358307 0.23212,0.574724 0.002,0.216415 -0.078,0.424831 -0.22211,0.579248 -0.14407,0.154523 -0.34017,0.242521 -0.54627,0.244522 -13.42658,0.133049 -21.399693,10.556173 -22.08633,20.29563 -0.872728,12.388655 8.55569,20.638995 18.17441,21.462135 0.2061,0.008 0.4002,0.1021 0.53926,0.26209 0.14007,0.15895 0.21411,0.36947 0.20611,0.58631 -0.009,0.21578 -0.0981,0.41998 -0.24913,0.56735 -0.15207,0.14631 -0.35217,0.22421 -0.55827,0.21578 z"
       fill="#670a39"
       id="path77"
       style="stroke-width:1" />
    <path
       d="m 45.287807,124.56963 c -0.179789,0 -0.354174,-0.0653 -0.493242,-0.18527 -0.139068,-0.11999 -0.234315,-0.2863 -0.269232,-0.47156 -0.03502,-0.18631 -0.0077,-0.37893 0.07734,-0.54525 0.08504,-0.16631 0.222509,-0.29684 0.38879,-0.36841 2.898821,-1.3147 5.405951,-3.42834 7.255958,-6.1188 1.849907,-2.69046 2.973958,-5.85671 3.252994,-9.164 0.30585,-2.94098 -0.18439,-5.91249 -1.414193,-8.573486 -1.229803,-2.66099 -3.149144,-4.901885 -5.536914,-6.465532 -6.876672,-4.679891 -15.001655,-3.993696 -21.732455,1.832062 -0.159178,0.134313 -0.362278,0.197259 -0.565277,0.175259 -0.203,-0.0221 -0.389491,-0.127366 -0.519255,-0.293152 -0.129663,-0.165679 -0.192094,-0.378516 -0.173685,-0.592301 0.01851,-0.213784 0.116257,-0.411359 0.272134,-0.549776 7.279368,-6.301432 16.087787,-7.026889 23.561851,-1.942165 2.628889,1.721643 4.741925,4.189374 6.095989,7.11878 1.353963,2.929401 1.893728,6.201961 1.557263,9.439781 -0.30615,3.60412 -1.533051,7.05456 -3.550841,9.98503 -2.017889,2.93046 -4.751529,5.23251 -7.911578,6.66194 -0.09415,0.039 -0.194596,0.0579 -0.295645,0.0568 z"
       fill="#670a39"
       id="path79"
       style="stroke-width:1" />
    <ellipse
       style="fill:#fff8ea;fill-opacity:1;stroke-width:1"
       id="path1378"
       cx="51.143417"
       cy="69.041107"
       rx="1.9787346"
       ry="3.0901971" />
  </g>
  <defs
     id="defs86">
    <clipPath
       id="clip0_38_863">
      <rect
         width="177"
         height="161"
         fill="#ffffff"
         id="rect83"
         x="0"
         y="0" />
    </clipPath>
  </defs>
</svg>
