<?xml version="1.0" encoding="UTF-8" standalone="no"?>
<svg
   width="177"
   height="161"
   viewBox="0 0 177 161"
   fill="none"
   version="1.1"
   id="svg88"
   sodipodi:docname="fav_logo_small.svg"
   inkscape:version="1.2.2 (b0a8486, 2022-12-01)"
   xmlns:inkscape="http://www.inkscape.org/namespaces/inkscape"
   xmlns:sodipodi="http://sodipodi.sourceforge.net/DTD/sodipodi-0.dtd"
   xmlns="http://www.w3.org/2000/svg"
   xmlns:svg="http://www.w3.org/2000/svg">
  <sodipodi:namedview
     id="namedview90"
     pagecolor="#ffffff"
     bordercolor="#000000"
     borderopacity="0.25"
     inkscape:showpageshadow="2"
     inkscape:pageopacity="0.0"
     inkscape:pagecheckerboard="0"
     inkscape:deskcolor="#d1d1d1"
     showgrid="false"
     inkscape:zoom="5.04"
     inkscape:cx="83.531746"
     inkscape:cy="82.043651"
     inkscape:window-width="1669"
     inkscape:window-height="961"
     inkscape:window-x="239"
     inkscape:window-y="25"
     inkscape:window-maximized="0"
     inkscape:current-layer="g81" />
  <g
     clip-path="url(#clip0_38_863)"
     id="g81"
     transform="matrix(1.1083124,0,0,1.0576015,-7.0788084,-5.4969019)"
     style="stroke-width:0.923651">
    <path
       d="M 73.492979,7.9200344 C 178.17438,-8.7237956 204.03038,144.49703 94.554879,156.09703 -5.4934206,166.69703 -28.130121,24.078534 73.492979,7.9200344 Z"
       fill="#ffca62"
       id="path29"
       style="stroke-width:0.889627" />
    <path
       d="m 96.313079,155.88703 c -0.5815,0.069 -1.1716,0.139 -1.7602,0.201 -100.0443996,10.606 -122.6788,-132.016996 -21.0611,-148.1731956 3.3663,-0.5349 6.6489,-0.8967 9.8478,-1.0854 -0.7684,0.1163 -1.5353,0.2404 -2.3193,0.3722 -7.9473,1.3229 -15.6542,3.8178996 -22.8686,7.4035996 -1.5663,0.7907 -3.0862,1.628 -4.5447,2.5118 -8.653,5.136 -16.0067,12.1954 -21.4907,20.6309 -12.2369,18.8464 -14.0979,42.7473 -9.0034,62.989096 2.649,10.592 7.4095,20.541 13.9963,29.25 12.2516,16.015 31.6991,27.815 59.2039,25.9 z"
       fill="#ffae5d"
       id="path31"
       style="stroke-width:0.889627" />
    <path
       d="m 118.59038,139.44403 c -0.132,0.062 -0.264,0.125 -0.396,0.179 -8.321,3.66 -17.1747,5.966 -26.224601,6.83 -43.3916,4.597 -66.786,-22.785 -73.6329,-47.623996 -6.91675,-25.0869 -0.3808,-56.6163 29.0549,-72.7105 1.3872,-0.7675 2.8372,-1.4963 4.3346,-2.1862 6.9317,-3.1308 14.2603,-5.2958 21.7807,-6.4346 44.664301,-7.1013 69.555301,20.141 77.301301,45.6234 7.886,25.9632 1.169,60.918896 -32.218,76.322896 z"
       fill="#ffae5d"
       id="path33"
       style="stroke-width:0.889627" />
    <path
       d="m 118.19438,139.62303 c -8.321,3.66 -17.1747,5.966 -26.224601,6.83 -43.3916,4.597 -66.786,-22.785 -73.6329,-47.623996 -6.91675,-25.0866 -0.3808,-56.616 29.0549,-72.7102 6.8363,-3.0578 14.0554,-5.1754 21.4604,-6.295 44.664201,-7.1013 67.771201,19.0223 75.750201,45.6234 7.73,25.7554 3.291,57.856796 -26.408,74.175796 z"
       fill="#ffca62"
       id="path35"
       style="stroke-width:0.889627" />
    <path
       d="m 82.536779,147.74403 c -37.811,0 -58.5371,-25.45 -64.9475,-48.703996 -3.69556,-13.1876 -3.37891,-27.1769 0.9096,-40.1841 4.8936,-14.3328 14.7562,-25.8864 28.5214,-33.4133 1.3678,-0.7566 2.8434,-1.5008 4.3819,-2.2102 6.9965,-3.1605 14.3937,-5.3464 21.9846,-6.4966 45.152601,-7.1779996 70.330601,20.3821 78.162601,46.1638 7.979,26.2725 1.17,61.652396 -32.632,77.251396 -0.142,0.067 -0.286,0.133 -0.428,0.192 -8.39,3.689 -17.3169,6.013 -26.441401,6.884 -3.1591,0.34 -6.3339,0.512 -9.5112,0.517 z m 4.9363,-130.611996 c -4.6373,0.0138 -9.2662,0.3939 -13.8436,1.1365 -7.4505,1.1272 -14.711,3.2714 -21.5783,6.3725 -1.5043,0.6939 -2.9466,1.4211 -4.2834,2.1607 -13.4209,7.3392 -23.0361,18.5959 -27.8011,32.555 -4.18899,12.7125 -4.49592,26.3843 -0.8816,39.2723 6.2591,22.706996 26.5231,47.558996 63.4865,47.561996 3.1126,-0.004 6.2227,-0.172 9.3175,-0.504 8.966901,-0.857 17.739301,-3.14 25.985301,-6.763 0.145,-0.061 0.266,-0.117 0.388,-0.174 h 0.006 c 32.964,-15.208 39.592,-49.742296 31.802,-75.393796 -6.818,-22.4241 -27.074,-46.2242 -62.597301,-46.2242 z"
       fill="#670a39"
       id="path37"
       style="stroke-width:0.889627" />
    <path
       d="m 109.84438,112.17503 c -0.208,0.42 -0.42,0.83 -0.649,1.233 -3.6342,6.521 -9.520201,11.495 -16.556801,13.99 -4.6593,1.667 -9.5811,2.48 -14.529,2.399 -19.5863,-0.102 -30.8546,-24.265 -26.4681,-29.087 4.0322,-4.413796 9.9362,6.304 22.8144,5.664 20.6858,-1.026 27.241901,-14.771196 34.350501,-9.002996 3.771,3.055996 2.939,10.945996 1.038,14.803996 z"
       fill="#670a39"
       id="path39"
       style="stroke-width:0.889627" />
    <path
       d="m 78.379279,130.56903 h -0.2753 c -12.3857,-0.065 -22.132,-9.66 -26.2975,-19.14 -2.203,-5.016 -2.486,-9.324 -0.7398,-11.242 2.3472,-2.569996 5.2364,-0.914996 8.5824,1 3.6855,2.11 8.2706,4.734 14.767,4.413 10.3565,-0.515 17.2143,-4.328 22.215,-7.112996 5.090601,-2.8317 8.768401,-4.8799 12.664301,-1.718 4.284,3.472996 3.107,11.968996 1.24,15.748996 -0.214,0.432 -0.434,0.853 -0.67,1.27 -3.7173,6.686 -9.7496,11.784 -16.962501,14.336 -4.6588,1.666 -9.576,2.494 -14.5236,2.445 z m -24.4528,-30.152 c -0.3279,0 -0.6516,0.073 -0.948,0.213 -0.2963,0.14 -0.5578,0.344 -0.7657,0.598 -1.2872,1.415 -0.8801,5.264 1.0142,9.576 3.9632,9.022 13.1953,18.152 24.8855,18.213 4.8549,0.078 9.6842,-0.718 14.2569,-2.351 6.8649,-2.427 12.606601,-7.277 16.146001,-13.639 0.225,-0.399 0.432,-0.795 0.632,-1.201 1.849,-3.752 2.461,-11.193 -0.829,-13.859996 -2.9468,-2.3944 -5.6305,-1.081 -10.933601,1.869 -5.1379,2.858996 -12.1741,6.774996 -22.8927,7.305996 -6.9462,0.351 -11.9569,-2.522 -15.6146,-4.615 -2.2456,-1.283 -3.767,-2.109 -4.951,-2.109 z"
       fill="#670a39"
       id="path41"
       style="stroke-width:0.889627" />
    <path
       d="m 109.19538,113.40803 c -3.6346,6.521 -9.520601,11.495 -16.557201,13.991 -4.6052,-2.208 -6.9462,-7.438 -6.7174,-11.887 0.3745,-7.25 6.8174,-8.122 8.8979,-6.589 0.7281,-2.074 5.660501,-5.359 10.586801,-1.913 1.5869,1.104 3.4889,4.305 3.7899,6.398 z"
       fill="#ec4949"
       id="path43"
       style="stroke-width:0.889627" />
    <path
       d="m 92.637779,128.17103 c -0.1163,0 -0.231,-0.027 -0.3358,-0.077 -5.234,-2.509 -7.3789,-8.303 -7.1563,-12.625 0.2411,-4.67 2.8055,-6.565 4.3121,-7.279 1.5689,-0.771 3.3795,-0.89 5.0356,-0.329 0.9724,-1.306 2.3377,-2.266 3.8957,-2.739 1.2536,-0.396 2.582901,-0.489 3.879501,-0.273 1.2965,0.217 2.5235,0.737 3.5807,1.518 1.7831,1.244 3.7811,4.611 4.1101,6.927 0.023,0.167 -0.008,0.336 -0.089,0.484 -3.7177,6.689 -9.7519,11.789 -16.967401,14.342 -0.0848,0.033 -0.1745,0.05 -0.2652,0.051 z m -0.1551,-19.115 c -0.8171,0.004 -1.6234,0.187 -2.3619,0.536 -2.0619,0.977 -3.2793,3.093 -3.4266,5.958 -0.1931,3.743 1.6043,8.727 5.9862,11.002 6.6438,-2.427 12.208901,-7.135 15.702001,-13.284 -0.377,-1.876 -2.0663,-4.682 -3.4225,-5.628 -0.8578,-0.651 -1.8599,-1.085 -2.9213,-1.266 -1.0614,-0.181 -2.150701,-0.103 -3.175801,0.226 -1.7005,0.547 -3.0202,1.737 -3.3141,2.574 -0.0402,0.114 -0.1066,0.217 -0.1939,0.302 -0.0874,0.084 -0.1932,0.146 -0.309,0.182 -0.1158,0.035 -0.2384,0.043 -0.3579,0.023 -0.1195,-0.02 -0.2326,-0.068 -0.3303,-0.14 -0.5613,-0.347 -1.2147,-0.516 -1.8741,-0.485 z"
       fill="#670a39"
       id="path45"
       style="stroke-width:0.889627" />
    <path
       d="m 94.822079,108.91503 c -0.8703,1.588 -1.3253,3.369 -1.3229,5.18 z"
       fill="#ec4949"
       id="path47"
       style="stroke-width:0.889627" />
    <path
       d="m 93.499279,114.87003 c -0.2057,0 -0.4029,-0.081 -0.5483,-0.227 -0.1455,-0.145 -0.2272,-0.342 -0.2272,-0.548 -0.0041,-1.942 0.4841,-3.853 1.4191,-5.555 0.048,-0.091 0.1137,-0.172 0.1933,-0.237 0.0795,-0.066 0.1713,-0.115 0.2699,-0.144 0.0986,-0.03 0.2022,-0.039 0.3045,-0.028 0.1024,0.011 0.2016,0.042 0.2918,0.091 0.0902,0.05 0.1696,0.117 0.2336,0.198 0.064,0.08 0.1113,0.173 0.1392,0.272 0.0278,0.099 0.0356,0.203 0.0229,0.305 -0.0126,0.102 -0.0455,0.201 -0.0967,0.29 -0.8088,1.473 -1.2309,3.126 -1.2267,4.807 0,0.205 -0.0817,0.402 -0.2271,0.548 -0.1454,0.145 -0.3427,0.227 -0.5483,0.227 z"
       fill="#670a39"
       id="path49"
       style="stroke-width:0.889627" />
    <path
       d="m 32.349479,53.971689 c -0.1459,-2e-4 -0.2889,-0.0416 -0.4124,-0.1195 -0.1234,-0.0779 -0.2224,-0.189 -0.2855,-0.3206 -0.0631,-0.1316 -0.0878,-0.2783 -0.0712,-0.4233 0.0166,-0.145 0.0739,-0.2824 0.1651,-0.3963 2.5318,-3.1571 5.7597,-5.6857 9.4314,-7.3882 6.2809,-2.8963 12.9037,-2.98 18.6573,-0.2325 0.0988,0.0392 0.1885,0.0982 0.2635,0.1736 0.075,0.0753 0.1337,0.1652 0.1725,0.2641 0.0388,0.099 0.0568,0.2048 0.0529,0.311 -0.0038,0.1062 -0.0295,0.2105 -0.0754,0.3064 -0.0458,0.0958 -0.1109,0.1813 -0.1912,0.2509 -0.0803,0.0697 -0.174,0.1221 -0.2754,0.154 -0.1014,0.0319 -0.2083,0.0427 -0.314,0.0315 -0.1057,-0.0111 -0.208,-0.0438 -0.3005,-0.0961 -5.3295,-2.5428 -11.4878,-2.456 -17.3399,0.2442 -3.4535,1.6018 -6.4895,3.9805 -8.8708,6.9501 -0.0727,0.0909 -0.165,0.1642 -0.27,0.2145 -0.105,0.0504 -0.2199,0.0764 -0.3364,0.0762 z"
       fill="#670a39"
       id="path51"
       style="stroke-width:0.889627" />
    <path
       d="m 80.55592,40.40343 c -0.1555,1e-4 -0.3075,-0.0466 -0.4362,-0.1341 -0.1287,-0.0874 -0.2281,-0.2115 -0.2853,-0.3561 -0.0572,-0.1447 -0.0696,-0.3032 -0.0355,-0.4549 0.0341,-0.1518 0.1131,-0.2898 0.2266,-0.3961 8.6545,-8.1169 20.7037,-9.6775 29.2921,-3.7941 0.086,0.057 0.159,0.1303 0.216,0.2157 0.056,0.0855 0.096,0.1813 0.115,0.2821 0.02,0.1007 0.019,0.2043 -0.002,0.3048 -0.021,0.1004 -0.061,0.1958 -0.119,0.2804 -0.058,0.0847 -0.133,0.157 -0.219,0.2127 -0.086,0.0558 -0.182,0.0939 -0.283,0.1122 -0.101,0.0182 -0.205,0.0162 -0.305,-0.0059 -0.1,-0.022 -0.195,-0.0638 -0.279,-0.1228 -7.9869,-5.4686 -19.2351,-3.9693 -27.3553,3.6437 -0.1433,0.1357 -0.333,0.2116 -0.5304,0.2124 z"
       fill="#670a39"
       id="path53"
       style="stroke-width:0.889627" />
    <path
       d="M 54.95424,97.875161 C 47.973964,98.714492 41.091931,95.534074 36.388032,89.945265 33.476082,86.449762 31.549256,82.406351 30.763437,78.141944 30.404022,76.299322 30.243144,74.431363 30.282724,72.562623 30.63535,53.469285 52.912135,44.355285 66.153732,60.892569 l 0.0069,0.01205 C 78.203471,75.927646 69.631061,96.677547 54.95424,97.875157 Z"
       fill="#fff8ea"
       id="path55"
       style="stroke-width:1.10438" />
    <path
       d="m 52.655876,98.782032 c -6.200184,0 -12.356032,-2.974437 -16.831276,-8.231309 -0.05733,-0.06308 -0.139253,-0.157822 -0.221302,-0.253353 -3.000781,-3.661122 -4.987668,-7.897687 -5.800133,-12.366577 -0.197605,-1.060554 -0.33291,-2.114891 -0.407952,-3.135085 -0.07415,-0.850162 -0.09887,-1.752894 -0.08396,-2.676654 0.179769,-9.984541 6.292044,-18.31771 15.213991,-20.736715 8.068331,-2.191202 16.3916,0.964007 22.262823,8.430509 0.01389,0.01662 0.02574,0.03335 0.03759,0.04997 3.182333,4.074333 5.130872,8.805959 5.658712,13.740742 0.527841,4.93467 -0.382853,9.906987 -2.644555,14.439639 -3.24629,6.214887 -8.671976,10.078601 -14.888979,10.60543 -0.760738,0.09044 -1.527464,0.134534 -2.294955,0.133404 z M 49.55674,52.460304 c -1.510774,0.0017 -3.012757,0.203157 -4.456515,0.597713 -8.100946,2.191202 -13.648178,9.867079 -13.813169,19.09077 -0.01771,0.86859 0.0089,1.717056 0.07899,2.522449 0.07122,0.974634 0.197605,1.971087 0.386294,2.972966 0.756405,4.181621 2.60939,8.147084 5.409888,11.5769 l 0.220284,0.251543 c 4.613605,5.420009 11.077647,8.189027 17.318347,7.43383 h 0.04153 C 60.25,96.448608 65.097777,92.9513 68.043773,87.310498 c 2.123593,-4.260984 2.974789,-8.935292 2.471792,-13.572744 -0.502996,-4.637453 -2.34324,-9.082036 -5.343638,-12.905617 -0.01287,-0.01662 -0.02471,-0.03324 -0.03657,-0.05087 -4.253048,-5.391858 -9.850605,-8.320959 -15.578625,-8.320959 z"
       fill="#670a39"
       id="path61"
       style="stroke-width:1.10852" />
    <path
       d="M 99.552879,92.614428 C 93.116616,92.919777 87.096766,89.788201 82.830021,84.583865 79.229916,80.053511 77.098818,74.673773 76.684807,69.070502 76.559441,67.618112 76.537198,66.159779 76.618205,64.704709 77.771523,42.595573 102.70346,33.509808 114.97039,53.205637 l -0.008,0.01807 c 10.84063,17.408975 -0.15292,39.339213 -15.409922,39.390726 z"
       fill="#fff8ea"
       id="path63"
       style="stroke-width:1.12096" />
    <path
       d="m 98.987665,93.406134 c -6.176274,0 -12.171033,-3.06067 -16.572035,-8.49838 -0.331581,-0.40163 -0.639892,-0.821509 -0.954868,-1.255047 -3.113798,-4.452065 -4.955108,-9.577163 -5.348073,-14.885353 l -0.0069,-0.09125 c -0.126041,-1.47735 -0.147929,-2.96094 -0.06528,-4.440879 0.593979,-11.517958 7.601217,-20.752953 17.436081,-22.971155 8.71332,-1.962578 17.14662,2.130482 22.55936,10.95384 0.0301,0.04933 0.0554,0.100903 0.0754,0.154246 2.8378,4.69674 4.341,9.995983 4.36616,15.391304 0.0251,5.395323 -1.42898,10.706575 -4.2215,15.426394 -3.97622,6.453616 -9.9491,10.170716 -16.377942,10.201683 -0.292587,0.0073 -0.593981,0.0146 -0.890457,0.0146 z m -1.268089,-50.7993 c -1.274502,0.0018 -2.544221,0.14518 -3.782621,0.42718 -7.477313,1.685993 -15.307845,8.923793 -15.945724,21.293402 -0.07748,1.393868 -0.05762,2.791033 0.0595,4.182546 l 0.0078,0.09125 c 0.364287,5.000758 2.09314,9.830432 5.021396,14.027344 0.292587,0.397036 0.57549,0.788657 0.888579,1.168386 4.2254,5.220352 9.996755,8.04094 15.833517,7.75894 h 0.04785 c 5.729467,-0.0192 11.094157,-3.404839 14.718147,-9.28798 2.64033,-4.465135 4.00515,-9.491561 3.96615,-14.594405 -0.0401,-5.102843 -1.48557,-10.109841 -4.19509,-14.53824 -0.029,-0.04768 -0.0528,-0.09785 -0.0729,-0.149655 C 110.1126,46.302854 104.12125,42.606831 97.716782,42.606831 Z"
       fill="#670a39"
       id="path65"
       style="stroke-width:1.12409" />
    <path
       d="m 116.39938,115.35303 c -9.8699,-0.8 -19.792901,-8.855 -18.876401,-21.217396 0.9065,-12.2335 11.926401,-19.8968 22.840401,-20.0015 z"
       fill="#ffca62"
       id="path71"
       style="stroke-width:0.889627" />
    <path
       d="m 52.006279,123.37803 c 11.8956,-4.907 15.7665,-22.361 3.6816,-30.175796 -8.4249,-5.4485 -16.9266,-2.9057 -22.636,1.7923 z"
       fill="#ffca62"
       id="path73"
       style="stroke-width:0.889627" />
    <path
       d="m 84.117979,157.43003 c -19.442,0 -36.7075,-6.002 -50.4022,-17.617 -14.3747,-12.184 -23.70758,-29.605 -26.2827456,-49.050496 -2.517004,-19.0022 1.808276,-37.6175 12.1794456,-52.4154 11.6848,-16.6749 30.2739,-27.4625 53.7582,-31.1968996 31.309801,-4.97785 58.233701,4.6452996 75.802701,27.0980996 17.499,22.359 21.854,53.2139 11.097,78.610696 -10.599,25.018 -33.908,40.648 -65.633901,44.009 -3.4938,0.372 -7.0049,0.56 -10.5185,0.562 z m -10.6255,-149.5137956 0.1217,0.7659 c -23.0625,3.6661996 -41.2941,14.2320996 -52.7323,30.5548996 -10.14712,14.4794 -14.3739186,32.7024 -11.9119696,51.3216 2.5255396,19.064396 11.6684696,36.136396 25.7438696,48.073396 15.7898,13.388 36.454,19.158 59.7568,16.689 42.015801,-4.451 58.363801,-28.896 64.368801,-43.071 10.541,-24.881596 6.267,-55.124796 -10.89,-77.046596 -17.206,-21.9884 -43.6054,-31.4084496 -74.335201,-26.5243996 z"
       fill="#670a39"
       id="path75"
       style="stroke-width:0.889627" />
    <path
       d="m 116.39738,116.13103 c -0.021,0 -0.042,0 -0.063,0 -10.3693,-0.841 -20.530401,-9.317 -19.586701,-22.047096 0.2198,-2.926 1.0389,-5.7757 2.4064,-8.372 1.367601,-2.5963 3.254301,-4.8838 5.543201,-6.7205 4.4441,-3.5718 9.9561,-5.5539 15.6571,-5.6307 0.206,-0.0019 0.404,0.0779 0.551,0.2219 0.146,0.144 0.23,0.3404 0.232,0.546 0.002,0.2056 -0.078,0.4036 -0.222,0.5503 -0.144,0.1468 -0.34,0.2304 -0.546,0.2323 -13.42,0.1264 -21.389201,10.0286 -22.075501,19.2813 -0.8723,11.769496 8.551501,19.607496 18.165501,20.389496 0.206,0.008 0.4,0.097 0.539,0.249 0.14,0.151 0.214,0.351 0.206,0.557 -0.009,0.205 -0.098,0.399 -0.249,0.539 -0.152,0.139 -0.352,0.213 -0.558,0.205 z"
       fill="#670a39"
       id="path77"
       style="stroke-width:0.889627" />
    <path
       d="m 52.006979,124.15803 c -0.1797,0 -0.354,-0.062 -0.493,-0.176 -0.139,-0.114 -0.2342,-0.272 -0.2691,-0.448 -0.035,-0.177 -0.0077,-0.36 0.0773,-0.518 0.085,-0.158 0.2224,-0.282 0.3886,-0.35 2.8974,-1.249 5.4033,-3.257 7.2524,-5.813 1.849,-2.556 2.9725,-5.564 3.2514,-8.706 0.3057,-2.794 -0.1843,-5.617 -1.4135,-8.145 -1.2292,-2.527996 -3.1476,-4.656896 -5.5342,-6.142396 -6.8733,-4.446 -14.9943,-3.7941 -21.7218,1.7405 -0.1591,0.1276 -0.3621,0.1874 -0.565,0.1665 -0.2029,-0.021 -0.3893,-0.121 -0.519,-0.2785 -0.1296,-0.1574 -0.192,-0.3596 -0.1736,-0.5627 0.0185,-0.2031 0.1162,-0.3908 0.272,-0.5223 7.2758,-5.9865 16.0799,-6.6757 23.5503,-1.8451 2.6276,1.6356 4.7396,3.98 6.093,6.763 1.3533,2.782996 1.8928,5.891996 1.5565,8.967996 -0.306,3.424 -1.5323,6.702 -3.5491,9.486 -2.0169,2.784 -4.7492,4.971 -7.9077,6.329 -0.0941,0.037 -0.1945,0.055 -0.2955,0.054 z"
       fill="#670a39"
       id="path79"
       style="stroke-width:0.889627" />
    <ellipse
       style="fill:#670a39;fill-opacity:1;stroke-width:0.89839"
       id="path328-5"
       cx="36.497505"
       cy="82.708801"
       rx="7.4523129"
       ry="11.386326"
       inkscape:highlight-color="#670a39"
       transform="matrix(0.97317176,-0.23007983,0.22129345,0.97520726,0,0)"
       inkscape:transform-center-x="0.38176279"
       inkscape:transform-center-y="-3.2809317e-06" />
    <path
       style="fill:#670a39;fill-opacity:1;stroke-width:0.183138"
       d="m 102.79826,74.886935 c -2.46862,-0.636305 -5.165177,-2.842756 -6.696879,-5.479713 -2.317842,-3.990365 -2.684363,-9.227448 -0.894615,-12.782826 1.436763,-2.854163 4.301629,-4.426067 7.046234,-3.866154 6.12965,1.250477 10.54036,9.64046 8.64388,16.442236 -0.69361,2.487649 -2.01838,4.239638 -3.89358,5.149212 -1.46336,0.70981 -2.84882,0.886819 -4.20504,0.537245 z"
       id="path1322" />
    <ellipse
       style="fill:#fff8ea;fill-opacity:1;stroke-width:0.923651"
       id="path1378"
       cx="51.065468"
       cy="69.000954"
       rx="1.7844828"
       ry="2.7758622" />
    <ellipse
       style="fill:#fff8ea;fill-opacity:1;stroke-width:0.923651"
       id="path1378-8"
       cx="99.745056"
       cy="60.871651"
       rx="1.7844828"
       ry="2.7758622" />
  </g>
  <defs
     id="defs86">
    <clipPath
       id="clip0_38_863">
      <rect
         width="177"
         height="161"
         fill="white"
         id="rect83" />
    </clipPath>
  </defs>
</svg>
