<svg width="18" height="18" viewBox="0 0 18 18" fill="none" xmlns="http://www.w3.org/2000/svg">
<g clip-path="url(#clip0_1948_2919)">
<path d="M6 15.75V14.25C6 13.4544 6.31607 12.6913 6.87868 12.1287C7.44129 11.5661 8.20435 11.25 9 11.25H14.25C15.0456 11.25 15.8087 11.5661 16.3713 12.1287C16.9339 12.6913 17.25 13.4544 17.25 14.25V15.75" stroke="white" stroke-width="2" stroke-linecap="round" stroke-linejoin="round"/>
<path d="M11.625 8.25C9.96815 8.25 8.625 6.90685 8.625 5.25C8.625 3.59315 9.96815 2.25 11.625 2.25C13.2819 2.25 14.625 3.59315 14.625 5.25C14.625 6.90685 13.2819 8.25 11.625 8.25Z" stroke="white" stroke-width="2" stroke-linecap="round" stroke-linejoin="round"/>
<path d="M3 6V10.5" stroke="white" stroke-width="2" stroke-linecap="round" stroke-linejoin="round"/>
<path d="M0.75 8.25H5.25" stroke="white" stroke-width="2" stroke-linecap="round" stroke-linejoin="round"/>
</g>
<defs>
<clipPath id="clip0_1948_2919">
<rect width="18" height="18" fill="white" transform="matrix(-1 0 0 1 18 0)"/>
</clipPath>
</defs>
</svg>
