<?xml version="1.0" encoding="UTF-8" standalone="no"?>
<svg
   width="24"
   height="24"
   viewBox="0 0 24 24"
   fill="none"
   version="1.1"
   id="svg136"
   sodipodi:docname="cross-circle-white.svg"
   inkscape:version="1.2.2 (b0a8486, 2022-12-01)"
   xmlns:inkscape="http://www.inkscape.org/namespaces/inkscape"
   xmlns:sodipodi="http://sodipodi.sourceforge.net/DTD/sodipodi-0.dtd"
   xmlns="http://www.w3.org/2000/svg"
   xmlns:svg="http://www.w3.org/2000/svg">
  <defs
     id="defs140" />
  <sodipodi:namedview
     id="namedview138"
     pagecolor="#b5b5b5"
     bordercolor="#000000"
     borderopacity="0.25"
     inkscape:showpageshadow="2"
     inkscape:pageopacity="0"
     inkscape:pagecheckerboard="0"
     inkscape:deskcolor="#d1d1d1"
     showgrid="false"
     inkscape:zoom="23.982705"
     inkscape:cx="13.259555"
     inkscape:cy="11.007933"
     inkscape:window-width="1737"
     inkscape:window-height="936"
     inkscape:window-x="0"
     inkscape:window-y="25"
     inkscape:window-maximized="0"
     inkscape:current-layer="cross-circle" />
  <g
     id="cross-circle">
    <path
       style="font-variation-settings:normal;opacity:1;vector-effect:none;fill:#666666;fill-opacity:0;stroke-width:0.999998;stroke-linecap:butt;stroke-linejoin:miter;stroke-miterlimit:4;stroke-dasharray:none;stroke-dashoffset:0;stroke-opacity:1;-inkscape-stroke:none;stop-color:#000000;stop-opacity:1"
       d="M 8.9126105,15.77719 C 8.4451587,15.624395 8.180169,15.255165 8.2014234,14.786241 8.219086,14.396559 8.2308791,14.381348 9.4925688,13.120884 L 10.61356,12.000981 9.4677063,10.850613 C 8.4013561,9.7800625 8.3175059,9.6884061 8.2592063,9.5296065 8.0781038,9.0363088 8.2815447,8.524243 8.7503178,8.2934668 c 0.1705778,-0.083975 0.226436,-0.096784 0.4185954,-0.095991 0.40902,0.00169 0.3971841,-0.00727 1.6887628,1.278537 l 1.142688,1.1375832 1.11284,-1.1084956 c 0.612062,-0.6096725 1.152937,-1.1356712 1.201944,-1.1688859 0.145317,-0.09849 0.415497,-0.1638199 0.599117,-0.1448687 0.222291,0.022942 0.504735,0.167755 0.650767,0.333656 0.234471,0.266372 0.302995,0.6580578 0.175755,1.0046044 -0.05827,0.1587095 -0.141755,0.2500577 -1.194104,1.3066208 -0.622297,0.62479 -1.13145,1.148488 -1.13145,1.163773 0,0.01529 0.509153,0.538983 1.13145,1.163772 1.052349,1.056564 1.135831,1.147912 1.194104,1.306621 0.12724,0.346547 0.05872,0.738233 -0.175755,1.004605 -0.146032,0.165901 -0.428476,0.310713 -0.650767,0.333656 -0.18362,0.01895 -0.4538,-0.04638 -0.599117,-0.144869 -0.04901,-0.03321 -0.589882,-0.559213 -1.201944,-1.168886 l -1.11284,-1.108495 -1.142688,1.137583 C 9.859629,15.517575 9.6944626,15.67012 9.5528361,15.72912 9.3549183,15.811569 9.0807629,15.832154 8.9126105,15.77719 Z"
       id="path2855" />
    <path
       style="font-variation-settings:normal;opacity:1;vector-effect:none;fill:#ffffff;fill-opacity:1;stroke-width:0.999998;stroke-linecap:butt;stroke-linejoin:miter;stroke-miterlimit:4;stroke-dasharray:none;stroke-dashoffset:0;stroke-opacity:1;-inkscape-stroke:none;stop-color:#000000;stop-opacity:1"
       d="m 9.0305465,15.688738 c -0.467452,-0.152795 -0.732441,-0.522025 -0.711187,-0.990949 0.01766,-0.389682 0.02946,-0.404893 1.291145,-1.665357 L 10.731496,11.912529 9.5856425,10.762161 c -1.06635,-1.0705509 -1.150201,-1.1622069 -1.2085,-1.3210069 -0.181103,-0.493297 0.02234,-1.005363 0.491111,-1.236139 0.170578,-0.083975 0.226436,-0.096784 0.418596,-0.095991 0.40902,0.00169 0.397184,-0.00727 1.6887625,1.2785374 L 12.1183,10.525145 13.23114,9.4166485 c 0.612062,-0.609672 1.152937,-1.135671 1.201944,-1.168886 0.145317,-0.09849 0.415497,-0.1638196 0.599117,-0.1448684 0.222291,0.022942 0.504735,0.1677554 0.650767,0.3336564 0.234471,0.266372 0.302995,0.658057 0.175755,1.004604 -0.05827,0.158709 -0.141755,0.250058 -1.194104,1.3066215 -0.622297,0.62479 -1.13145,1.148488 -1.13145,1.163773 0,0.01529 0.509153,0.538983 1.13145,1.163772 1.052349,1.056564 1.135831,1.147912 1.194104,1.306621 0.12724,0.346547 0.05872,0.738233 -0.175755,1.004605 -0.146032,0.165901 -0.428476,0.310713 -0.650767,0.333656 -0.18362,0.01895 -0.4538,-0.04638 -0.599117,-0.144869 -0.04901,-0.03321 -0.589882,-0.559213 -1.201944,-1.168886 l -1.11284,-1.108495 -1.142688,1.137583 c -0.9980465,0.993588 -1.1632135,1.146133 -1.3048395,1.205133 -0.197918,0.08245 -0.472074,0.103034 -0.640226,0.04807 z"
       id="path2857" />
    <path
       style="font-variation-settings:normal;opacity:1;vector-effect:none;fill:#666666;fill-opacity:0;stroke-width:0.999998;stroke-linecap:butt;stroke-linejoin:miter;stroke-miterlimit:4;stroke-dasharray:none;stroke-dashoffset:0;stroke-opacity:1;-inkscape-stroke:none;stop-color:#000000;stop-opacity:1"
       d="m 11.292383,22.965431 c -0.05676,-0.0066 -0.255774,-0.02645 -0.44226,-0.04418 C 10.173952,22.856969 9.3470197,22.683893 8.6535627,22.461516 4.7104688,21.197046 1.8011047,17.808507 1.1523231,13.724816 0.96237428,12.529201 0.9778811,11.204074 1.1957291,10.015581 1.7651686,6.9089437 3.6587925,4.1891832 6.3856449,2.5614465 7.7351381,1.7558951 9.2126076,1.2640131 10.864865,1.070216 c 0.496129,-0.058192 1.874362,-0.049026 2.402948,0.015981 4.322077,0.5315426 7.861813,3.4482932 9.19753,7.5787846 0.537986,1.6636354 0.659516,3.5713224 0.338879,5.3194374 -0.714468,3.895278 -3.504067,7.129628 -7.251396,8.407502 -0.728041,0.248268 -1.470637,0.418132 -2.270271,0.519308 -0.333921,0.04225 -1.758236,0.08104 -1.990172,0.0542 z m 1.991101,-2.041795 c 1.967254,-0.302503 3.614729,-1.118271 5.007164,-2.47936 1.405254,-1.373619 2.270945,-3.028355 2.598623,-4.967169 C 21.299146,11.051944 20.691309,8.5724394 19.197244,6.5749386 18.828375,6.0817769 17.979151,5.2169396 17.528256,4.8752668 16.233576,3.8942023 14.89549,3.3280125 13.268183,3.0726843 12.928639,3.019409 12.741278,3.0101737 12,3.0101737 c -0.741278,0 -0.928639,0.00924 -1.268183,0.062511 C 8.9595402,3.3507585 7.4772675,4.0191202 6.1621622,5.1331569 5.8227857,5.4206456 5.2694704,5.9847432 5.0007809,6.3171694 2.4480651,9.4754258 2.3091904,13.932989 4.6606871,17.233415 c 0.4467526,0.627037 1.1929672,1.410764 1.7668313,1.855651 1.3767208,1.0673 2.978804,1.71014 4.7027026,1.886971 0.450906,0.04625 1.711142,0.01558 2.153263,-0.0524 z"
       id="path3342" />
    <path
       style="font-variation-settings:normal;opacity:1;vector-effect:none;fill:#666666;fill-opacity:0;stroke-width:0.999998;stroke-linecap:butt;stroke-linejoin:miter;stroke-miterlimit:4;stroke-dasharray:none;stroke-dashoffset:0;stroke-opacity:1;-inkscape-stroke:none;stop-color:#000000;stop-opacity:1"
       d="m 11.292383,22.965431 c -0.05676,-0.0066 -0.255774,-0.02645 -0.44226,-0.04418 C 10.173952,22.856969 9.3470197,22.683893 8.6535627,22.461516 4.7104688,21.197046 1.8011047,17.808507 1.1523231,13.724816 0.96237428,12.529201 0.9778811,11.204074 1.1957291,10.015581 1.7651686,6.9089437 3.6587925,4.1891832 6.3856449,2.5614465 7.7351381,1.7558951 9.2126076,1.2640131 10.864865,1.070216 c 0.496129,-0.058192 1.874362,-0.049026 2.402948,0.015981 4.322077,0.5315426 7.861813,3.4482932 9.19753,7.5787846 0.537986,1.6636354 0.659516,3.5713224 0.338879,5.3194374 -0.714468,3.895278 -3.504067,7.129628 -7.251396,8.407502 -0.728041,0.248268 -1.470637,0.418132 -2.270271,0.519308 -0.333921,0.04225 -1.758236,0.08104 -1.990172,0.0542 z m 1.991101,-2.041795 c 1.967254,-0.302503 3.614729,-1.118271 5.007164,-2.47936 1.405254,-1.373619 2.270945,-3.028355 2.598623,-4.967169 C 21.299146,11.051944 20.691309,8.5724394 19.197244,6.5749386 18.828375,6.0817769 17.979151,5.2169396 17.528256,4.8752668 16.233576,3.8942023 14.89549,3.3280125 13.268183,3.0726843 12.928639,3.019409 12.741278,3.0101737 12,3.0101737 c -0.741278,0 -0.928639,0.00924 -1.268183,0.062511 C 8.9595402,3.3507585 7.4772675,4.0191202 6.1621622,5.1331569 5.8227857,5.4206456 5.2694704,5.9847432 5.0007809,6.3171694 2.4480651,9.4754258 2.3091904,13.932989 4.6606871,17.233415 c 0.4467526,0.627037 1.1929672,1.410764 1.7668313,1.855651 1.3767208,1.0673 2.978804,1.71014 4.7027026,1.886971 0.450906,0.04625 1.711142,0.01558 2.153263,-0.0524 z"
       id="path3344" />
    <path
       style="font-variation-settings:normal;opacity:1;vector-effect:none;fill:#b2b2b2;fill-opacity:0;stroke-width:0.999998;stroke-linecap:butt;stroke-linejoin:miter;stroke-miterlimit:4;stroke-dasharray:none;stroke-dashoffset:0;stroke-opacity:1;-inkscape-stroke:none;stop-color:#000000;stop-opacity:1"
       d="m 11.292383,22.965431 c -0.05676,-0.0066 -0.255774,-0.02645 -0.44226,-0.04418 C 10.173952,22.856969 9.3470197,22.683893 8.6535627,22.461516 4.7104688,21.197046 1.8011047,17.808507 1.1523231,13.724816 0.96237428,12.529201 0.9778811,11.204074 1.1957291,10.015581 1.7651686,6.9089437 3.6587925,4.1891832 6.3856449,2.5614465 7.7351381,1.7558951 9.2126076,1.2640131 10.864865,1.070216 c 0.496129,-0.058192 1.874362,-0.049026 2.402948,0.015981 4.322077,0.5315426 7.861813,3.4482932 9.19753,7.5787846 0.537986,1.6636354 0.659516,3.5713224 0.338879,5.3194374 -0.714468,3.895278 -3.504067,7.129628 -7.251396,8.407502 -0.728041,0.248268 -1.470637,0.418132 -2.270271,0.519308 -0.333921,0.04225 -1.758236,0.08104 -1.990172,0.0542 z m 1.991101,-2.041795 c 1.967254,-0.302503 3.614729,-1.118271 5.007164,-2.47936 1.405254,-1.373619 2.270945,-3.028355 2.598623,-4.967169 C 21.299146,11.051944 20.691309,8.5724394 19.197244,6.5749386 18.828375,6.0817769 17.979151,5.2169396 17.528256,4.8752668 16.233576,3.8942023 14.89549,3.3280125 13.268183,3.0726843 12.928639,3.019409 12.741278,3.0101737 12,3.0101737 c -0.741278,0 -0.928639,0.00924 -1.268183,0.062511 C 8.9595402,3.3507585 7.4772675,4.0191202 6.1621622,5.1331569 5.8227857,5.4206456 5.2694704,5.9847432 5.0007809,6.3171694 2.4480651,9.4754258 2.3091904,13.932989 4.6606871,17.233415 c 0.4467526,0.627037 1.1929672,1.410764 1.7668313,1.855651 1.3767208,1.0673 2.978804,1.71014 4.7027026,1.886971 0.450906,0.04625 1.711142,0.01558 2.153263,-0.0524 z"
       id="path3346" />
    <path
       style="font-variation-settings:normal;opacity:1;vector-effect:none;fill:#666666;fill-opacity:0;stroke-width:0.999998;stroke-linecap:butt;stroke-linejoin:miter;stroke-miterlimit:4;stroke-dasharray:none;stroke-dashoffset:0;stroke-opacity:1;-inkscape-stroke:none;stop-color:#000000;stop-opacity:1"
       d="m 11.292383,22.965431 c -0.05676,-0.0066 -0.255774,-0.02645 -0.44226,-0.04418 C 10.173952,22.856969 9.3470197,22.683893 8.6535627,22.461516 4.7104688,21.197046 1.8011047,17.808507 1.1523231,13.724816 0.96237428,12.529201 0.9778811,11.204074 1.1957291,10.015581 1.7651686,6.9089437 3.6587925,4.1891832 6.3856449,2.5614465 7.7351381,1.7558951 9.2126076,1.2640131 10.864865,1.070216 c 0.496129,-0.058192 1.874362,-0.049026 2.402948,0.015981 4.322077,0.5315426 7.861813,3.4482932 9.19753,7.5787846 0.537986,1.6636354 0.659516,3.5713224 0.338879,5.3194374 -0.714468,3.895278 -3.504067,7.129628 -7.251396,8.407502 -0.728041,0.248268 -1.470637,0.418132 -2.270271,0.519308 -0.333921,0.04225 -1.758236,0.08104 -1.990172,0.0542 z m 1.991101,-2.041795 c 1.967254,-0.302503 3.614729,-1.118271 5.007164,-2.47936 1.405254,-1.373619 2.270945,-3.028355 2.598623,-4.967169 C 21.299146,11.051944 20.691309,8.5724394 19.197244,6.5749386 18.828375,6.0817769 17.979151,5.2169396 17.528256,4.8752668 16.233576,3.8942023 14.89549,3.3280125 13.268183,3.0726843 12.928639,3.019409 12.741278,3.0101737 12,3.0101737 c -0.741278,0 -0.928639,0.00924 -1.268183,0.062511 C 8.9595402,3.3507585 7.4772675,4.0191202 6.1621622,5.1331569 5.8227857,5.4206456 5.2694704,5.9847432 5.0007809,6.3171694 2.4480651,9.4754258 2.3091904,13.932989 4.6606871,17.233415 c 0.4467526,0.627037 1.1929672,1.410764 1.7668313,1.855651 1.3767208,1.0673 2.978804,1.71014 4.7027026,1.886971 0.450906,0.04625 1.711142,0.01558 2.153263,-0.0524 z"
       id="path3348" />
    <path
       style="font-variation-settings:normal;opacity:1;vector-effect:none;fill:#666666;fill-opacity:0;stroke-width:0.999998;stroke-linecap:butt;stroke-linejoin:miter;stroke-miterlimit:4;stroke-dasharray:none;stroke-dashoffset:0;stroke-opacity:1;-inkscape-stroke:none;stop-color:#000000;stop-opacity:1"
       d="m 11.292383,22.965431 c -0.05676,-0.0066 -0.255774,-0.02645 -0.44226,-0.04418 C 10.173952,22.856969 9.3470197,22.683893 8.6535627,22.461516 4.7104688,21.197046 1.8011047,17.808507 1.1523231,13.724816 0.96237428,12.529201 0.9778811,11.204074 1.1957291,10.015581 1.7651686,6.9089437 3.6587925,4.1891832 6.3856449,2.5614465 7.7351381,1.7558951 9.2126076,1.2640131 10.864865,1.070216 c 0.496129,-0.058192 1.874362,-0.049026 2.402948,0.015981 4.322077,0.5315426 7.861813,3.4482932 9.19753,7.5787846 0.537986,1.6636354 0.659516,3.5713224 0.338879,5.3194374 -0.714468,3.895278 -3.504067,7.129628 -7.251396,8.407502 -0.728041,0.248268 -1.470637,0.418132 -2.270271,0.519308 -0.333921,0.04225 -1.758236,0.08104 -1.990172,0.0542 z m 1.991101,-2.041795 c 1.967254,-0.302503 3.614729,-1.118271 5.007164,-2.47936 1.405254,-1.373619 2.270945,-3.028355 2.598623,-4.967169 C 21.299146,11.051944 20.691309,8.5724394 19.197244,6.5749386 18.828375,6.0817769 17.979151,5.2169396 17.528256,4.8752668 16.233576,3.8942023 14.89549,3.3280125 13.268183,3.0726843 12.928639,3.019409 12.741278,3.0101737 12,3.0101737 c -0.741278,0 -0.928639,0.00924 -1.268183,0.062511 C 8.9595402,3.3507585 7.4772675,4.0191202 6.1621622,5.1331569 5.8227857,5.4206456 5.2694704,5.9847432 5.0007809,6.3171694 2.4480651,9.4754258 2.3091904,13.932989 4.6606871,17.233415 c 0.4467526,0.627037 1.1929672,1.410764 1.7668313,1.855651 1.3767208,1.0673 2.978804,1.71014 4.7027026,1.886971 0.450906,0.04625 1.711142,0.01558 2.153263,-0.0524 z"
       id="path3446" />
    <path
       style="font-variation-settings:normal;opacity:1;vector-effect:none;fill:#666666;fill-opacity:0;stroke-width:0.999998;stroke-linecap:butt;stroke-linejoin:miter;stroke-miterlimit:4;stroke-dasharray:none;stroke-dashoffset:0;stroke-opacity:1;-inkscape-stroke:none;stop-color:#000000;stop-opacity:1"
       d="m 11.292383,22.965431 c -0.05676,-0.0066 -0.255774,-0.02645 -0.44226,-0.04418 C 10.173952,22.856969 9.3470197,22.683893 8.6535627,22.461516 4.7104688,21.197046 1.8011047,17.808507 1.1523231,13.724816 0.96237428,12.529201 0.9778811,11.204074 1.1957291,10.015581 1.7651686,6.9089437 3.6587925,4.1891832 6.3856449,2.5614465 7.7351381,1.7558951 9.2126076,1.2640131 10.864865,1.070216 c 0.496129,-0.058192 1.874362,-0.049026 2.402948,0.015981 4.322077,0.5315426 7.861813,3.4482932 9.19753,7.5787846 0.537986,1.6636354 0.659516,3.5713224 0.338879,5.3194374 -0.714468,3.895278 -3.504067,7.129628 -7.251396,8.407502 -0.728041,0.248268 -1.470637,0.418132 -2.270271,0.519308 -0.333921,0.04225 -1.758236,0.08104 -1.990172,0.0542 z m 1.991101,-2.041795 c 1.967254,-0.302503 3.614729,-1.118271 5.007164,-2.47936 1.405254,-1.373619 2.270945,-3.028355 2.598623,-4.967169 C 21.299146,11.051944 20.691309,8.5724394 19.197244,6.5749386 18.828375,6.0817769 17.979151,5.2169396 17.528256,4.8752668 16.233576,3.8942023 14.89549,3.3280125 13.268183,3.0726843 12.928639,3.019409 12.741278,3.0101737 12,3.0101737 c -0.741278,0 -0.928639,0.00924 -1.268183,0.062511 C 8.9595402,3.3507585 7.4772675,4.0191202 6.1621622,5.1331569 5.8227857,5.4206456 5.2694704,5.9847432 5.0007809,6.3171694 2.4480651,9.4754258 2.3091904,13.932989 4.6606871,17.233415 c 0.4467526,0.627037 1.1929672,1.410764 1.7668313,1.855651 1.3767208,1.0673 2.978804,1.71014 4.7027026,1.886971 0.450906,0.04625 1.711142,0.01558 2.153263,-0.0524 z"
       id="path3448" />
    <path
       style="font-variation-settings:normal;opacity:1;vector-effect:none;fill:#666666;fill-opacity:0;stroke-width:0.999998;stroke-linecap:butt;stroke-linejoin:miter;stroke-miterlimit:4;stroke-dasharray:none;stroke-dashoffset:0;stroke-opacity:1;-inkscape-stroke:none;stop-color:#000000;stop-opacity:1"
       d="m 11.292383,22.965431 c -0.05676,-0.0066 -0.255774,-0.02645 -0.44226,-0.04418 C 10.173952,22.856969 9.3470197,22.683893 8.6535627,22.461516 4.7104688,21.197046 1.8011047,17.808507 1.1523231,13.724816 0.96237428,12.529201 0.9778811,11.204074 1.1957291,10.015581 1.7651686,6.9089437 3.6587925,4.1891832 6.3856449,2.5614465 7.7351381,1.7558951 9.2126076,1.2640131 10.864865,1.070216 c 0.496129,-0.058192 1.874362,-0.049026 2.402948,0.015981 4.322077,0.5315426 7.861813,3.4482932 9.19753,7.5787846 0.537986,1.6636354 0.659516,3.5713224 0.338879,5.3194374 -0.714468,3.895278 -3.504067,7.129628 -7.251396,8.407502 -0.728041,0.248268 -1.470637,0.418132 -2.270271,0.519308 -0.333921,0.04225 -1.758236,0.08104 -1.990172,0.0542 z m 1.991101,-2.041795 c 1.967254,-0.302503 3.614729,-1.118271 5.007164,-2.47936 1.405254,-1.373619 2.270945,-3.028355 2.598623,-4.967169 C 21.299146,11.051944 20.691309,8.5724394 19.197244,6.5749386 18.828375,6.0817769 17.979151,5.2169396 17.528256,4.8752668 16.233576,3.8942023 14.89549,3.3280125 13.268183,3.0726843 12.928639,3.019409 12.741278,3.0101737 12,3.0101737 c -0.741278,0 -0.928639,0.00924 -1.268183,0.062511 C 8.9595402,3.3507585 7.4772675,4.0191202 6.1621622,5.1331569 5.8227857,5.4206456 5.2694704,5.9847432 5.0007809,6.3171694 2.4480651,9.4754258 2.3091904,13.932989 4.6606871,17.233415 c 0.4467526,0.627037 1.1929672,1.410764 1.7668313,1.855651 1.3767208,1.0673 2.978804,1.71014 4.7027026,1.886971 0.450906,0.04625 1.711142,0.01558 2.153263,-0.0524 z"
       id="path3450" />
    <path
       style="font-variation-settings:normal;opacity:1;vector-effect:none;fill:#ffffff;fill-opacity:0;stroke-width:0.999998;stroke-linecap:butt;stroke-linejoin:miter;stroke-miterlimit:4;stroke-dasharray:none;stroke-dashoffset:0;stroke-opacity:1;-inkscape-stroke:none;stop-color:#000000;stop-opacity:1"
       d="m 11.292383,22.965431 c -0.05676,-0.0066 -0.255774,-0.02645 -0.44226,-0.04418 C 10.173952,22.856969 9.3470197,22.683893 8.6535627,22.461516 4.7104688,21.197046 1.8011047,17.808507 1.1523231,13.724816 0.96237428,12.529201 0.9778811,11.204074 1.1957291,10.015581 1.7651686,6.9089437 3.6587925,4.1891832 6.3856449,2.5614465 7.7351381,1.7558951 9.2126076,1.2640131 10.864865,1.070216 c 0.496129,-0.058192 1.874362,-0.049026 2.402948,0.015981 4.322077,0.5315426 7.861813,3.4482932 9.19753,7.5787846 0.537986,1.6636354 0.659516,3.5713224 0.338879,5.3194374 -0.714468,3.895278 -3.504067,7.129628 -7.251396,8.407502 -0.728041,0.248268 -1.470637,0.418132 -2.270271,0.519308 -0.333921,0.04225 -1.758236,0.08104 -1.990172,0.0542 z m 1.991101,-2.041795 c 1.967254,-0.302503 3.614729,-1.118271 5.007164,-2.47936 1.405254,-1.373619 2.270945,-3.028355 2.598623,-4.967169 C 21.299146,11.051944 20.691309,8.5724394 19.197244,6.5749386 18.828375,6.0817769 17.979151,5.2169396 17.528256,4.8752668 16.233576,3.8942023 14.89549,3.3280125 13.268183,3.0726843 12.928639,3.019409 12.741278,3.0101737 12,3.0101737 c -0.741278,0 -0.928639,0.00924 -1.268183,0.062511 C 8.9595402,3.3507585 7.4772675,4.0191202 6.1621622,5.1331569 5.8227857,5.4206456 5.2694704,5.9847432 5.0007809,6.3171694 2.4480651,9.4754258 2.3091904,13.932989 4.6606871,17.233415 c 0.4467526,0.627037 1.1929672,1.410764 1.7668313,1.855651 1.3767208,1.0673 2.978804,1.71014 4.7027026,1.886971 0.450906,0.04625 1.711142,0.01558 2.153263,-0.0524 z"
       id="path3452" />
    <path
       style="font-variation-settings:normal;opacity:1;vector-effect:none;fill:#666666;fill-opacity:0;stroke-width:0.999998;stroke-linecap:butt;stroke-linejoin:miter;stroke-miterlimit:4;stroke-dasharray:none;stroke-dashoffset:0;stroke-opacity:1;-inkscape-stroke:none;stop-color:#000000;stop-opacity:1"
       d="m 11.292383,22.965431 c -0.05676,-0.0066 -0.255774,-0.02645 -0.44226,-0.04418 C 10.173952,22.856969 9.3470197,22.683893 8.6535627,22.461516 4.7104688,21.197046 1.8011047,17.808507 1.1523231,13.724816 0.96237428,12.529201 0.9778811,11.204074 1.1957291,10.015581 1.7651686,6.9089437 3.6587925,4.1891832 6.3856449,2.5614465 7.7351381,1.7558951 9.2126076,1.2640131 10.864865,1.070216 c 0.496129,-0.058192 1.874362,-0.049026 2.402948,0.015981 4.322077,0.5315426 7.861813,3.4482932 9.19753,7.5787846 0.537986,1.6636354 0.659516,3.5713224 0.338879,5.3194374 -0.714468,3.895278 -3.504067,7.129628 -7.251396,8.407502 -0.728041,0.248268 -1.470637,0.418132 -2.270271,0.519308 -0.333921,0.04225 -1.758236,0.08104 -1.990172,0.0542 z m 1.991101,-2.041795 c 1.967254,-0.302503 3.614729,-1.118271 5.007164,-2.47936 1.405254,-1.373619 2.270945,-3.028355 2.598623,-4.967169 C 21.299146,11.051944 20.691309,8.5724394 19.197244,6.5749386 18.828375,6.0817769 17.979151,5.2169396 17.528256,4.8752668 16.233576,3.8942023 14.89549,3.3280125 13.268183,3.0726843 12.928639,3.019409 12.741278,3.0101737 12,3.0101737 c -0.741278,0 -0.928639,0.00924 -1.268183,0.062511 C 8.9595402,3.3507585 7.4772675,4.0191202 6.1621622,5.1331569 5.8227857,5.4206456 5.2694704,5.9847432 5.0007809,6.3171694 2.4480651,9.4754258 2.3091904,13.932989 4.6606871,17.233415 c 0.4467526,0.627037 1.1929672,1.410764 1.7668313,1.855651 1.3767208,1.0673 2.978804,1.71014 4.7027026,1.886971 0.450906,0.04625 1.711142,0.01558 2.153263,-0.0524 z"
       id="path7155" />
    <path
       style="font-variation-settings:normal;opacity:1;vector-effect:none;fill:#666666;fill-opacity:0;stroke-width:0.999998;stroke-linecap:butt;stroke-linejoin:miter;stroke-miterlimit:4;stroke-dasharray:none;stroke-dashoffset:0;stroke-opacity:1;-inkscape-stroke:none;stop-color:#000000;stop-opacity:1"
       d="m 11.292383,22.965431 c -0.05676,-0.0066 -0.255774,-0.02645 -0.44226,-0.04418 C 10.173952,22.856969 9.3470197,22.683893 8.6535627,22.461516 4.7104688,21.197046 1.8011047,17.808507 1.1523231,13.724816 0.96237428,12.529201 0.9778811,11.204074 1.1957291,10.015581 1.7651686,6.9089437 3.6587925,4.1891832 6.3856449,2.5614465 7.7351381,1.7558951 9.2126076,1.2640131 10.864865,1.070216 c 0.496129,-0.058192 1.874362,-0.049026 2.402948,0.015981 4.322077,0.5315426 7.861813,3.4482932 9.19753,7.5787846 0.537986,1.6636354 0.659516,3.5713224 0.338879,5.3194374 -0.714468,3.895278 -3.504067,7.129628 -7.251396,8.407502 -0.728041,0.248268 -1.470637,0.418132 -2.270271,0.519308 -0.333921,0.04225 -1.758236,0.08104 -1.990172,0.0542 z m 1.991101,-2.041795 c 1.967254,-0.302503 3.614729,-1.118271 5.007164,-2.47936 1.405254,-1.373619 2.270945,-3.028355 2.598623,-4.967169 C 21.299146,11.051944 20.691309,8.5724394 19.197244,6.5749386 18.828375,6.0817769 17.979151,5.2169396 17.528256,4.8752668 16.233576,3.8942023 14.89549,3.3280125 13.268183,3.0726843 12.928639,3.019409 12.741278,3.0101737 12,3.0101737 c -0.741278,0 -0.928639,0.00924 -1.268183,0.062511 C 8.9595402,3.3507585 7.4772675,4.0191202 6.1621622,5.1331569 5.8227857,5.4206456 5.2694704,5.9847432 5.0007809,6.3171694 2.4480651,9.4754258 2.3091904,13.932989 4.6606871,17.233415 c 0.4467526,0.627037 1.1929672,1.410764 1.7668313,1.855651 1.3767208,1.0673 2.978804,1.71014 4.7027026,1.886971 0.450906,0.04625 1.711142,0.01558 2.153263,-0.0524 z"
       id="path7157" />
    <path
       style="font-variation-settings:normal;opacity:1;vector-effect:none;fill:#666666;fill-opacity:0;stroke-width:0.999998;stroke-linecap:butt;stroke-linejoin:miter;stroke-miterlimit:4;stroke-dasharray:none;stroke-dashoffset:0;stroke-opacity:1;-inkscape-stroke:none;stop-color:#000000;stop-opacity:1"
       d="m 11.292383,22.965431 c -0.05676,-0.0066 -0.255774,-0.02645 -0.44226,-0.04418 C 10.173952,22.856969 9.3470197,22.683893 8.6535627,22.461516 4.7104688,21.197046 1.8011047,17.808507 1.1523231,13.724816 0.96237428,12.529201 0.9778811,11.204074 1.1957291,10.015581 1.7651686,6.9089437 3.6587925,4.1891832 6.3856449,2.5614465 7.7351381,1.7558951 9.2126076,1.2640131 10.864865,1.070216 c 0.496129,-0.058192 1.874362,-0.049026 2.402948,0.015981 4.322077,0.5315426 7.861813,3.4482932 9.19753,7.5787846 0.537986,1.6636354 0.659516,3.5713224 0.338879,5.3194374 -0.714468,3.895278 -3.504067,7.129628 -7.251396,8.407502 -0.728041,0.248268 -1.470637,0.418132 -2.270271,0.519308 -0.333921,0.04225 -1.758236,0.08104 -1.990172,0.0542 z m 1.991101,-2.041795 c 1.967254,-0.302503 3.614729,-1.118271 5.007164,-2.47936 1.405254,-1.373619 2.270945,-3.028355 2.598623,-4.967169 C 21.299146,11.051944 20.691309,8.5724394 19.197244,6.5749386 18.828375,6.0817769 17.979151,5.2169396 17.528256,4.8752668 16.233576,3.8942023 14.89549,3.3280125 13.268183,3.0726843 12.928639,3.019409 12.741278,3.0101737 12,3.0101737 c -0.741278,0 -0.928639,0.00924 -1.268183,0.062511 C 8.9595402,3.3507585 7.4772675,4.0191202 6.1621622,5.1331569 5.8227857,5.4206456 5.2694704,5.9847432 5.0007809,6.3171694 2.4480651,9.4754258 2.3091904,13.932989 4.6606871,17.233415 c 0.4467526,0.627037 1.1929672,1.410764 1.7668313,1.855651 1.3767208,1.0673 2.978804,1.71014 4.7027026,1.886971 0.450906,0.04625 1.711142,0.01558 2.153263,-0.0524 z"
       id="path7159" />
    <path
       style="font-variation-settings:normal;opacity:1;vector-effect:none;fill:#fcfcfc;fill-opacity:1;stroke-width:0.999998;stroke-linecap:butt;stroke-linejoin:miter;stroke-miterlimit:4;stroke-dasharray:none;stroke-dashoffset:0;stroke-opacity:1;-inkscape-stroke:none;stop-color:#000000;stop-opacity:1"
       d="m 11.351351,22.847495 c -0.05676,-0.0066 -0.255774,-0.02645 -0.44226,-0.04418 C 10.23292,22.739033 9.4059878,22.565957 8.7125308,22.34358 4.7694369,21.07911 1.8600728,17.690571 1.2112912,13.60688 1.0213423,12.411265 1.0368492,11.086138 1.2546972,9.8976449 1.8241367,6.7910077 3.7177606,4.0712472 6.444613,2.4435105 7.7941062,1.6379591 9.2715757,1.1460771 10.923833,0.95227995 c 0.496129,-0.058192 1.874362,-0.049026 2.402948,0.015981 4.322077,0.53154265 7.861813,3.44829325 9.19753,7.57878465 0.537986,1.6636354 0.659516,3.5713224 0.338879,5.3194374 -0.714468,3.895278 -3.504067,7.129628 -7.251396,8.407502 -0.728041,0.248268 -1.470637,0.418132 -2.270271,0.519308 -0.333921,0.04225 -1.758236,0.08104 -1.990172,0.0542 z M 13.342452,20.8057 c 1.967254,-0.302503 3.614729,-1.118271 5.007164,-2.47936 1.405254,-1.373619 2.270945,-3.028355 2.598623,-4.967169 C 21.358114,10.934008 20.750277,8.4545034 19.256212,6.4570026 18.887343,5.9638409 18.038119,5.0990036 17.587224,4.7573308 16.292544,3.7762663 14.954458,3.2100765 13.327151,2.9547483 12.987607,2.901473 12.800246,2.8922377 12.058968,2.8922377 c -0.741278,0 -0.928639,0.00924 -1.268183,0.062511 C 9.0185083,3.2328225 7.5362356,3.9011842 6.2211303,5.0152209 5.8817538,5.3027096 5.3284385,5.8668072 5.059749,6.1992334 2.5070332,9.3574899 2.3681585,13.815053 4.7196552,17.115479 c 0.4467526,0.627037 1.1929672,1.410764 1.7668313,1.855651 1.3767208,1.0673 2.978804,1.71014 4.7027025,1.886971 0.450906,0.04625 1.711142,0.01558 2.153263,-0.0524 z"
       id="path7161" />
  </g>
</svg>
