<?xml version="1.0" encoding="UTF-8" standalone="no"?>
<svg
   width="18"
   height="18"
   viewBox="0 0 18 18"
   fill="none"
   version="1.1"
   id="svg140"
   sodipodi:docname="icon.svg"
   inkscape:version="1.2.2 (b0a8486, 2022-12-01)"
   xmlns:inkscape="http://www.inkscape.org/namespaces/inkscape"
   xmlns:sodipodi="http://sodipodi.sourceforge.net/DTD/sodipodi-0.dtd"
   xmlns="http://www.w3.org/2000/svg"
   xmlns:svg="http://www.w3.org/2000/svg">
  <sodipodi:namedview
     id="namedview142"
     pagecolor="#afafaf"
     bordercolor="#000000"
     borderopacity="0.25"
     inkscape:showpageshadow="2"
     inkscape:pageopacity="0"
     inkscape:pagecheckerboard="0"
     inkscape:deskcolor="#d1d1d1"
     showgrid="false"
     inkscape:zoom="45.222222"
     inkscape:cx="8.1818182"
     inkscape:cy="9"
     inkscape:window-width="1390"
     inkscape:window-height="936"
     inkscape:window-x="0"
     inkscape:window-y="25"
     inkscape:window-maximized="0"
     inkscape:current-layer="icon" />
  <g
     id="icon"
     clip-path="url(#clip0_2163_96)">
    <path
       id="Vector"
       d="M8.25 3H3C2.60218 3 2.22064 3.15804 1.93934 3.43934C1.65804 3.72064 1.5 4.10218 1.5 4.5V15C1.5 15.3978 1.65804 15.7794 1.93934 16.0607C2.22064 16.342 2.60218 16.5 3 16.5H13.5C13.8978 16.5 14.2794 16.342 14.5607 16.0607C14.842 15.7794 15 15.3978 15 15V9.75"
       stroke="#663399"
       stroke-width="2"
       stroke-linecap="round"
       stroke-linejoin="round"
       style="stroke:#ffffff;stroke-opacity:1" />
    <path
       id="Vector_2"
       d="M13.875 1.87505C14.1734 1.57668 14.578 1.40906 15 1.40906C15.422 1.40906 15.8266 1.57668 16.125 1.87505C16.4234 2.17342 16.591 2.57809 16.591 3.00005C16.591 3.422 16.4234 3.82668 16.125 4.12505L9 11.25L6 12L6.75 9.00005L13.875 1.87505Z"
       stroke="#663399"
       stroke-width="2"
       stroke-linecap="round"
       stroke-linejoin="round"
       style="stroke:#ffffff;stroke-opacity:1" />
  </g>
  <defs
     id="defs138">
    <clipPath
       id="clip0_2163_96">
      <rect
         width="18"
         height="18"
         fill="white"
         id="rect135" />
    </clipPath>
  </defs>
</svg>
