<svg width="27" height="26" viewBox="0 0 27 26" fill="none" xmlns="http://www.w3.org/2000/svg">
<g id="facebook 1" clip-path="url(#clip0_1849_1880)">
<g id="Group">
<path id="Vector" d="M13.5 0C20.6801 0 26.5 5.82075 26.5 13C26.5 20.1801 20.6801 26 13.5 26C6.31985 26 0.5 20.1801 0.5 13C0.5 5.82075 6.31994 0 13.5 0Z" fill="#3B5998"/>
<path id="Vector_2" d="M15.0827 8.94961H16.7581V6.47473H14.7886V6.48366C12.4023 6.56818 11.9132 7.90959 11.8701 9.31848H11.8652V10.5543H10.2402V12.978H11.8652V19.4747H14.3141V12.978H16.3202L16.7077 10.5543H14.3149V9.80766C14.3149 9.33151 14.6317 8.94961 15.0827 8.94961Z" fill="white"/>
</g>
</g>
<defs>
<clipPath id="clip0_1849_1880">
<rect width="26" height="26" fill="white" transform="translate(0.5)"/>
</clipPath>
</defs>
</svg>
