<svg width="23" height="22" viewBox="0 0 23 22" fill="none" xmlns="http://www.w3.org/2000/svg">
<g id="google 1" clip-path="url(#clip0_1849_1871)">
<path id="Vector" d="M21.6696 9.08747L12.696 9.08704C12.2997 9.08704 11.9785 9.40818 11.9785 9.80444V12.6711C11.9785 13.0673 12.2997 13.3885 12.6959 13.3885H17.7493C17.196 14.8246 16.1632 16.0272 14.8455 16.7914L17.0002 20.5215C20.4567 18.5224 22.5002 15.0149 22.5002 11.0885C22.5002 10.5295 22.459 10.1298 22.3766 9.67979C22.314 9.33789 22.0171 9.08747 21.6696 9.08747Z" fill="#167EE6"/>
<path id="Vector_2" d="M11.5002 17.6956C9.02714 17.6956 6.86822 16.3444 5.7087 14.345L1.97876 16.4949C3.8769 19.7846 7.43274 22 11.5002 22C13.4955 22 15.3783 21.4627 17.0002 20.5265V20.5214L14.8454 16.7913C13.8598 17.3629 12.7192 17.6956 11.5002 17.6956Z" fill="#12B347"/>
<path id="Vector_3" d="M17 20.5265V20.5214L14.8452 16.7913C13.8596 17.3629 12.7192 17.6956 11.5 17.6956V22C13.4953 22 15.3782 21.4627 17 20.5265Z" fill="#0F993E"/>
<path id="Vector_4" d="M4.80435 11C4.80435 9.78103 5.13702 8.6406 5.70854 7.65503L1.9786 5.50513C1.0372 7.12191 0.5 8.99956 0.5 11C0.5 13.0005 1.0372 14.8781 1.9786 16.4949L5.70854 14.345C5.13702 13.3594 4.80435 12.219 4.80435 11Z" fill="#FFD500"/>
<path id="Vector_5" d="M11.5002 4.30435C13.1128 4.30435 14.5941 4.87738 15.7511 5.83056C16.0366 6.06568 16.4515 6.04871 16.7129 5.78725L18.744 3.75611C19.0407 3.45946 19.0196 2.97387 18.7027 2.69895C16.7641 1.0172 14.2419 0 11.5002 0C7.43274 0 3.8769 2.21534 1.97876 5.50511L5.7087 7.65501C6.86822 5.65555 9.02714 4.30435 11.5002 4.30435Z" fill="#FF4B26"/>
<path id="Vector_6" d="M15.751 5.83056C16.0364 6.06568 16.4513 6.04871 16.7128 5.78725L18.7439 3.75611C19.0405 3.45946 19.0194 2.97387 18.7025 2.69895C16.764 1.01716 14.2417 0 11.5 0V4.30435C13.1126 4.30435 14.594 4.87738 15.751 5.83056Z" fill="#D93F21"/>
</g>
<defs>
<clipPath id="clip0_1849_1871">
<rect width="22" height="22" fill="white" transform="translate(0.5)"/>
</clipPath>
</defs>
</svg>
