<svg width="177" height="161" viewBox="0 0 177 161" fill="none" xmlns="http://www.w3.org/2000/svg">
<g clip-path="url(#clip0_38_863)">
<path d="M146.107 136.278C146.096 136.284 146.085 136.292 146.076 136.302C144.726 137.216 143.323 138.092 141.881 138.937L117.681 151.776L38.2383 20.7273L59.2839 9.58697L59.2909 9.59472C67.2685 5.89237 75.7338 3.34715 84.4307 2.03604C90.9791 0.96538 97.6211 0.578258 104.25 0.880914C177.726 4.44706 200.678 99.2524 146.107 136.278V136.278Z" fill="#E48860"/>
<path d="M146.107 136.278C146.096 136.284 146.085 136.292 146.076 136.302C144.726 137.216 143.323 138.092 141.881 138.937L117.681 151.776L38.2383 20.7273L59.2839 9.58697L59.2909 9.59472C67.2685 5.89237 75.7338 3.34715 84.4307 2.03604C90.9791 0.96538 97.6211 0.578258 104.25 0.880914C169.339 11.6646 191.12 97.6631 146.107 136.278V136.278Z" fill="#C36B62"/>
<path d="M175.449 65.4688C178.284 82.1475 173.829 100.138 168.881 110.201L147.061 121.899L151.69 76.989C152.202 77.2153 167.37 69.5698 175.449 65.4688Z" fill="#FFAE5D"/>
<path d="M117.68 152.551C117.546 152.551 117.415 152.516 117.299 152.451C117.183 152.385 117.085 152.291 117.016 152.177L37.5745 21.1287C37.52 21.0384 37.4845 20.9381 37.4701 20.8337C37.4558 20.7292 37.4628 20.623 37.4909 20.5214C37.519 20.4198 37.5675 20.3251 37.6335 20.2429C37.6994 20.1606 37.7815 20.0928 37.8746 20.0433L58.9202 8.9022C58.9676 8.8769 59.0175 8.85664 59.0691 8.84173C67.0832 5.14127 75.5803 2.59209 84.3082 1.26987C90.91 0.194256 97.6055 -0.195445 104.288 0.106993C125.95 1.15901 144.532 10.048 158.019 25.8135C170.093 39.923 177.011 58.8988 176.999 77.8723C177.037 89.1841 174.498 100.356 169.576 110.541C164.348 121.198 156.408 130.293 146.553 136.914C146.54 136.924 146.527 136.934 146.513 136.943C145.217 137.822 143.791 138.718 142.275 139.606L118.045 152.46C117.933 152.52 117.807 152.551 117.68 152.551V152.551ZM39.3269 21.0279L117.963 150.747L141.517 138.253C142.969 137.4 144.36 136.527 145.627 135.671C145.642 135.659 145.658 135.648 145.673 135.638C155.31 129.167 163.075 120.276 168.187 109.856C173.005 99.8835 175.489 88.9455 175.452 77.8707C175.439 59.1968 168.85 41.1235 156.842 26.8205C143.636 11.3877 125.437 2.68547 104.215 1.65517C97.6401 1.3575 91.0517 1.74149 84.5555 2.80099C75.9325 4.10591 67.5387 6.62924 59.6258 10.2953C59.5984 10.3085 59.5702 10.3199 59.5413 10.3294L39.3269 21.0279Z" fill="#670A39"/>
<path d="M109.949 142.468C109.776 142.468 109.609 142.41 109.472 142.304C109.336 142.198 109.239 142.049 109.197 141.882C109.155 141.714 109.17 141.538 109.24 141.38C109.31 141.222 109.43 141.091 109.582 141.01L110.81 140.353L168.468 109.591C168.649 109.494 168.862 109.474 169.058 109.534C169.255 109.594 169.42 109.729 169.517 109.911C169.614 110.092 169.634 110.304 169.574 110.501C169.514 110.698 169.379 110.863 169.197 110.959L110.314 142.376C110.202 142.436 110.077 142.468 109.949 142.468V142.468Z" fill="#670A39"/>
<path d="M96.7543 120.599C96.5811 120.599 96.4129 120.541 96.2764 120.435C96.14 120.328 96.0431 120.179 96.0014 120.011C95.9596 119.843 95.9754 119.665 96.046 119.507C96.1167 119.349 96.2383 119.219 96.3914 119.138L97.5701 118.518L175.852 76.8021C175.941 76.7542 176.04 76.7245 176.141 76.7146C176.243 76.7047 176.345 76.7149 176.442 76.7446C176.54 76.7742 176.63 76.8228 176.709 76.8874C176.788 76.9521 176.853 77.0317 176.901 77.1215C176.949 77.2113 176.978 77.3097 176.988 77.4111C176.998 77.5124 176.988 77.6147 176.958 77.7121C176.929 77.8095 176.88 77.9001 176.815 77.9787C176.751 78.0574 176.671 78.1225 176.581 78.1704L97.1157 120.509C97.0044 120.568 96.8803 120.599 96.7543 120.599V120.599Z" fill="#670A39"/>
<path d="M79.6237 90.1713C79.4507 90.1715 79.2827 90.1138 79.1463 90.0075C79.0099 89.9012 78.913 89.7524 78.871 89.5847C78.8289 89.417 78.8441 89.24 78.9142 89.082C78.9842 88.9239 79.1051 88.7938 79.2577 88.7123L79.4345 88.6177L167.613 41.7027C167.703 41.6515 167.802 41.6189 167.905 41.6069C168.008 41.5948 168.112 41.6034 168.212 41.6323C168.311 41.6612 168.404 41.7098 168.485 41.7751C168.565 41.8404 168.632 41.9212 168.68 42.0127C168.729 42.1042 168.759 42.2045 168.768 42.3077C168.777 42.4109 168.766 42.5149 168.734 42.6135C168.702 42.7122 168.651 42.8035 168.584 42.8821C168.516 42.9607 168.434 43.0249 168.341 43.071L79.9889 90.0837C79.8762 90.1424 79.7507 90.1725 79.6237 90.1713V90.1713Z" fill="#670A39"/>
<path d="M60.0298 54.3978C59.8567 54.3979 59.6886 54.3401 59.5522 54.2337C59.4158 54.1272 59.3189 53.9782 59.277 53.8103C59.2351 53.6424 59.2505 53.4654 59.3209 53.3073C59.3913 53.1492 59.5125 53.0192 59.6654 52.938L139.349 10.6288C139.439 10.5787 139.538 10.5472 139.641 10.5359C139.743 10.5246 139.847 10.5339 139.945 10.5631C140.044 10.5924 140.136 10.641 140.216 10.7062C140.296 10.7714 140.362 10.8519 140.41 10.9428C140.458 11.0338 140.488 11.1335 140.498 11.2361C140.507 11.3387 140.496 11.4422 140.465 11.5404C140.434 11.6386 140.383 11.7297 140.316 11.8082C140.25 11.8868 140.168 11.9512 140.076 11.9978L60.3927 54.3071C60.2811 54.3669 60.1564 54.398 60.0298 54.3978V54.3978Z" fill="#670A39"/>
<path d="M46.8454 32.5224C46.6724 32.5223 46.5044 32.4644 46.3681 32.3579C46.2319 32.2514 46.1351 32.1023 46.0933 31.9345C46.0515 31.7667 46.067 31.5897 46.1374 31.4317C46.2078 31.2737 46.329 31.1438 46.4818 31.0626L104.647 0.223154C104.737 0.175457 104.835 0.145944 104.936 0.136299C105.038 0.126654 105.14 0.137067 105.237 0.166942C105.335 0.196817 105.425 0.24557 105.504 0.310418C105.582 0.375265 105.647 0.454936 105.695 0.544883C105.743 0.634829 105.772 0.73329 105.782 0.834643C105.792 0.935995 105.781 1.03826 105.751 1.13558C105.721 1.23291 105.673 1.3234 105.608 1.40189C105.543 1.48038 105.463 1.54532 105.373 1.59302L47.2083 32.4325C47.0965 32.4916 46.9719 32.5224 46.8454 32.5224Z" fill="#670A39"/>
<path d="M38.5891 21.3428C38.4158 21.3431 38.2475 21.2853 38.1109 21.1787C37.9743 21.0722 37.8773 20.9229 37.8355 20.7548C37.7936 20.5867 37.8093 20.4095 37.88 20.2513C37.9506 20.0931 38.0723 19.9632 38.2254 19.8822L59.2214 8.7698C59.3114 8.72216 59.41 8.6927 59.5114 8.68313C59.6128 8.67355 59.7151 8.68403 59.8124 8.71398C59.9098 8.74393 60.0003 8.79275 60.0787 8.85766C60.1572 8.92258 60.2221 9.00231 60.2698 9.09231C60.3174 9.1823 60.3469 9.28081 60.3565 9.38219C60.3661 9.48357 60.3556 9.58584 60.3256 9.68317C60.2957 9.7805 60.2468 9.87097 60.1819 9.94943C60.117 10.0279 60.0372 10.0928 59.9472 10.1404L38.9504 21.2529C38.8392 21.312 38.7151 21.3428 38.5891 21.3428Z" fill="#670A39"/>
<path d="M66.7516 11.489C171.433 -5.15483 197.289 148.066 87.8135 159.666C-12.2348 170.266 -34.8715 27.6475 66.7516 11.489V11.489Z" fill="#FFCA62"/>
<path d="M89.5717 159.456C88.9902 159.525 88.4001 159.595 87.8115 159.657C-12.2329 170.263 -34.8673 27.64 66.7504 11.4838C70.1167 10.9489 73.3993 10.5871 76.5982 10.3984C75.8298 10.5147 75.0629 10.6388 74.2789 10.7706C66.3316 12.0935 58.6247 14.5885 51.4103 18.1742C49.844 18.9649 48.3241 19.8022 46.8656 20.686C38.2126 25.822 30.8589 32.8814 25.3749 41.3169C13.138 60.1633 11.277 84.0642 16.3715 104.306C19.0205 114.898 23.781 124.847 30.3678 133.556C42.6194 149.571 62.0669 161.371 89.5717 159.456V159.456Z" fill="#FFAE5D"/>
<path d="M111.849 143.013C111.717 143.075 111.585 143.138 111.453 143.192C103.132 146.852 94.2783 149.158 85.2284 150.022C41.8368 154.619 18.4424 127.237 11.5955 102.398C4.67875 77.3111 11.2147 45.7817 40.6504 29.6875C42.0376 28.92 43.4876 28.1912 44.985 27.5013C51.9167 24.3705 59.2453 22.2055 66.7657 21.0667C111.43 13.9654 136.321 41.2077 144.067 66.6901C151.953 92.6533 145.236 127.609 111.849 143.013Z" fill="#FFAE5D"/>
<path d="M111.453 143.192C103.132 146.852 94.2783 149.158 85.2284 150.022C41.8368 154.619 18.4424 127.237 11.5955 102.398C4.67875 77.3114 11.2147 45.782 40.6504 29.6878C47.4867 26.63 54.7058 24.5124 62.1108 23.3928C106.775 16.2915 129.882 42.4151 137.861 69.0162C145.591 94.7716 141.152 126.873 111.453 143.192Z" fill="#FFCA62"/>
<path d="M75.7954 151.313C37.9844 151.313 17.2583 125.863 10.8479 102.609C7.15234 89.4214 7.46899 75.4321 11.7575 62.4249C16.6511 48.0921 26.5137 36.5385 40.2789 29.0116C41.6467 28.255 43.1223 27.5108 44.6608 26.8014C51.6573 23.6409 59.0545 21.455 66.6454 20.3048C111.798 13.1268 136.976 40.6869 144.808 66.4686C152.787 92.7411 145.978 128.121 112.176 143.72C112.034 143.787 111.89 143.853 111.748 143.912C103.358 147.601 94.4311 149.925 85.3066 150.796C82.1475 151.136 78.9727 151.308 75.7954 151.313V151.313ZM80.7317 20.701C76.0944 20.7148 71.4655 21.0949 66.8881 21.8375C59.4376 22.9647 52.1771 25.1089 45.3098 28.21C43.8055 28.9039 42.3632 29.6311 41.0264 30.3707C27.6055 37.7099 17.9903 48.9666 13.2253 62.9257C9.03631 75.6382 8.72938 89.31 12.3437 102.198C18.6028 124.905 38.8668 149.757 75.8302 149.76C78.9428 149.756 82.0529 149.588 85.1477 149.256C94.1146 148.399 102.887 146.116 111.133 142.493C111.278 142.432 111.399 142.376 111.521 142.319H111.527C144.491 127.111 151.119 92.5767 143.329 66.9252C136.511 44.5011 116.255 20.701 80.7317 20.701Z" fill="#670A39"/>
<path d="M103.103 115.744C102.895 116.164 102.683 116.574 102.454 116.977C98.8198 123.498 92.9338 128.472 85.8972 130.967C81.2379 132.634 76.3161 133.447 71.3682 133.366C51.7819 133.264 40.5136 109.101 44.9001 104.279C48.9323 99.8652 54.8363 110.583 67.7145 109.943C88.4003 108.917 94.9564 95.1718 102.065 100.94C105.836 103.996 105.004 111.886 103.103 115.744V115.744Z" fill="#670A39"/>
<path d="M71.6379 134.138H71.3626C58.9769 134.073 49.2306 124.478 45.0651 114.998C42.8621 109.982 42.5791 105.674 44.3253 103.756C46.6725 101.186 49.5617 102.841 52.9077 104.756C56.5932 106.866 61.1783 109.49 67.6747 109.169C78.0312 108.654 84.889 104.841 89.8897 102.056C94.9803 99.2243 98.6581 97.1761 102.554 100.338C106.838 103.811 105.661 112.307 103.794 116.087C103.58 116.519 103.36 116.94 103.124 117.357C99.4067 124.043 93.3744 129.141 86.1615 131.693C81.5027 133.359 76.5855 134.187 71.6379 134.138V134.138ZM47.1851 103.986C46.8572 103.986 46.5335 104.059 46.2371 104.199C45.9408 104.339 45.6793 104.543 45.4714 104.797C44.1842 106.212 44.5913 110.061 46.4856 114.373C50.4488 123.395 59.6809 132.525 71.3711 132.586C76.226 132.664 81.0553 131.868 85.628 130.235C92.4929 127.808 98.2346 122.958 101.774 116.596C101.999 116.197 102.206 115.801 102.406 115.395C104.255 111.643 104.867 104.202 101.577 101.535C98.6302 99.1406 95.9465 100.454 90.6434 103.404C85.5055 106.263 78.4693 110.179 67.7507 110.71C60.8045 111.061 55.7938 108.188 52.1361 106.095C49.8905 104.812 48.3691 103.986 47.1851 103.986V103.986Z" fill="#670A39"/>
<path d="M102.454 116.977C98.8194 123.498 92.9334 128.472 85.8968 130.968C81.2916 128.76 78.9506 123.53 79.1794 119.081C79.5539 111.831 85.9968 110.959 88.0773 112.492C88.8054 110.418 93.7378 107.133 98.6641 110.579C100.251 111.683 102.153 114.884 102.454 116.977V116.977Z" fill="#EC4949"/>
<path d="M85.8964 131.74C85.7801 131.74 85.6654 131.713 85.5606 131.663C80.3266 129.154 78.1817 123.36 78.4043 119.038C78.6454 114.368 81.2098 112.473 82.7164 111.759C84.2853 110.988 86.0959 110.869 87.752 111.43C88.7244 110.124 90.0897 109.164 91.6477 108.691C92.9013 108.295 94.2306 108.202 95.5272 108.418C96.8237 108.635 98.0507 109.155 99.1079 109.936C100.891 111.18 102.889 114.547 103.218 116.863C103.241 117.03 103.21 117.199 103.129 117.347C99.4113 124.036 93.3771 129.136 86.1616 131.689C86.0768 131.722 85.9871 131.739 85.8964 131.74ZM85.7413 112.625C84.9242 112.629 84.1179 112.812 83.3794 113.161C81.3175 114.138 80.1001 116.254 79.9528 119.119C79.7597 122.862 81.5571 127.846 85.939 130.121C92.5828 127.694 98.1479 122.986 101.641 116.837C101.264 114.961 99.5747 112.155 98.2185 111.209C97.3607 110.558 96.3586 110.124 95.2972 109.943C94.2358 109.762 93.1465 109.84 92.1214 110.169C90.4209 110.716 89.1012 111.906 88.8073 112.743C88.7671 112.857 88.7007 112.96 88.6134 113.045C88.526 113.129 88.4202 113.191 88.3044 113.227C88.1886 113.262 88.066 113.27 87.9465 113.25C87.827 113.23 87.7139 113.182 87.6162 113.11C87.0549 112.763 86.4015 112.594 85.7421 112.625H85.7413Z" fill="#670A39"/>
<path d="M88.0807 112.484C87.2104 114.072 86.7554 115.853 86.7578 117.664Z" fill="#EC4949"/>
<path d="M86.7579 118.439C86.5522 118.439 86.355 118.358 86.2096 118.212C86.0641 118.067 85.9824 117.87 85.9824 117.664C85.9783 115.722 86.4665 113.811 87.4015 112.109C87.4495 112.018 87.5152 111.937 87.5948 111.872C87.6743 111.806 87.7661 111.757 87.8647 111.728C87.9633 111.698 88.0669 111.689 88.1692 111.7C88.2716 111.711 88.3708 111.742 88.461 111.791C88.5512 111.841 88.6306 111.908 88.6946 111.989C88.7586 112.069 88.8059 112.162 88.8338 112.261C88.8616 112.36 88.8694 112.464 88.8567 112.566C88.8441 112.668 88.8112 112.767 88.76 112.856C87.9512 114.329 87.5291 115.982 87.5333 117.663C87.5333 117.868 87.4516 118.065 87.3062 118.211C87.1608 118.356 86.9635 118.438 86.7579 118.438V118.439Z" fill="#670A39"/>
<path d="M25.6081 62.101C25.4622 62.1008 25.3192 62.0594 25.1957 61.9815C25.0723 61.9036 24.9733 61.7925 24.9102 61.6609C24.8471 61.5293 24.8224 61.3826 24.839 61.2376C24.8556 61.0926 24.9129 60.9552 25.0041 60.8413C27.5359 57.6842 30.7638 55.1556 34.4355 53.4531C40.7164 50.5568 47.3392 50.4731 53.0928 53.2206C53.1916 53.2598 53.2813 53.3188 53.3563 53.3942C53.4313 53.4695 53.49 53.5594 53.5288 53.6583C53.5676 53.7573 53.5856 53.8631 53.5817 53.9693C53.5779 54.0755 53.5522 54.1798 53.5063 54.2757C53.4605 54.3715 53.3954 54.457 53.3151 54.5266C53.2348 54.5963 53.1411 54.6487 53.0397 54.6806C52.9383 54.7125 52.8314 54.7233 52.7257 54.7121C52.62 54.701 52.5177 54.6683 52.4252 54.616C47.0957 52.0732 40.9374 52.16 35.0853 54.8602C31.6318 56.462 28.5958 58.8407 26.2145 61.8103C26.1418 61.9012 26.0495 61.9745 25.9445 62.0248C25.8395 62.0752 25.7246 62.1012 25.6081 62.101V62.101Z" fill="#670A39"/>
<path d="M75.7973 50.5155C75.6418 50.5156 75.4898 50.4689 75.3611 50.3814C75.2324 50.294 75.133 50.1699 75.0758 50.0253C75.0186 49.8806 75.0062 49.7221 75.0403 49.5704C75.0744 49.4186 75.1534 49.2806 75.2669 49.1743C83.9214 41.0574 95.9706 39.4968 104.559 45.3802C104.645 45.4372 104.718 45.5105 104.775 45.5959C104.831 45.6814 104.871 45.7772 104.89 45.878C104.91 45.9787 104.909 46.0823 104.888 46.1828C104.867 46.2832 104.827 46.3786 104.769 46.4632C104.711 46.5479 104.636 46.6202 104.55 46.6759C104.464 46.7317 104.368 46.7698 104.267 46.7881C104.166 46.8063 104.062 46.8043 103.962 46.7822C103.862 46.7602 103.767 46.7184 103.683 46.6594C95.6961 41.1908 84.4479 42.6901 76.3277 50.3031C76.1844 50.4388 75.9947 50.5147 75.7973 50.5155V50.5155Z" fill="#670A39"/>
<path d="M46.5687 101.458C41.1191 102.21 35.7462 99.3605 32.0738 94.3532C29.8004 91.2214 28.2961 87.5987 27.6826 83.778C27.402 82.1271 27.2764 80.4535 27.3073 78.7792C27.5826 61.6725 44.9744 53.5068 55.3123 68.3234L55.3177 68.3342C64.7197 81.7941 58.0271 100.385 46.5687 101.458Z" fill="#FFF8EA"/>
<path d="M36.9603 85.3295C38.0738 89.8197 36.7889 94.003 34.0812 94.6813C33.4806 94.8252 32.8516 94.7965 32.2667 94.5983C32.2055 94.5208 32.1403 94.4363 32.0744 94.3503C29.801 91.2185 28.2967 87.5958 27.6832 83.7751C27.5328 82.8593 27.4294 81.9607 27.373 81.0795C27.5678 80.4557 27.9103 79.888 28.3715 79.4248C28.8326 78.9616 29.3988 78.6165 30.0219 78.4189C32.7366 77.7506 35.8367 80.8446 36.9603 85.3295Z" fill="#670A39"/>
<path d="M33.3263 95.5496C32.8846 95.5481 32.446 95.4766 32.0267 95.3379C31.8834 95.2914 31.7567 95.2041 31.6622 95.0867C31.6025 95.0092 31.5382 94.9317 31.4738 94.8441C29.1185 91.6056 27.559 87.8583 26.9213 83.9053C26.7662 82.9673 26.66 82.0346 26.6011 81.1322C26.5941 81.0181 26.6121 80.9038 26.6538 80.7973C26.8926 80.0586 27.3063 79.3884 27.8599 78.8439C28.4134 78.2994 29.0903 77.8966 29.833 77.67C33.0068 76.887 36.4667 80.1709 37.712 85.1434C38.9457 90.1205 37.4337 94.641 34.2684 95.434C33.9601 95.5101 33.6438 95.5488 33.3263 95.5496V95.5496ZM32.723 93.9254C33.1085 94.0215 33.5115 94.0231 33.8978 93.9301C36.1379 93.3688 37.1987 89.5158 36.2077 85.5186C35.2168 81.5214 32.4594 78.6189 30.2091 79.174C29.7347 79.3338 29.3033 79.6004 28.9483 79.9532C28.5932 80.306 28.3239 80.7357 28.1612 81.209C28.2186 82.0067 28.3163 82.8269 28.4512 83.6518C29.0449 87.3506 30.4993 90.8583 32.6974 93.8921L32.723 93.9254Z" fill="#670A39"/>
<path d="M44.8576 102.351C39.9911 102.351 35.1594 99.72 31.6468 95.0701C31.6018 95.0143 31.5375 94.9305 31.4731 94.846C29.1178 91.6076 27.5583 87.8602 26.9206 83.9073C26.7655 82.9692 26.6593 82.0366 26.6004 81.1342C26.5422 80.3822 26.5228 79.5837 26.5345 78.7666C26.6756 69.9349 31.4731 62.5639 38.4759 60.4242C44.8087 58.486 51.3416 61.2769 55.9499 67.8813C55.9608 67.896 55.9701 67.9108 55.9794 67.9255C58.4772 71.5294 60.0066 75.7147 60.4209 80.0797C60.8352 84.4446 60.1204 88.8428 58.3452 92.8521C55.7972 98.3494 51.5386 101.767 46.6589 102.233C46.0618 102.313 45.46 102.352 44.8576 102.351V102.351ZM42.4251 61.3777C41.2393 61.3792 40.0604 61.5574 38.9272 61.9064C32.5688 63.8446 28.2148 70.6342 28.0853 78.7929C28.0714 79.5612 28.0923 80.3117 28.1473 81.0241C28.2032 81.8862 28.3024 82.7676 28.4505 83.6538C29.0442 87.3526 30.4986 90.8602 32.6967 93.894L32.8696 94.1165C36.4908 98.9107 41.5644 101.36 46.4627 100.692H46.4953C50.8182 100.287 54.6232 97.1935 56.9355 92.204C58.6023 88.435 59.2704 84.3004 58.8756 80.1984C58.4808 76.0964 57.0364 72.165 54.6814 68.7829C54.6713 68.7682 54.662 68.7535 54.6527 68.7379C51.3145 63.9686 46.921 61.3777 42.4251 61.3777V61.3777Z" fill="#670A39"/>
<path d="M93.5664 96.1863C88.4735 96.4483 83.7101 93.7613 80.3339 89.2958C77.4852 85.4086 75.7989 80.7926 75.4713 75.9848C75.3721 74.7386 75.3545 73.4873 75.4186 72.2388C76.3312 53.2684 96.0594 45.4725 105.766 62.3722L105.76 62.3877C114.338 77.3252 105.639 96.1421 93.5664 96.1863V96.1863Z" fill="#FFF8EA"/>
<path d="M92.885 96.9751C87.975 96.9751 83.2093 94.3757 79.7106 89.7575C79.447 89.4164 79.2019 89.0598 78.9515 88.6916C76.4761 84.9105 75.0123 80.5578 74.6999 76.0496L74.6944 75.9721C74.5942 74.7174 74.5768 73.4574 74.6425 72.2005C75.1147 62.4184 80.6853 54.5752 88.5038 52.6913C95.4307 51.0245 102.135 54.5007 106.438 61.9943C106.462 62.0362 106.482 62.08 106.498 62.1253C108.754 66.1142 109.949 70.6148 109.969 75.197C109.989 79.7792 108.833 84.29 106.613 88.2985C103.452 93.7795 98.7037 96.9364 93.5929 96.9627C93.3603 96.9689 93.1207 96.9751 92.885 96.9751V96.9751ZM91.8769 53.8317C90.8637 53.8332 89.8543 53.955 88.8698 54.1945C82.9255 55.6264 76.7004 61.7734 76.1933 72.2788C76.1317 73.4626 76.1475 74.6492 76.2406 75.831L76.2468 75.9085C76.5364 80.1556 77.9108 84.2574 80.2387 87.8218C80.4713 88.159 80.6962 88.4916 80.9451 88.8141C84.3042 93.2477 88.8923 95.6432 93.5324 95.4037H93.5704C98.1252 95.3874 102.39 92.512 105.271 87.5155C107.37 83.7233 108.455 79.4544 108.424 75.1206C108.392 70.7868 107.243 66.5344 105.089 62.7734C105.066 62.7329 105.047 62.6903 105.031 62.6463C101.729 56.9707 96.966 53.8317 91.8746 53.8317H91.8769Z" fill="#670A39"/>
<path d="M86.1106 79.0946C87.1861 83.9251 85.698 88.3712 82.7863 89.0278C82.2297 89.1303 81.6577 89.1148 81.1073 88.9823C80.557 88.8498 80.0407 88.6033 79.5916 88.2588C77.1945 84.5878 75.7766 80.3647 75.4726 75.9912C75.4726 75.954 75.4726 75.9277 75.4648 75.8905C75.9588 73.5895 77.1754 71.9002 78.8767 71.5165C81.7954 70.8699 85.0343 74.2632 86.1106 79.0946V79.0946Z" fill="#670A39"/>
<path d="M82.051 89.8844C81.0064 89.8577 79.9949 89.5128 79.1517 88.8959C79.0709 88.8402 79.0014 88.7697 78.947 88.6882C76.4738 84.9083 75.0113 80.5576 74.6992 76.0516L74.6938 75.9741C74.6882 75.8927 74.6924 75.811 74.7062 75.7306C75.2893 73.0173 76.7471 71.2047 78.7074 70.7628C82.0967 70.014 85.6799 73.5995 86.8671 78.9285C88.0527 84.2553 86.3351 89.0246 82.9566 89.7875C82.6593 89.8533 82.3555 89.8858 82.051 89.8844V89.8844ZM80.1512 87.6989C80.5029 87.9532 80.9018 88.1346 81.3245 88.2327C81.7473 88.3309 82.1854 88.3436 82.6131 88.2703C85.0635 87.7175 86.3173 83.5917 85.3535 79.2611C84.3881 74.929 81.5004 71.7296 79.0462 72.2715C77.7458 72.5645 76.7037 73.9344 76.2462 75.9454C76.5384 80.1292 77.8815 84.1718 80.1512 87.6989V87.6989Z" fill="#670A39"/>
<path d="M109.658 118.922C99.7881 118.122 89.8651 110.067 90.7816 97.7046C91.6881 85.4711 102.708 77.8078 113.622 77.7031L109.658 118.922Z" fill="#FFCA62"/>
<path d="M45.2649 126.947C57.1605 122.04 61.0314 104.586 48.9465 96.7712C40.5216 91.3227 32.0199 93.8655 26.3105 98.5635L45.2649 126.947Z" fill="#FFCA62"/>
<path d="M77.3766 160.999C57.9346 160.999 40.6691 154.997 26.9744 143.382C12.5997 131.198 3.26682 113.777 0.691654 94.3315C-1.82535 75.3293 2.49993 56.714 12.8711 41.9161C24.5559 25.2412 43.145 14.4536 66.6293 10.7192C97.9391 5.74135 124.863 15.3645 142.432 37.8173C159.931 60.1763 164.286 91.0312 153.529 116.428C142.93 141.446 119.621 157.076 87.8951 160.437C84.4013 160.809 80.8902 160.997 77.3766 160.999V160.999ZM66.7511 11.4852L66.8728 12.2511C43.8103 15.9173 25.5787 26.4832 14.1405 42.806C3.99338 57.2854 -0.233419 75.5084 2.22853 94.1276C4.75407 113.192 13.897 130.264 27.9724 142.201C43.7622 155.589 64.4264 161.359 87.7292 158.89C129.745 154.439 146.093 129.994 152.098 115.819C162.639 90.9374 158.365 60.6942 141.208 38.7724C124.002 16.784 97.6026 7.36395 66.8728 12.248L66.7511 11.4852Z" fill="#670A39"/>
<path d="M109.656 119.7C109.635 119.7 109.614 119.7 109.593 119.7C99.2237 118.859 89.0626 110.383 90.0063 97.6529C90.2261 94.7269 91.0452 91.8772 92.4127 89.2809C93.7803 86.6846 95.667 84.3971 97.9559 82.5604C102.4 78.9886 107.912 77.0065 113.613 76.9297C113.819 76.9278 114.017 77.0076 114.164 77.1516C114.31 77.2956 114.394 77.492 114.396 77.6976C114.398 77.9032 114.318 78.1012 114.174 78.2479C114.03 78.3947 113.834 78.4783 113.628 78.4802C100.208 78.6066 92.2388 88.5088 91.5525 97.7615C90.6802 109.531 100.104 117.369 109.718 118.151C109.924 118.159 110.118 118.248 110.257 118.4C110.397 118.551 110.471 118.751 110.463 118.957C110.454 119.162 110.365 119.356 110.214 119.496C110.062 119.635 109.862 119.709 109.656 119.701V119.7Z" fill="#670A39"/>
<path d="M45.2656 127.727C45.0859 127.727 44.9116 127.665 44.7726 127.551C44.6336 127.437 44.5384 127.279 44.5035 127.103C44.4685 126.926 44.4958 126.743 44.5808 126.585C44.6658 126.427 44.8032 126.303 44.9694 126.235C47.8668 124.986 50.3727 122.978 52.2218 120.422C54.0708 117.866 55.1943 114.858 55.4732 111.716C55.7789 108.922 55.2889 106.099 54.0597 103.571C52.8305 101.043 50.9121 98.9141 48.5255 97.4286C41.6522 92.9826 33.5312 93.6345 26.8037 99.1691C26.6446 99.2967 26.4416 99.3565 26.2387 99.3356C26.0358 99.3146 25.8494 99.2146 25.7197 99.0571C25.5901 98.8997 25.5277 98.6975 25.5461 98.4944C25.5646 98.2913 25.6623 98.1036 25.8181 97.9721C33.0939 91.9856 41.898 91.2964 49.3684 96.127C51.996 97.7626 54.108 100.107 55.4614 102.89C56.8147 105.673 57.3542 108.782 57.0179 111.858C56.7119 115.282 55.4856 118.56 53.4688 121.344C51.4519 124.128 48.7196 126.315 45.5611 127.673C45.467 127.71 45.3666 127.728 45.2656 127.727V127.727Z" fill="#670A39"/>
</g>
<defs>
<clipPath id="clip0_38_863">
<rect width="177" height="161" fill="white"/>
</clipPath>
</defs>
</svg>
