<?xml version="1.0" encoding="UTF-8" standalone="no"?>
<!-- Uploaded to: SVG Repo, www.svgrepo.com, Generator: SVG Repo Mixer Tools -->

<svg
   fill="#000000"
   height="800px"
   width="800px"
   version="1.1"
   id="Capa_1"
   viewBox="0 0 277.262 277.262"
   xml:space="preserve"
   sodipodi:docname="loupe-svgrepo-com.svg"
   inkscape:version="1.2.2 (b0a8486, 2022-12-01)"
   xmlns:inkscape="http://www.inkscape.org/namespaces/inkscape"
   xmlns:sodipodi="http://sodipodi.sourceforge.net/DTD/sodipodi-0.dtd"
   xmlns="http://www.w3.org/2000/svg"
   xmlns:svg="http://www.w3.org/2000/svg"><defs
   id="defs141" /><sodipodi:namedview
   id="namedview139"
   pagecolor="#c1c1c1"
   bordercolor="#000000"
   borderopacity="0.25"
   inkscape:showpageshadow="2"
   inkscape:pageopacity="0"
   inkscape:pagecheckerboard="0"
   inkscape:deskcolor="#d1d1d1"
   showgrid="false"
   inkscape:zoom="1.0175"
   inkscape:cx="376.41278"
   inkscape:cy="373.46437"
   inkscape:window-width="1390"
   inkscape:window-height="936"
   inkscape:window-x="0"
   inkscape:window-y="25"
   inkscape:window-maximized="0"
   inkscape:current-layer="g136" />
<g
   id="g136">
	<path
   d="M77.452,59.798c-4.881-4.881-12.797-4.881-17.678,0c-9.893,9.892-15.341,23.046-15.341,37.035   c0,13.989,5.448,27.142,15.341,37.034c4.88,4.88,12.795,4.883,17.678,0c4.882-4.882,4.882-12.797,0-17.678   c-5.171-5.171-8.019-12.045-8.019-19.356s2.848-14.187,8.019-19.357C82.334,72.594,82.334,64.68,77.452,59.798z"
   id="path132"
   style="fill:#ffffff;fill-opacity:1" />
	<path
   d="M268.165,224.375l-84.593-84.594c17.881-36.199,11.802-81.325-18.291-111.42C146.992,10.072,122.675,0,96.81,0   C70.945,0,46.628,10.072,28.338,28.361c-37.754,37.756-37.754,99.188,0,136.943c18.29,18.289,42.606,28.361,68.472,28.361   c15.167,0,29.8-3.468,42.999-10.021l84.542,84.542c12.1,12.1,31.715,12.1,43.814,0   C280.264,256.089,280.264,236.474,268.165,224.375z M46.016,147.627c-28.007-28.008-28.007-73.58,0-101.588   C59.583,32.472,77.622,25,96.81,25s37.227,7.472,50.794,21.039c45.239,45.24,12.768,122.627-50.794,122.627   C77.622,168.666,59.583,161.194,46.016,147.627z"
   id="path134"
   style="fill:#ffffff;fill-opacity:1" />
</g>
</svg>
