<?xml version="1.0" encoding="UTF-8" standalone="no"?>
<svg
   width="18"
   height="18"
   viewBox="0 0 18 18"
   fill="none"
   version="1.1"
   id="svg138"
   sodipodi:docname="icon.svg"
   inkscape:version="1.2.2 (b0a8486, 2022-12-01)"
   xmlns:inkscape="http://www.inkscape.org/namespaces/inkscape"
   xmlns:sodipodi="http://sodipodi.sourceforge.net/DTD/sodipodi-0.dtd"
   xmlns="http://www.w3.org/2000/svg"
   xmlns:svg="http://www.w3.org/2000/svg">
  <defs
     id="defs142" />
  <sodipodi:namedview
     id="namedview140"
     pagecolor="#b1b1b1"
     bordercolor="#000000"
     borderopacity="0.25"
     inkscape:showpageshadow="2"
     inkscape:pageopacity="0"
     inkscape:pagecheckerboard="0"
     inkscape:deskcolor="#d1d1d1"
     showgrid="false"
     inkscape:zoom="45.222222"
     inkscape:cx="7.8832924"
     inkscape:cy="9"
     inkscape:window-width="1390"
     inkscape:window-height="936"
     inkscape:window-x="0"
     inkscape:window-y="25"
     inkscape:window-maximized="0"
     inkscape:current-layer="icon" />
  <g
     id="icon">
    <path
       id="Vector"
       d="M13.5 6C14.7426 6 15.75 4.99264 15.75 3.75C15.75 2.50736 14.7426 1.5 13.5 1.5C12.2574 1.5 11.25 2.50736 11.25 3.75C11.25 4.99264 12.2574 6 13.5 6Z"
       stroke="#663399"
       stroke-width="2"
       stroke-linecap="round"
       stroke-linejoin="round"
       style="stroke:#ffffff;stroke-opacity:1" />
    <path
       id="Vector_2"
       d="M 4.5,11.25 C 5.74264,11.25 6.75,10.2426 6.75,9 6.75,7.75736 5.74264,6.75 4.5,6.75 3.25736,6.75 2.25,7.75736 2.25,9 c 0,1.2426 1.00736,2.25 2.25,2.25 z"
       stroke="#663399"
       stroke-width="2"
       stroke-linecap="round"
       stroke-linejoin="round"
       inkscape:label="Vector_2"
       style="stroke:#ffffff;stroke-opacity:1" />
    <path
       id="Vector_3"
       d="m 13.5,16.5 c 1.2426,0 2.25,-1.0074 2.25,-2.25 0,-1.2426 -1.0074,-2.25 -2.25,-2.25 -1.2426,0 -2.25,1.0074 -2.25,2.25 0,1.2426 1.0074,2.25 2.25,2.25 z"
       stroke="#663399"
       stroke-width="2"
       stroke-linecap="round"
       stroke-linejoin="round"
       inkscape:label="Vector_3"
       style="display:inline;fill:#bb6161;fill-opacity:0;fill-rule:evenodd;stroke:#ffffff;stroke-opacity:1" />
    <path
       id="Vector_4"
       d="M6.44238 10.1324L11.5649 13.1174"
       stroke="#663399"
       stroke-width="2"
       stroke-linecap="round"
       stroke-linejoin="round"
       style="stroke:#ffffff;stroke-opacity:1" />
    <path
       id="Vector_5"
       d="M11.5574 4.88245L6.44238 7.86745"
       stroke="#663399"
       stroke-width="2"
       stroke-linecap="round"
       stroke-linejoin="round"
       style="image-rendering:auto;stroke:#ffffff;stroke-opacity:1" />
    <path
       style="font-variation-settings:normal;opacity:1;vector-effect:none;fill:#666666;fill-opacity:0;stroke-width:0.999997;stroke-linecap:butt;stroke-linejoin:miter;stroke-miterlimit:4;stroke-dasharray:none;stroke-dashoffset:0;stroke-opacity:1;-inkscape-stroke:none;stop-color:#000000;stop-opacity:1"
       d="m 13.035627,17.455826 c -0.425638,-0.06136 -0.912094,-0.244961 -1.275143,-0.481285 -0.758677,-0.493853 -1.242477,-1.199739 -1.437802,-2.097817 -0.05786,-0.266015 -0.0686,-0.862922 -0.02071,-1.150916 0.01676,-0.100805 0.02671,-0.186239 0.02211,-0.189852 -0.03229,-0.02536 -3.6154961,-2.104901 -3.6357593,-2.110037 -0.014135,-0.0036 -0.1164934,0.06167 -0.2274641,0.145001 C 5.5963163,12.220144 4.5297064,12.404568 3.5159705,12.080112 3.0034992,11.91609 2.6199666,11.679095 2.220436,11.279564 1.7391615,10.79829 1.4672301,10.297933 1.3240584,9.6302211 1.2828627,9.4380966 1.2742726,9.3293564 1.2742726,9 c 0,-0.4306588 0.037423,-0.6781213 0.1555015,-1.0282555 C 1.5157164,7.7169018 1.7092263,7.3405689 1.866676,7.1220693 2.6468104,6.0394434 3.9829398,5.5450044 5.2783974,5.8595506 5.70136,5.962249 6.0857717,6.1474078 6.4609647,6.4291549 c 0.1308708,0.098276 0.2142765,0.1468397 0.2371575,0.1380867 0.05541,-0.021197 3.5697858,-2.0707175 3.6034118,-2.1014449 0.02526,-0.023083 0.02531,-0.053305 2.98e-4,-0.1901101 -0.04813,-0.2632628 -0.03691,-0.8887745 0.02066,-1.1524104 0.283713,-1.2991831 1.210323,-2.24047401 2.501087,-2.54071507 0.246148,-0.0572558 0.849568,-0.0798591 1.111088,-0.0416198 1.404204,0.20532179 2.477594,1.23570107 2.753673,2.64333387 0.05834,0.2974633 0.05251,0.8968566 -0.01166,1.1982695 -0.282786,1.3282609 -1.32677,2.3389927 -2.645963,2.5616872 -0.283876,0.047921 -0.790885,0.048 -1.061426,1.548e-4 C 12.425496,6.8482375 11.907109,6.6166956 11.488165,6.282831 l -0.152213,-0.1213023 -0.07023,0.037167 c -0.03863,0.020452 -0.863564,0.499892 -1.8331942,1.0654326 l -1.7629629,1.0282555 0.013792,0.099509 c 0.050887,0.3671538 0.060201,0.5042839 0.049564,0.7297297 -0.0066,0.1398649 -0.024218,0.3266153 -0.039153,0.4150009 -0.014935,0.088386 -0.023181,0.1644034 -0.018323,0.1689284 0.00486,0.00452 0.7899745,0.4632222 1.7447042,1.0193272 0.9547299,0.556105 1.7759409,1.034491 1.8249129,1.063079 l 0.08904,0.05198 0.150875,-0.120236 c 0.424723,-0.33847 0.94518,-0.571039 1.484311,-0.663272 0.289798,-0.04958 0.769001,-0.04984 1.061426,-5.79e-4 1.318656,0.222129 2.363178,1.233351 2.645963,2.561607 0.06417,0.301413 0.07,0.900807 0.01166,1.19827 -0.116945,0.596262 -0.366401,1.114677 -0.751964,1.562717 -0.489415,0.568718 -1.236104,0.97296 -1.991177,1.077981 -0.198868,0.02766 -0.715898,0.02732 -0.909571,-5.97e-4 z m 0.729729,-1.976665 c 0.574869,-0.120166 0.984416,-0.623968 0.986025,-1.212953 6.82e-4,-0.249265 -0.02671,-0.372597 -0.130367,-0.586961 -0.150362,-0.310955 -0.480537,-0.572707 -0.824768,-0.653849 -0.525284,-0.12382 -1.08346,0.10204 -1.351913,0.547037 -0.159208,0.263908 -0.197332,0.397903 -0.19673,0.691439 0.0016,0.798326 0.728431,1.38028 1.517753,1.215287 z M 4.8307765,10.215527 c 0.408518,-0.106406 0.7782358,-0.4755813 0.8851299,-0.8838317 0.044592,-0.1703039 0.044592,-0.4930867 0,-0.6633906 C 5.6650812,8.4741926 5.5168618,8.2300613 5.3619811,8.0853557 5.114051,7.8537136 4.8485631,7.7506143 4.5,7.7506143 c -0.3675978,0 -0.6282327,0.1072324 -0.8851931,0.3641926 C 3.358329,8.3712848 3.2493539,8.6352422 3.2493539,9 c 0,0.3647578 0.1089751,0.6287152 0.365453,0.8851931 0.1661738,0.1661739 0.3487445,0.2764819 0.5449252,0.3292419 0.1597058,0.04295 0.5081615,0.04352 0.6710444,0.0011 z M 13.796246,4.9746021 c 0.344231,-0.081142 0.674406,-0.3428943 0.824768,-0.6538496 0.103396,-0.2138256 0.131049,-0.3376999 0.130375,-0.5840306 -0.0016,-0.5824696 -0.375522,-1.0599496 -0.94393,-1.2053239 -0.216435,-0.055355 -0.398483,-0.055355 -0.614918,0 -0.565026,0.1445094 -0.943752,0.6264293 -0.944933,1.2024052 -4.62e-4,0.2260164 0.02772,0.368129 0.106852,0.5388354 0.254337,0.5486464 0.853878,0.8405453 1.441786,0.7019635 z"
       id="path1405" />
    <path
       style="font-variation-settings:normal;opacity:1;vector-effect:none;fill:#666666;fill-opacity:0;stroke-width:0.999997;stroke-linecap:butt;stroke-linejoin:miter;stroke-miterlimit:4;stroke-dasharray:none;stroke-dashoffset:0;stroke-opacity:1;-inkscape-stroke:none;stop-color:#000000;stop-opacity:1"
       d="m 13.035627,17.455826 c -0.425638,-0.06136 -0.912094,-0.244961 -1.275143,-0.481285 -0.758677,-0.493853 -1.242477,-1.199739 -1.437802,-2.097817 -0.05786,-0.266015 -0.0686,-0.862922 -0.02071,-1.150916 0.01676,-0.100805 0.02671,-0.186239 0.02211,-0.189852 -0.03229,-0.02536 -3.6154961,-2.104901 -3.6357593,-2.110037 -0.014135,-0.0036 -0.1164934,0.06167 -0.2274641,0.145001 C 5.5963163,12.220144 4.5297064,12.404568 3.5159705,12.080112 3.0034992,11.91609 2.6199666,11.679095 2.220436,11.279564 1.7391615,10.79829 1.4672301,10.297933 1.3240584,9.6302211 1.2828627,9.4380966 1.2742726,9.3293564 1.2742726,9 c 0,-0.4306588 0.037423,-0.6781213 0.1555015,-1.0282555 C 1.5157164,7.7169018 1.7092263,7.3405689 1.866676,7.1220693 2.6468104,6.0394434 3.9829398,5.5450044 5.2783974,5.8595506 5.70136,5.962249 6.0857717,6.1474078 6.4609647,6.4291549 c 0.1308708,0.098276 0.2142765,0.1468397 0.2371575,0.1380867 0.05541,-0.021197 3.5697858,-2.0707175 3.6034118,-2.1014449 0.02526,-0.023083 0.02531,-0.053305 2.98e-4,-0.1901101 -0.04813,-0.2632628 -0.03691,-0.8887745 0.02066,-1.1524104 0.283713,-1.2991831 1.210323,-2.24047401 2.501087,-2.54071507 0.246148,-0.0572558 0.849568,-0.0798591 1.111088,-0.0416198 1.404204,0.20532179 2.477594,1.23570107 2.753673,2.64333387 0.05834,0.2974633 0.05251,0.8968566 -0.01166,1.1982695 -0.282786,1.3282609 -1.32677,2.3389927 -2.645963,2.5616872 -0.283876,0.047921 -0.790885,0.048 -1.061426,1.548e-4 C 12.425496,6.8482375 11.907109,6.6166956 11.488165,6.282831 l -0.152213,-0.1213023 -0.07023,0.037167 c -0.03863,0.020452 -0.863564,0.499892 -1.8331942,1.0654326 l -1.7629629,1.0282555 0.013792,0.099509 c 0.050887,0.3671538 0.060201,0.5042839 0.049564,0.7297297 -0.0066,0.1398649 -0.024218,0.3266153 -0.039153,0.4150009 -0.014935,0.088386 -0.023181,0.1644034 -0.018323,0.1689284 0.00486,0.00452 0.7899745,0.4632222 1.7447042,1.0193272 0.9547299,0.556105 1.7759409,1.034491 1.8249129,1.063079 l 0.08904,0.05198 0.150875,-0.120236 c 0.424723,-0.33847 0.94518,-0.571039 1.484311,-0.663272 0.289798,-0.04958 0.769001,-0.04984 1.061426,-5.79e-4 1.318656,0.222129 2.363178,1.233351 2.645963,2.561607 0.06417,0.301413 0.07,0.900807 0.01166,1.19827 -0.116945,0.596262 -0.366401,1.114677 -0.751964,1.562717 -0.489415,0.568718 -1.236104,0.97296 -1.991177,1.077981 -0.198868,0.02766 -0.715898,0.02732 -0.909571,-5.97e-4 z m 0.729729,-1.976665 c 0.574869,-0.120166 0.984416,-0.623968 0.986025,-1.212953 6.82e-4,-0.249265 -0.02671,-0.372597 -0.130367,-0.586961 -0.150362,-0.310955 -0.480537,-0.572707 -0.824768,-0.653849 -0.525284,-0.12382 -1.08346,0.10204 -1.351913,0.547037 -0.159208,0.263908 -0.197332,0.397903 -0.19673,0.691439 0.0016,0.798326 0.728431,1.38028 1.517753,1.215287 z M 4.8307765,10.215527 c 0.408518,-0.106406 0.7782358,-0.4755813 0.8851299,-0.8838317 0.044592,-0.1703039 0.044592,-0.4930867 0,-0.6633906 C 5.6650812,8.4741926 5.5168618,8.2300613 5.3619811,8.0853557 5.114051,7.8537136 4.8485631,7.7506143 4.5,7.7506143 c -0.3675978,0 -0.6282327,0.1072324 -0.8851931,0.3641926 C 3.358329,8.3712848 3.2493539,8.6352422 3.2493539,9 c 0,0.3647578 0.1089751,0.6287152 0.365453,0.8851931 0.1661738,0.1661739 0.3487445,0.2764819 0.5449252,0.3292419 0.1597058,0.04295 0.5081615,0.04352 0.6710444,0.0011 z M 13.796246,4.9746021 c 0.344231,-0.081142 0.674406,-0.3428943 0.824768,-0.6538496 0.103396,-0.2138256 0.131049,-0.3376999 0.130375,-0.5840306 -0.0016,-0.5824696 -0.375522,-1.0599496 -0.94393,-1.2053239 -0.216435,-0.055355 -0.398483,-0.055355 -0.614918,0 -0.565026,0.1445094 -0.943752,0.6264293 -0.944933,1.2024052 -4.62e-4,0.2260164 0.02772,0.368129 0.106852,0.5388354 0.254337,0.5486464 0.853878,0.8405453 1.441786,0.7019635 z"
       id="path1407" />
    <path
       style="font-variation-settings:normal;opacity:1;vector-effect:none;fill:#666666;fill-opacity:0;stroke-width:0.999997;stroke-linecap:butt;stroke-linejoin:miter;stroke-miterlimit:4;stroke-dasharray:none;stroke-dashoffset:0;stroke-opacity:1;-inkscape-stroke:none;stop-color:#000000;stop-opacity:1"
       d="m 13.035627,17.455826 c -0.425638,-0.06136 -0.912094,-0.244961 -1.275143,-0.481285 -0.758677,-0.493853 -1.242477,-1.199739 -1.437802,-2.097817 -0.05786,-0.266015 -0.0686,-0.862922 -0.02071,-1.150916 0.01676,-0.100805 0.02671,-0.186239 0.02211,-0.189852 -0.03229,-0.02536 -3.6154961,-2.104901 -3.6357593,-2.110037 -0.014135,-0.0036 -0.1164934,0.06167 -0.2274641,0.145001 C 5.5963163,12.220144 4.5297064,12.404568 3.5159705,12.080112 3.0034992,11.91609 2.6199666,11.679095 2.220436,11.279564 1.7391615,10.79829 1.4672301,10.297933 1.3240584,9.6302211 1.2828627,9.4380966 1.2742726,9.3293564 1.2742726,9 c 0,-0.4306588 0.037423,-0.6781213 0.1555015,-1.0282555 C 1.5157164,7.7169018 1.7092263,7.3405689 1.866676,7.1220693 2.6468104,6.0394434 3.9829398,5.5450044 5.2783974,5.8595506 5.70136,5.962249 6.0857717,6.1474078 6.4609647,6.4291549 c 0.1308708,0.098276 0.2142765,0.1468397 0.2371575,0.1380867 0.05541,-0.021197 3.5697858,-2.0707175 3.6034118,-2.1014449 0.02526,-0.023083 0.02531,-0.053305 2.98e-4,-0.1901101 -0.04813,-0.2632628 -0.03691,-0.8887745 0.02066,-1.1524104 0.283713,-1.2991831 1.210323,-2.24047401 2.501087,-2.54071507 0.246148,-0.0572558 0.849568,-0.0798591 1.111088,-0.0416198 1.404204,0.20532179 2.477594,1.23570107 2.753673,2.64333387 0.05834,0.2974633 0.05251,0.8968566 -0.01166,1.1982695 -0.282786,1.3282609 -1.32677,2.3389927 -2.645963,2.5616872 -0.283876,0.047921 -0.790885,0.048 -1.061426,1.548e-4 C 12.425496,6.8482375 11.907109,6.6166956 11.488165,6.282831 l -0.152213,-0.1213023 -0.07023,0.037167 c -0.03863,0.020452 -0.863564,0.499892 -1.8331942,1.0654326 l -1.7629629,1.0282555 0.013792,0.099509 c 0.050887,0.3671538 0.060201,0.5042839 0.049564,0.7297297 -0.0066,0.1398649 -0.024218,0.3266153 -0.039153,0.4150009 -0.014935,0.088386 -0.023181,0.1644034 -0.018323,0.1689284 0.00486,0.00452 0.7899745,0.4632222 1.7447042,1.0193272 0.9547299,0.556105 1.7759409,1.034491 1.8249129,1.063079 l 0.08904,0.05198 0.150875,-0.120236 c 0.424723,-0.33847 0.94518,-0.571039 1.484311,-0.663272 0.289798,-0.04958 0.769001,-0.04984 1.061426,-5.79e-4 1.318656,0.222129 2.363178,1.233351 2.645963,2.561607 0.06417,0.301413 0.07,0.900807 0.01166,1.19827 -0.116945,0.596262 -0.366401,1.114677 -0.751964,1.562717 -0.489415,0.568718 -1.236104,0.97296 -1.991177,1.077981 -0.198868,0.02766 -0.715898,0.02732 -0.909571,-5.97e-4 z m 0.729729,-1.976665 c 0.574869,-0.120166 0.984416,-0.623968 0.986025,-1.212953 6.82e-4,-0.249265 -0.02671,-0.372597 -0.130367,-0.586961 -0.150362,-0.310955 -0.480537,-0.572707 -0.824768,-0.653849 -0.525284,-0.12382 -1.08346,0.10204 -1.351913,0.547037 -0.159208,0.263908 -0.197332,0.397903 -0.19673,0.691439 0.0016,0.798326 0.728431,1.38028 1.517753,1.215287 z M 4.8307765,10.215527 c 0.408518,-0.106406 0.7782358,-0.4755813 0.8851299,-0.8838317 0.044592,-0.1703039 0.044592,-0.4930867 0,-0.6633906 C 5.6650812,8.4741926 5.5168618,8.2300613 5.3619811,8.0853557 5.114051,7.8537136 4.8485631,7.7506143 4.5,7.7506143 c -0.3675978,0 -0.6282327,0.1072324 -0.8851931,0.3641926 C 3.358329,8.3712848 3.2493539,8.6352422 3.2493539,9 c 0,0.3647578 0.1089751,0.6287152 0.365453,0.8851931 0.1661738,0.1661739 0.3487445,0.2764819 0.5449252,0.3292419 0.1597058,0.04295 0.5081615,0.04352 0.6710444,0.0011 z M 13.796246,4.9746021 c 0.344231,-0.081142 0.674406,-0.3428943 0.824768,-0.6538496 0.103396,-0.2138256 0.131049,-0.3376999 0.130375,-0.5840306 -0.0016,-0.5824696 -0.375522,-1.0599496 -0.94393,-1.2053239 -0.216435,-0.055355 -0.398483,-0.055355 -0.614918,0 -0.565026,0.1445094 -0.943752,0.6264293 -0.944933,1.2024052 -4.62e-4,0.2260164 0.02772,0.368129 0.106852,0.5388354 0.254337,0.5486464 0.853878,0.8405453 1.441786,0.7019635 z"
       id="path1409" />
    <path
       style="font-variation-settings:normal;opacity:1;vector-effect:none;fill:#666666;fill-opacity:0;stroke-width:0.999997;stroke-linecap:butt;stroke-linejoin:miter;stroke-miterlimit:4;stroke-dasharray:none;stroke-dashoffset:0;stroke-opacity:1;-inkscape-stroke:none;stop-color:#000000;stop-opacity:1"
       d="m 13.035627,17.455826 c -0.425638,-0.06136 -0.912094,-0.244961 -1.275143,-0.481285 -0.758677,-0.493853 -1.242477,-1.199739 -1.437802,-2.097817 -0.05786,-0.266015 -0.0686,-0.862922 -0.02071,-1.150916 0.01676,-0.100805 0.02671,-0.186239 0.02211,-0.189852 -0.03229,-0.02536 -3.6154961,-2.104901 -3.6357593,-2.110037 -0.014135,-0.0036 -0.1164934,0.06167 -0.2274641,0.145001 C 5.5963163,12.220144 4.5297064,12.404568 3.5159705,12.080112 3.0034992,11.91609 2.6199666,11.679095 2.220436,11.279564 1.7391615,10.79829 1.4672301,10.297933 1.3240584,9.6302211 1.2828627,9.4380966 1.2742726,9.3293564 1.2742726,9 c 0,-0.4306588 0.037423,-0.6781213 0.1555015,-1.0282555 C 1.5157164,7.7169018 1.7092263,7.3405689 1.866676,7.1220693 2.6468104,6.0394434 3.9829398,5.5450044 5.2783974,5.8595506 5.70136,5.962249 6.0857717,6.1474078 6.4609647,6.4291549 c 0.1308708,0.098276 0.2142765,0.1468397 0.2371575,0.1380867 0.05541,-0.021197 3.5697858,-2.0707175 3.6034118,-2.1014449 0.02526,-0.023083 0.02531,-0.053305 2.98e-4,-0.1901101 -0.04813,-0.2632628 -0.03691,-0.8887745 0.02066,-1.1524104 0.283713,-1.2991831 1.210323,-2.24047401 2.501087,-2.54071507 0.246148,-0.0572558 0.849568,-0.0798591 1.111088,-0.0416198 1.404204,0.20532179 2.477594,1.23570107 2.753673,2.64333387 0.05834,0.2974633 0.05251,0.8968566 -0.01166,1.1982695 -0.282786,1.3282609 -1.32677,2.3389927 -2.645963,2.5616872 -0.283876,0.047921 -0.790885,0.048 -1.061426,1.548e-4 C 12.425496,6.8482375 11.907109,6.6166956 11.488165,6.282831 l -0.152213,-0.1213023 -0.07023,0.037167 c -0.03863,0.020452 -0.863564,0.499892 -1.8331942,1.0654326 l -1.7629629,1.0282555 0.013792,0.099509 c 0.050887,0.3671538 0.060201,0.5042839 0.049564,0.7297297 -0.0066,0.1398649 -0.024218,0.3266153 -0.039153,0.4150009 -0.014935,0.088386 -0.023181,0.1644034 -0.018323,0.1689284 0.00486,0.00452 0.7899745,0.4632222 1.7447042,1.0193272 0.9547299,0.556105 1.7759409,1.034491 1.8249129,1.063079 l 0.08904,0.05198 0.150875,-0.120236 c 0.424723,-0.33847 0.94518,-0.571039 1.484311,-0.663272 0.289798,-0.04958 0.769001,-0.04984 1.061426,-5.79e-4 1.318656,0.222129 2.363178,1.233351 2.645963,2.561607 0.06417,0.301413 0.07,0.900807 0.01166,1.19827 -0.116945,0.596262 -0.366401,1.114677 -0.751964,1.562717 -0.489415,0.568718 -1.236104,0.97296 -1.991177,1.077981 -0.198868,0.02766 -0.715898,0.02732 -0.909571,-5.97e-4 z m 0.729729,-1.976665 c 0.574869,-0.120166 0.984416,-0.623968 0.986025,-1.212953 6.82e-4,-0.249265 -0.02671,-0.372597 -0.130367,-0.586961 -0.150362,-0.310955 -0.480537,-0.572707 -0.824768,-0.653849 -0.525284,-0.12382 -1.08346,0.10204 -1.351913,0.547037 -0.159208,0.263908 -0.197332,0.397903 -0.19673,0.691439 0.0016,0.798326 0.728431,1.38028 1.517753,1.215287 z M 4.8307765,10.215527 c 0.408518,-0.106406 0.7782358,-0.4755813 0.8851299,-0.8838317 0.044592,-0.1703039 0.044592,-0.4930867 0,-0.6633906 C 5.6650812,8.4741926 5.5168618,8.2300613 5.3619811,8.0853557 5.114051,7.8537136 4.8485631,7.7506143 4.5,7.7506143 c -0.3675978,0 -0.6282327,0.1072324 -0.8851931,0.3641926 C 3.358329,8.3712848 3.2493539,8.6352422 3.2493539,9 c 0,0.3647578 0.1089751,0.6287152 0.365453,0.8851931 0.1661738,0.1661739 0.3487445,0.2764819 0.5449252,0.3292419 0.1597058,0.04295 0.5081615,0.04352 0.6710444,0.0011 z M 13.796246,4.9746021 c 0.344231,-0.081142 0.674406,-0.3428943 0.824768,-0.6538496 0.103396,-0.2138256 0.131049,-0.3376999 0.130375,-0.5840306 -0.0016,-0.5824696 -0.375522,-1.0599496 -0.94393,-1.2053239 -0.216435,-0.055355 -0.398483,-0.055355 -0.614918,0 -0.565026,0.1445094 -0.943752,0.6264293 -0.944933,1.2024052 -4.62e-4,0.2260164 0.02772,0.368129 0.106852,0.5388354 0.254337,0.5486464 0.853878,0.8405453 1.441786,0.7019635 z"
       id="path1411" />
    <path
       style="font-variation-settings:normal;opacity:1;vector-effect:none;fill:#a31b1b;fill-opacity:0;stroke-width:0.999997;stroke-linecap:butt;stroke-linejoin:miter;stroke-miterlimit:4;stroke-dasharray:none;stroke-dashoffset:0;stroke-opacity:1;-inkscape-stroke:none;stop-color:#000000;stop-opacity:1"
       d="m 12.980344,17.445951 c -1.023398,-0.172921 -1.910448,-0.827871 -2.375958,-1.754279 -0.121476,-0.24175 -0.25406,-0.645561 -0.297955,-0.907485 -0.04391,-0.261991 -0.0449,-0.810478 -0.0019,-1.051811 0.01731,-0.09719 0.02443,-0.183529 0.01581,-0.191858 -0.02871,-0.02775 -3.5974032,-2.103395 -3.6327314,-2.112893 -0.019114,-0.0051 -0.078819,0.02777 -0.1326782,0.07314 -0.3662252,0.308471 -0.9080131,0.566384 -1.4205398,0.676236 -0.3224995,0.06912 -0.9468113,0.06954 -1.2592685,8.33e-4 C 2.5581364,11.888259 1.6009903,10.932913 1.3227077,9.6302211 1.2654754,9.3623066 1.2655345,8.6372138 1.3228103,8.3697789 1.4176663,7.9268729 1.6132795,7.4748576 1.8612345,7.1256089 2.0371824,6.8777836 2.4128045,6.5069947 2.6535627,6.3434757 3.0282928,6.0889655 3.4178929,5.9227008 3.8751189,5.8221677 4.1875762,5.7534658 4.811888,5.7538791 5.1343874,5.8230013 5.6521367,5.933972 6.1773557,6.1839617 6.5530749,6.4982576 c 0.05284,0.044202 0.105829,0.080367 0.1177532,0.080367 0.020085,0 3.6146499,-2.0880239 3.6495089,-2.1199398 0.0086,-0.00789 0.0015,-0.093867 -0.01581,-0.1910605 -0.04299,-0.2413325 -0.042,-0.7898199 0.0019,-1.0518106 0.07071,-0.4219558 0.260125,-0.8934398 0.514592,-1.2809238 0.1638,-0.249424 0.616284,-0.7019085 0.865708,-0.8657087 0.365521,-0.24004274 0.765595,-0.40702433 1.194103,-0.49839109 0.271252,-0.0578365 0.970339,-0.0568804 1.249386,0.001709 0.650346,0.13654738 1.170747,0.41985852 1.648163,0.89727449 0.40073,0.4007298 0.621865,0.7567641 0.79552,1.2808155 0.129408,0.3905213 0.162358,0.6362102 0.148088,1.1041901 -0.01686,0.5528673 -0.100255,0.8854616 -0.340446,1.3577634 -0.351941,0.6920496 -0.914512,1.2144547 -1.643904,1.526538 -0.648304,0.2773884 -1.444338,0.3201307 -2.15559,0.1157418 -0.360052,-0.1034662 -0.820604,-0.3478211 -1.129,-0.5990128 L 11.331745,6.1570075 9.5245947,7.2105596 C 8.5306622,7.7900135 7.7060326,8.2754485 7.6920848,8.2893043 c -0.019069,0.018943 -0.017988,0.069075 0.00436,0.2020962 0.038235,0.2276164 0.038235,0.7895826 0,1.017199 -0.022341,0.132999 -0.023422,0.1830912 -0.00436,0.2018335 0.013948,0.013711 0.8393049,0.498554 1.8341266,1.077428 l 1.8087666,1.052498 0.119686,-0.09748 c 0.393836,-0.320784 0.903532,-0.564186 1.388518,-0.663078 1.06953,-0.218085 2.159157,0.109264 2.93706,0.882361 0.450761,0.447975 0.75643,1.010283 0.896071,1.648408 0.05872,0.268324 0.05855,1.012388 -2.92e-4,1.281962 -0.131814,0.603899 -0.417193,1.145323 -0.83204,1.578553 -0.512801,0.535525 -1.125875,0.859935 -1.845778,0.9767 -0.246267,0.03994 -0.776278,0.03899 -1.017859,-0.0018 z m 0.789801,-1.96591 c 0.460979,-0.09769 0.846609,-0.477619 0.956041,-0.941899 0.06679,-0.283384 0.02102,-0.638837 -0.114523,-0.889375 -0.138867,-0.256675 -0.425368,-0.497045 -0.709417,-0.595191 -0.205943,-0.07116 -0.613925,-0.07079 -0.80957,7.36e-4 -0.303867,0.111088 -0.535181,0.30925 -0.687789,0.589213 -0.277381,0.508862 -0.201015,1.077181 0.199473,1.484475 0.312301,0.317609 0.731265,0.444126 1.165785,0.352041 z M 4.8930795,10.194346 C 5.2735522,10.074154 5.5699762,9.7723539 5.7077828,9.3648649 5.765036,9.1955691 5.7651678,8.8051098 5.7080282,8.6351351 5.6100613,8.3437063 5.439001,8.1146249 5.19997,7.9547513 4.9656359,7.7980186 4.8338648,7.7616708 4.5,7.7616708 c -0.3341123,0 -0.4656147,0.036333 -0.700782,0.1936231 C 3.5964588,8.0909073 3.4811379,8.2239097 3.3727274,8.4471744 3.1995466,8.8038299 3.1950678,9.1761017 3.3596915,9.5307125 3.5053213,9.8444096 3.7800747,10.08954 4.10332,10.194165 c 0.2358151,0.07633 0.5484881,0.0764 0.7897595,1.77e-4 z M 13.924099,4.9367045 C 14.125033,4.8630317 14.27003,4.7657443 14.42227,4.6024521 14.580793,4.4324215 14.660119,4.2881318 14.716699,4.0669067 14.831483,3.6181055 14.714168,3.192539 14.384893,2.863264 13.882287,2.3606581 13.118728,2.3607799 12.615107,2.863547 c -0.328781,0.3282225 -0.446598,0.7545295 -0.332173,1.2019279 0.117507,0.4594465 0.491173,0.8171394 0.962766,0.92161 0.161604,0.0358 0.514917,0.00956 0.678399,-0.05038 z"
       id="path1413" />
    <path
       style="font-variation-settings:normal;opacity:1;vector-effect:none;fill:#666666;fill-opacity:0;stroke-width:0.999997;stroke-linecap:butt;stroke-linejoin:miter;stroke-miterlimit:4;stroke-dasharray:none;stroke-dashoffset:0;stroke-opacity:1;-inkscape-stroke:none;stop-color:#000000;stop-opacity:1"
       d="m 12.980344,17.445951 c -1.023398,-0.172921 -1.910448,-0.827871 -2.375958,-1.754279 -0.121476,-0.24175 -0.25406,-0.645561 -0.297955,-0.907485 -0.04391,-0.261991 -0.0449,-0.810478 -0.0019,-1.051811 0.01731,-0.09719 0.02443,-0.183529 0.01581,-0.191858 -0.02871,-0.02775 -3.5974032,-2.103395 -3.6327314,-2.112893 -0.019114,-0.0051 -0.078819,0.02777 -0.1326782,0.07314 -0.3662252,0.308471 -0.9080131,0.566384 -1.4205398,0.676236 -0.3224995,0.06912 -0.9468113,0.06954 -1.2592685,8.33e-4 C 2.5581364,11.888259 1.6009903,10.932913 1.3227077,9.6302211 1.2654754,9.3623066 1.2655345,8.6372138 1.3228103,8.3697789 1.4176663,7.9268729 1.6132795,7.4748576 1.8612345,7.1256089 2.0371824,6.8777836 2.4128045,6.5069947 2.6535627,6.3434757 3.0282928,6.0889655 3.4178929,5.9227008 3.8751189,5.8221677 4.1875762,5.7534658 4.811888,5.7538791 5.1343874,5.8230013 5.6521367,5.933972 6.1773557,6.1839617 6.5530749,6.4982576 c 0.05284,0.044202 0.105829,0.080367 0.1177532,0.080367 0.020085,0 3.6146499,-2.0880239 3.6495089,-2.1199398 0.0086,-0.00789 0.0015,-0.093867 -0.01581,-0.1910605 -0.04299,-0.2413325 -0.042,-0.7898199 0.0019,-1.0518106 0.07071,-0.4219558 0.260125,-0.8934398 0.514592,-1.2809238 0.1638,-0.249424 0.616284,-0.7019085 0.865708,-0.8657087 0.365521,-0.24004274 0.765595,-0.40702433 1.194103,-0.49839109 0.271252,-0.0578365 0.970339,-0.0568804 1.249386,0.001709 0.650346,0.13654738 1.170747,0.41985852 1.648163,0.89727449 0.40073,0.4007298 0.621865,0.7567641 0.79552,1.2808155 0.129408,0.3905213 0.162358,0.6362102 0.148088,1.1041901 -0.01686,0.5528673 -0.100255,0.8854616 -0.340446,1.3577634 -0.351941,0.6920496 -0.914512,1.2144547 -1.643904,1.526538 -0.648304,0.2773884 -1.444338,0.3201307 -2.15559,0.1157418 -0.360052,-0.1034662 -0.820604,-0.3478211 -1.129,-0.5990128 L 11.331745,6.1570075 9.5245947,7.2105596 C 8.5306622,7.7900135 7.7060326,8.2754485 7.6920848,8.2893043 c -0.019069,0.018943 -0.017988,0.069075 0.00436,0.2020962 0.038235,0.2276164 0.038235,0.7895826 0,1.017199 -0.022341,0.132999 -0.023422,0.1830912 -0.00436,0.2018335 0.013948,0.013711 0.8393049,0.498554 1.8341266,1.077428 l 1.8087666,1.052498 0.119686,-0.09748 c 0.393836,-0.320784 0.903532,-0.564186 1.388518,-0.663078 1.06953,-0.218085 2.159157,0.109264 2.93706,0.882361 0.450761,0.447975 0.75643,1.010283 0.896071,1.648408 0.05872,0.268324 0.05855,1.012388 -2.92e-4,1.281962 -0.131814,0.603899 -0.417193,1.145323 -0.83204,1.578553 -0.512801,0.535525 -1.125875,0.859935 -1.845778,0.9767 -0.246267,0.03994 -0.776278,0.03899 -1.017859,-0.0018 z m 0.789801,-1.96591 c 0.460979,-0.09769 0.846609,-0.477619 0.956041,-0.941899 0.06679,-0.283384 0.02102,-0.638837 -0.114523,-0.889375 -0.138867,-0.256675 -0.425368,-0.497045 -0.709417,-0.595191 -0.205943,-0.07116 -0.613925,-0.07079 -0.80957,7.36e-4 -0.303867,0.111088 -0.535181,0.30925 -0.687789,0.589213 -0.277381,0.508862 -0.201015,1.077181 0.199473,1.484475 0.312301,0.317609 0.731265,0.444126 1.165785,0.352041 z M 4.8930795,10.194346 C 5.2735522,10.074154 5.5699762,9.7723539 5.7077828,9.3648649 5.765036,9.1955691 5.7651678,8.8051098 5.7080282,8.6351351 5.6100613,8.3437063 5.439001,8.1146249 5.19997,7.9547513 4.9656359,7.7980186 4.8338648,7.7616708 4.5,7.7616708 c -0.3341123,0 -0.4656147,0.036333 -0.700782,0.1936231 C 3.5964588,8.0909073 3.4811379,8.2239097 3.3727274,8.4471744 3.1995466,8.8038299 3.1950678,9.1761017 3.3596915,9.5307125 3.5053213,9.8444096 3.7800747,10.08954 4.10332,10.194165 c 0.2358151,0.07633 0.5484881,0.0764 0.7897595,1.77e-4 z M 13.924099,4.9367045 C 14.125033,4.8630317 14.27003,4.7657443 14.42227,4.6024521 14.580793,4.4324215 14.660119,4.2881318 14.716699,4.0669067 14.831483,3.6181055 14.714168,3.192539 14.384893,2.863264 13.882287,2.3606581 13.118728,2.3607799 12.615107,2.863547 c -0.328781,0.3282225 -0.446598,0.7545295 -0.332173,1.2019279 0.117507,0.4594465 0.491173,0.8171394 0.962766,0.92161 0.161604,0.0358 0.514917,0.00956 0.678399,-0.05038 z"
       id="path1415" />
    <path
       style="font-variation-settings:normal;opacity:1;vector-effect:none;fill:#666666;fill-opacity:0;stroke-width:0.999997;stroke-linecap:butt;stroke-linejoin:miter;stroke-miterlimit:4;stroke-dasharray:none;stroke-dashoffset:0;stroke-opacity:1;-inkscape-stroke:none;stop-color:#000000;stop-opacity:1"
       d="m 12.980344,17.445951 c -1.023398,-0.172921 -1.910448,-0.827871 -2.375958,-1.754279 -0.121476,-0.24175 -0.25406,-0.645561 -0.297955,-0.907485 -0.04391,-0.261991 -0.0449,-0.810478 -0.0019,-1.051811 0.01731,-0.09719 0.02443,-0.183529 0.01581,-0.191858 -0.02871,-0.02775 -3.5974032,-2.103395 -3.6327314,-2.112893 -0.019114,-0.0051 -0.078819,0.02777 -0.1326782,0.07314 -0.3662252,0.308471 -0.9080131,0.566384 -1.4205398,0.676236 -0.3224995,0.06912 -0.9468113,0.06954 -1.2592685,8.33e-4 C 2.5581364,11.888259 1.6009903,10.932913 1.3227077,9.6302211 1.2654754,9.3623066 1.2655345,8.6372138 1.3228103,8.3697789 1.4176663,7.9268729 1.6132795,7.4748576 1.8612345,7.1256089 2.0371824,6.8777836 2.4128045,6.5069947 2.6535627,6.3434757 3.0282928,6.0889655 3.4178929,5.9227008 3.8751189,5.8221677 4.1875762,5.7534658 4.811888,5.7538791 5.1343874,5.8230013 5.6521367,5.933972 6.1773557,6.1839617 6.5530749,6.4982576 c 0.05284,0.044202 0.105829,0.080367 0.1177532,0.080367 0.020085,0 3.6146499,-2.0880239 3.6495089,-2.1199398 0.0086,-0.00789 0.0015,-0.093867 -0.01581,-0.1910605 -0.04299,-0.2413325 -0.042,-0.7898199 0.0019,-1.0518106 0.07071,-0.4219558 0.260125,-0.8934398 0.514592,-1.2809238 0.1638,-0.249424 0.616284,-0.7019085 0.865708,-0.8657087 0.365521,-0.24004274 0.765595,-0.40702433 1.194103,-0.49839109 0.271252,-0.0578365 0.970339,-0.0568804 1.249386,0.001709 0.650346,0.13654738 1.170747,0.41985852 1.648163,0.89727449 0.40073,0.4007298 0.621865,0.7567641 0.79552,1.2808155 0.129408,0.3905213 0.162358,0.6362102 0.148088,1.1041901 -0.01686,0.5528673 -0.100255,0.8854616 -0.340446,1.3577634 -0.351941,0.6920496 -0.914512,1.2144547 -1.643904,1.526538 -0.648304,0.2773884 -1.444338,0.3201307 -2.15559,0.1157418 -0.360052,-0.1034662 -0.820604,-0.3478211 -1.129,-0.5990128 L 11.331745,6.1570075 9.5245947,7.2105596 C 8.5306622,7.7900135 7.7060326,8.2754485 7.6920848,8.2893043 c -0.019069,0.018943 -0.017988,0.069075 0.00436,0.2020962 0.038235,0.2276164 0.038235,0.7895826 0,1.017199 -0.022341,0.132999 -0.023422,0.1830912 -0.00436,0.2018335 0.013948,0.013711 0.8393049,0.498554 1.8341266,1.077428 l 1.8087666,1.052498 0.119686,-0.09748 c 0.393836,-0.320784 0.903532,-0.564186 1.388518,-0.663078 1.06953,-0.218085 2.159157,0.109264 2.93706,0.882361 0.450761,0.447975 0.75643,1.010283 0.896071,1.648408 0.05872,0.268324 0.05855,1.012388 -2.92e-4,1.281962 -0.131814,0.603899 -0.417193,1.145323 -0.83204,1.578553 -0.512801,0.535525 -1.125875,0.859935 -1.845778,0.9767 -0.246267,0.03994 -0.776278,0.03899 -1.017859,-0.0018 z m 0.789801,-1.96591 c 0.460979,-0.09769 0.846609,-0.477619 0.956041,-0.941899 0.06679,-0.283384 0.02102,-0.638837 -0.114523,-0.889375 -0.138867,-0.256675 -0.425368,-0.497045 -0.709417,-0.595191 -0.205943,-0.07116 -0.613925,-0.07079 -0.80957,7.36e-4 -0.303867,0.111088 -0.535181,0.30925 -0.687789,0.589213 -0.277381,0.508862 -0.201015,1.077181 0.199473,1.484475 0.312301,0.317609 0.731265,0.444126 1.165785,0.352041 z M 4.8930795,10.194346 C 5.2735522,10.074154 5.5699762,9.7723539 5.7077828,9.3648649 5.765036,9.1955691 5.7651678,8.8051098 5.7080282,8.6351351 5.6100613,8.3437063 5.439001,8.1146249 5.19997,7.9547513 4.9656359,7.7980186 4.8338648,7.7616708 4.5,7.7616708 c -0.3341123,0 -0.4656147,0.036333 -0.700782,0.1936231 C 3.5964588,8.0909073 3.4811379,8.2239097 3.3727274,8.4471744 3.1995466,8.8038299 3.1950678,9.1761017 3.3596915,9.5307125 3.5053213,9.8444096 3.7800747,10.08954 4.10332,10.194165 c 0.2358151,0.07633 0.5484881,0.0764 0.7897595,1.77e-4 z M 13.924099,4.9367045 C 14.125033,4.8630317 14.27003,4.7657443 14.42227,4.6024521 14.580793,4.4324215 14.660119,4.2881318 14.716699,4.0669067 14.831483,3.6181055 14.714168,3.192539 14.384893,2.863264 13.882287,2.3606581 13.118728,2.3607799 12.615107,2.863547 c -0.328781,0.3282225 -0.446598,0.7545295 -0.332173,1.2019279 0.117507,0.4594465 0.491173,0.8171394 0.962766,0.92161 0.161604,0.0358 0.514917,0.00956 0.678399,-0.05038 z"
       id="path3410" />
  </g>
</svg>
