<?xml version="1.0" encoding="UTF-8"?>
<!-- Generator: Adobe Illustrator 19.0.0, SVG Export Plug-In . SVG Version: 6.00 Build 0)  -->
<svg enable-background="new 0 0 480 480" version="1.1" viewBox="0 0 480 480" xml:space="preserve" xmlns="http://www.w3.org/2000/svg">

	<g fill="#e6e6e6">
		<path d="m240 0c-132.34 0-240 107.66-240 240 0 57.96 20.656 111.18 54.992 152.7 0.088 0.12 0.096 0.272 0.192 0.384 24.792 29.896 55.928 52.816 90.624 67.624 0.4 0.168 0.792 0.352 1.192 0.52 2.808 1.184 5.648 2.28 8.496 3.352 1.12 0.424 2.24 0.856 3.376 1.264 2.456 0.88 4.928 1.712 7.416 2.512 1.592 0.512 3.184 1.016 4.792 1.496 2.2 0.656 4.408 1.288 6.632 1.888 1.952 0.528 3.92 1.016 5.888 1.488 1.992 0.48 3.992 0.96 6 1.384 2.24 0.48 4.504 0.904 6.776 1.32 1.824 0.336 3.64 0.688 5.48 0.984 2.52 0.408 5.056 0.728 7.6 1.056 1.64 0.208 3.272 0.448 4.92 0.624 2.88 0.304 5.784 0.52 8.696 0.72 1.352 0.096 2.696 0.24 4.056 0.312 4.248 0.24 8.544 0.368 12.872 0.368s8.624-0.128 12.888-0.352c1.36-0.072 2.704-0.216 4.056-0.312 2.912-0.208 5.816-0.416 8.696-0.72 1.648-0.176 3.28-0.416 4.92-0.624 2.544-0.328 5.08-0.648 7.6-1.056 1.832-0.296 3.656-0.648 5.48-0.984 2.264-0.416 4.528-0.84 6.776-1.32 2.008-0.432 4-0.904 6-1.384 1.968-0.48 3.936-0.968 5.888-1.488 2.224-0.592 4.432-1.232 6.632-1.888 1.608-0.48 3.2-0.984 4.792-1.496 2.488-0.8 4.96-1.632 7.416-2.512 1.128-0.408 2.248-0.84 3.376-1.264 2.856-1.072 5.688-2.176 8.496-3.352 0.4-0.168 0.792-0.352 1.192-0.52 34.688-14.808 65.832-37.728 90.624-67.624 0.096-0.112 0.104-0.272 0.192-0.384 34.32-41.536 54.976-94.76 54.976-152.72 0-132.34-107.66-240-240-240zm97.256 441.76c-0.12 0.056-0.232 0.12-0.352 0.176-2.856 1.376-5.76 2.672-8.688 3.936-0.664 0.28-1.32 0.568-1.984 0.848-2.56 1.072-5.152 2.088-7.76 3.064-1.088 0.408-2.176 0.808-3.272 1.192-2.312 0.824-4.632 1.616-6.976 2.368-1.456 0.464-2.92 0.904-4.384 1.336-2.08 0.624-4.168 1.224-6.28 1.784-1.776 0.472-3.568 0.904-5.36 1.328-1.88 0.448-3.752 0.904-5.648 1.304-2.072 0.44-4.16 0.816-6.24 1.192-1.688 0.312-3.368 0.64-5.072 0.912-2.344 0.368-4.712 0.664-7.072 0.96-1.496 0.192-2.984 0.416-4.496 0.576-2.696 0.288-5.416 0.472-8.128 0.664-1.208 0.08-2.408 0.216-3.632 0.28-3.96 0.208-7.928 0.32-11.912 0.32s-7.952-0.112-11.904-0.32c-1.216-0.064-2.416-0.192-3.632-0.28-2.72-0.184-5.432-0.376-8.128-0.664-1.512-0.16-3-0.384-4.496-0.576-2.36-0.296-4.728-0.592-7.072-0.96-1.704-0.272-3.384-0.6-5.072-0.912-2.088-0.376-4.176-0.76-6.24-1.192-1.896-0.4-3.776-0.856-5.648-1.304-1.792-0.432-3.584-0.856-5.36-1.328-2.104-0.56-4.2-1.168-6.28-1.784-1.464-0.432-2.928-0.872-4.384-1.336-2.344-0.752-4.672-1.544-6.976-2.368-1.096-0.392-2.184-0.792-3.272-1.192-2.608-0.976-5.2-1.992-7.76-3.064-0.664-0.272-1.312-0.56-1.976-0.84-2.928-1.256-5.832-2.56-8.696-3.936-0.12-0.056-0.232-0.112-0.352-0.176-27.912-13.504-52.568-32.672-72.576-55.952 15.464-56.944 59.24-102.85 115.56-121.11 1.112 0.68 2.272 1.288 3.416 1.928 0.672 0.376 1.336 0.776 2.016 1.136 2.384 1.264 4.8 2.448 7.272 3.512 1.896 0.832 3.856 1.536 5.808 2.256 0.384 0.136 0.768 0.288 1.152 0.424 10.848 3.84 22.456 6.04 34.6 6.04s23.752-2.2 34.592-6.04c0.384-0.136 0.768-0.288 1.152-0.424 1.952-0.72 3.912-1.424 5.808-2.256 2.472-1.064 4.888-2.248 7.272-3.512 0.68-0.368 1.344-0.76 2.016-1.136 1.144-0.64 2.312-1.248 3.432-1.936 56.32 18.272 100.09 64.176 115.56 121.11-20.008 23.272-44.664 42.44-72.576 55.952zm-185.26-265.76c0-48.52 39.48-88 88-88s88 39.48 88 88c0 30.864-16.008 58.024-40.128 73.736-3.152 2.048-6.432 3.88-9.8 5.48-0.4 0.192-0.792 0.392-1.192 0.576-23.168 10.536-50.592 10.536-73.76 0-0.4-0.184-0.8-0.384-1.192-0.576-3.376-1.6-6.648-3.432-9.8-5.48-24.12-15.712-40.128-42.872-40.128-73.736zm269.83 194.58c-18.136-53.552-59.512-96.832-112.38-117.39 21.144-19.048 34.544-46.552 34.544-77.192 0-57.344-46.656-104-104-104s-104 46.656-104 104c0 30.64 13.4 58.144 34.552 77.192-52.864 20.568-94.24 63.84-112.38 117.39-26.504-36.792-42.176-81.88-42.176-130.58 0-123.51 100.49-224 224-224s224 100.49 224 224c0 48.704-15.672 93.792-42.168 130.58z" fill="#e6e6e6"/>
	</g>
<g fill-opacity="0">















<path d="m222.6 479.05c-90.512-7.1833-167.69-62.593-203.37-146.01-8.9867-21.01-15.285-45.579-17.879-69.747-1.1232-10.465-0.93773-38.533 0.32541-49.238 6.1594-52.2 27.061-97.865 62.584-136.73 30.406-33.269 72.785-58.507 116.89-69.611 21.02-5.2922 35.836-7.0731 58.845-7.0731 23.038 0 37.751 1.7712 58.968 7.0984 50.598 12.705 97.288 43.238 129.74 84.845 27.685 35.496 44.235 76.018 49.614 121.47 1.4527 12.277 1.448 39.47-9e-3 51.892-6.4928 55.352-30.14 104.44-69.041 143.32-19.48 19.469-38.705 33.327-62.96 45.383-38.107 18.942-82.406 27.68-123.71 24.402zm31.843-15.286c47.791-3.345 90.754-20.275 127.48-50.235 7.2446-5.9104 19.16-17.254 24.789-23.601l3.5292-3.9786-1.7683-5.7904c-5.894-19.301-17.559-41.584-29.844-57.014-7.9015-9.9236-21.302-23.197-30.717-30.427-14.062-10.798-31.01-20.181-47.314-26.195l-6.0367-2.2266-6.9363 3.5734c-12.276 6.3241-25.329 10.072-39.863 11.445-17.613 1.6645-38.181-2.5823-55.356-11.43l-6.9066-3.558-6.9509 2.5432c-14.962 5.4742-34.212 16.281-47.476 26.652-27.394 21.419-48.323 51.666-59.143 85.474l-2.2107 6.9075 3.5496 4.0016c9.3555 10.547 24.724 24.243 37.193 33.145 41.135 29.368 93.703 44.232 143.99 40.713zm-194.61-96.835c14.199-39.453 42.699-74.7 78.536-97.131 7.1121-4.4516 20.574-11.46 27.322-14.225 2.5946-1.0629 4.8153-2.0036 4.9348-2.0904 0.11957-0.0868-2.3444-2.8905-5.4756-6.2304-14.507-15.474-23.153-32.342-27.293-53.247-1.6639-8.4014-1.506-28.46 0.29401-37.347 2.8779-14.208 9.1782-29.038 17.076-40.196 4.7292-6.6811 16.965-19.208 23.142-23.693 15.596-11.324 32.413-17.834 51.426-19.908 23.594-2.5738 48.033 3.7635 68.868 17.858 7.7905 5.2702 20.506 17.81 26.103 25.743 7.9044 11.203 14.19 26.01 17.064 40.196 1.8 8.8862 1.9579 28.945 0.29401 37.347-4.1622 21.016-13.465 38.983-27.98 54.041-2.7765 2.8802-4.9409 5.3173-4.8098 5.4157 0.13116 0.0984 2.3613 1.0486 4.9559 2.1115 6.7468 2.7639 20.209 9.7723 27.323 14.225 35.471 22.199 64.089 57.42 78.201 96.247 0.91357 2.5135 1.8556 4.57 2.0934 4.57 0.77549 0 9.5016-13.584 14.495-22.564 14.041-25.252 22.847-52.953 26.568-83.578 1.4338-11.8 1.4295-37.013-8e-3 -48.943-5.5551-46.085-22.965-86.382-52.222-120.87-6.7241-7.9265-21.341-22.273-28.944-28.408-34.165-27.568-73.394-44.063-117.04-49.21-12.225-1.4417-37.354-1.4489-49.238-0.014196-44.297 5.3477-81.842 20.995-116.53 48.563-8.2626 6.5671-26.844 25.149-33.411 33.411-27.567 34.684-43.185 72.155-48.568 116.53-1.4403 11.871-1.4403 37.072 0 48.943 3.7192 30.655 12.501 58.282 26.567 83.578 4.9934 8.9802 13.72 22.564 14.495 22.564 0.23781 0 1.0293-1.6585 1.7588-3.6855zm198.21-104.78c23.239-4.9485 42.298-17.814 55.454-37.432 5.713-8.5194 9.2016-16.328 11.878-26.585 4.1959-16.084 3.5929-34.428-1.6514-50.237-8.5036-25.635-29.888-47.037-55.512-55.558-22.498-7.4815-46.994-5.7314-67.869 4.8489-26.161 13.26-43.923 38.2-47.88 67.23-0.8067 5.9183-0.80637 17.293 5.9e-4 23.207 5.3119 38.927 34.82 68.971 74.024 75.369 7.4582 1.2172 23.952 0.77647 31.557-0.84316z" stop-color="#000000" style="-inkscape-stroke:none;font-variation-settings:normal"/><path d="m53.529 363.1c-30.35-45.922-42.716-100.8-34.913-154.94 6.4447-44.713 26.753-87.041 57.69-120.24 19.615-21.049 40.976-36.754 67.44-49.583 60.562-29.358 131.95-29.358 192.51 0 11.888 5.7628 18.804 9.7336 29.348 16.85 51.566 34.801 87.008 91.416 95.766 152.97 2.3211 16.315 2.9099 31.458 1.8113 46.585-2.8447 39.172-14.861 74.886-36.162 107.48-2.6001 3.9784-4.9031 7.03-5.1179 6.7813-0.21477-0.24865-1.6704-3.769-3.2347-7.8231-12.713-32.946-37.061-64.05-66.792-85.325-12.388-8.8643-28.024-17.464-40.135-22.073-1.3323-0.50707-1.2189-0.69936 3.1522-5.3458 16.249-17.273 25.873-37.511 28.639-60.223 1.0154-8.3377 0.39633-24.984-1.21-32.536-5.6613-26.616-20.395-49.283-42.172-64.88-6.0633-4.3424-19.587-11.268-26.507-13.575-13.229-4.4094-28.232-6.243-41.765-5.1042-14.663 1.2339-25.232 4.194-38.46 10.773-28.899 14.371-48.853 40.43-55.735 72.786-1.6063 7.5521-2.2254 24.199-1.21 32.536 2.766 22.712 12.39 42.951 28.639 60.223 4.3711 4.6465 4.4844 4.8388 3.1522 5.3458-12.071 4.5942-27.747 13.209-40.031 21.999-30.029 21.489-54.154 52.442-67.247 86.284-1.3802 3.5676-2.679 6.6874-2.886 6.9329-0.20705 0.24552-2.263-2.408-4.5687-5.8968z" stop-color="#000000" style="-inkscape-stroke:none;font-variation-settings:normal"/><path d="m53.529 363.1c-30.35-45.922-42.716-100.8-34.913-154.94 6.4447-44.713 26.753-87.041 57.69-120.24 19.615-21.049 40.976-36.754 67.44-49.583 60.562-29.358 131.95-29.358 192.51 0 11.888 5.7628 18.804 9.7336 29.348 16.85 51.566 34.801 87.008 91.416 95.766 152.97 2.3211 16.315 2.9099 31.458 1.8113 46.585-2.8447 39.172-14.861 74.886-36.162 107.48-2.6001 3.9784-4.9031 7.03-5.1179 6.7813-0.21477-0.24865-1.6704-3.769-3.2347-7.8231-12.713-32.946-37.061-64.05-66.792-85.325-12.388-8.8643-28.024-17.464-40.135-22.073-1.3323-0.50707-1.2189-0.69936 3.1522-5.3458 16.249-17.273 25.873-37.511 28.639-60.223 1.0154-8.3377 0.39633-24.984-1.21-32.536-5.6613-26.616-20.395-49.283-42.172-64.88-6.0633-4.3424-19.587-11.268-26.507-13.575-13.229-4.4094-28.232-6.243-41.765-5.1042-14.663 1.2339-25.232 4.194-38.46 10.773-28.899 14.371-48.853 40.43-55.735 72.786-1.6063 7.5521-2.2254 24.199-1.21 32.536 2.766 22.712 12.39 42.951 28.639 60.223 4.3711 4.6465 4.4844 4.8388 3.1522 5.3458-12.071 4.5942-27.747 13.209-40.031 21.999-30.029 21.489-54.154 52.442-67.247 86.284-1.3802 3.5676-2.679 6.6874-2.886 6.9329-0.20705 0.24552-2.263-2.408-4.5687-5.8968z" stop-color="#000000" style="-inkscape-stroke:none;font-variation-settings:normal"/><path d="m53.529 363.1c-30.35-45.922-42.716-100.8-34.913-154.94 6.4447-44.713 26.753-87.041 57.69-120.24 19.615-21.049 40.976-36.754 67.44-49.583 60.562-29.358 131.95-29.358 192.51 0 11.888 5.7628 18.804 9.7336 29.348 16.85 51.566 34.801 87.008 91.416 95.766 152.97 2.3211 16.315 2.9099 31.458 1.8113 46.585-2.8447 39.172-14.861 74.886-36.162 107.48-2.6001 3.9784-4.9031 7.03-5.1179 6.7813-0.21477-0.24865-1.6704-3.769-3.2347-7.8231-12.713-32.946-37.061-64.05-66.792-85.325-12.388-8.8643-28.024-17.464-40.135-22.073-1.3323-0.50707-1.2189-0.69936 3.1522-5.3458 16.249-17.273 25.873-37.511 28.639-60.223 1.0154-8.3377 0.39633-24.984-1.21-32.536-5.6613-26.616-20.395-49.283-42.172-64.88-6.0633-4.3424-19.587-11.268-26.507-13.575-13.229-4.4094-28.232-6.243-41.765-5.1042-14.663 1.2339-25.232 4.194-38.46 10.773-28.899 14.371-48.853 40.43-55.735 72.786-1.6063 7.5521-2.2254 24.199-1.21 32.536 2.766 22.712 12.39 42.951 28.639 60.223 4.3711 4.6465 4.4844 4.8388 3.1522 5.3458-12.071 4.5942-27.747 13.209-40.031 21.999-30.029 21.489-54.154 52.442-67.247 86.284-1.3802 3.5676-2.679 6.6874-2.886 6.9329-0.20705 0.24552-2.263-2.408-4.5687-5.8968z" stop-color="#000000" style="-inkscape-stroke:none;font-variation-settings:normal"/><path d="m222.6 479.05c-90.512-7.1833-167.69-62.593-203.37-146.01-8.9867-21.01-15.285-45.579-17.879-69.747-1.1232-10.465-0.93773-38.533 0.32541-49.238 6.1594-52.2 27.061-97.865 62.584-136.73 30.406-33.269 72.785-58.507 116.89-69.611 21.02-5.2922 35.836-7.0731 58.845-7.0731 23.038 0 37.751 1.7712 58.968 7.0984 50.598 12.705 97.288 43.238 129.74 84.845 27.685 35.496 44.235 76.018 49.614 121.47 1.4527 12.277 1.448 39.47-9e-3 51.892-6.4928 55.352-30.14 104.44-69.041 143.32-19.48 19.469-38.705 33.327-62.96 45.383-38.107 18.942-82.406 27.68-123.71 24.402zm22.288-15.114c-2.4981-0.11026-6.7438-0.11088-9.4349-1e-3 -2.6911 0.10951-0.64716 0.19972 4.542 0.20046 5.1892 5.9e-4 7.391-0.0888 4.8929-0.19911zm-20.814-0.81357c-45.491-3.4749-88.214-20.309-123.83-48.795-7.173-5.7365-21.64-19.458-26.875-25.49l-2.8641-3.3002 1.5215-4.9553c11.179-36.407 35.399-69.787 66.546-91.714 3.0847-2.1715 5.4857-4.071 5.3357-4.221-0.39955-0.39956-11.468 7.6176-17.355 12.57-5.8284 4.9037-17.344 16.463-22.01 22.095-14.759 17.812-25.513 37.49-32.616 59.684l-2.2107 6.9075 3.5496 4.0016c1.9523 2.2009 6.8308 7.1909 10.841 11.089 34.662 33.692 78.33 54.851 126.41 61.25 9.4606 1.2594 10.487 1.3488 15.627 1.3619 3.8054 0.01 3.5174-0.0579-2.0639-0.48421zm45.411-0.81964c42.464-5.9144 79.697-22.066 112.43-48.774 7.2446-5.9104 19.16-17.254 24.789-23.601l3.5292-3.9786-1.7683-5.7904c-5.894-19.301-17.559-41.584-29.844-57.014-7.9015-9.9236-21.302-23.197-30.717-30.427-14.062-10.798-31.01-20.181-47.314-26.195l-6.0367-2.2266-6.9363 3.5734c-17.205 8.8636-37.76 13.111-55.385 11.445-14.523-1.3725-27.588-5.1215-39.835-11.431l-6.908-3.5587-6.065 2.2016c-11.135 4.042-35.083 16.25-34.315 17.493 0.17019 0.27538 43.051 0.50068 95.291 0.50068h94.982l5.8294 4.162c11.412 8.148 21.094 16.818 29.793 26.679 16.729 18.965 28.005 38.466 35.895 62.082l2.6713 7.9956-2.9064 3.349c-5.3608 6.1772-19.771 19.827-27.212 25.775-13.804 11.035-26.745 19.148-43.258 27.118-24.769 11.955-51.301 19.057-80.28 21.49l-6.4865 0.5445 6.7869-0.25526c3.7328-0.14039 9.7033-0.66145 13.268-1.1579zm-209.65-95.374c13.855-38.496 42.247-74.115 76.247-95.653 2.4995-1.5834 4.4232-3.0001 4.2749-3.1484-0.34381-0.34382-4.9453 2.5717-12.223 7.7441-29.718 21.122-54.079 52.389-67.157 86.192-1.3802 3.5676-2.6789 6.6874-2.886 6.9329-0.20705 0.24552-2.263-2.408-4.5687-5.8968-30.35-45.922-42.716-100.8-34.913-154.94 6.4447-44.713 26.753-87.041 57.69-120.24 31.165-33.445 71.404-56.532 115.63-66.347 9.5634-2.1222 22.584-4.0453 31.843-4.7031 5.1597-0.36659 5.8648-0.50177 2.9484-0.5653-2.1081-0.04592-7.4152 0.33154-11.794 0.83881-43.072 4.9902-81.423 21.017-115.94 48.449-8.2626 6.5671-26.844 25.149-33.411 33.411-27.567 34.684-43.185 72.155-48.568 116.53-1.4403 11.871-1.4403 37.072 0 48.943 3.7192 30.655 12.501 58.282 26.567 83.578 4.9934 8.9802 13.72 22.564 14.495 22.564 0.23781 0 1.0293-1.6585 1.7588-3.6855zm367.1-3.21c16.404-24.632 28.194-53.765 33.569-82.949 2.3091-12.538 3.2926-22.831 3.5009-36.642 0.10762-7.1351 0.10827-10.054 1e-3 -6.4865-0.5177 17.289-2.2174 34.015-4.6897 46.149-5.7172 28.059-16.51 54.261-32.306 78.431-2.6001 3.9784-4.9031 7.03-5.1179 6.7813-0.21451-0.24865-1.6701-3.769-3.2345-7.8231-12.713-32.946-37.061-64.05-66.792-85.325-12.388-8.8643-28.024-17.464-40.135-22.073-1.3323-0.50707-1.2189-0.69936 3.1522-5.3458 16.249-17.273 25.873-37.511 28.639-60.223 1.0154-8.3377 0.39633-24.984-1.21-32.536-5.6613-26.616-20.395-49.283-42.172-64.88-6.0633-4.3424-19.587-11.268-26.507-13.575-13.229-4.4094-28.232-6.2429-41.765-5.1042-14.663 1.2339-25.232 4.194-38.46 10.773-28.899 14.371-48.853 40.43-55.735 72.786-1.6063 7.5521-2.2254 24.199-1.21 32.536 2.766 22.712 12.39 42.951 28.639 60.223 4.3711 4.6465 4.4844 4.8388 3.1522 5.3458-9.1399 3.4786-28.873 13.597-26.579 13.629 0.41185 6e-3 1.7648-0.63094 3.0066-1.4148 3.1195-1.9692 16.596-8.6299 21.601-10.676 2.2703-0.92821 4.2256-1.7566 4.3452-1.8409s-2.3444-2.8859-5.4756-6.2258c-14.507-15.474-23.153-32.342-27.293-53.247-1.6639-8.4014-1.506-28.46 0.29401-37.347 2.8779-14.208 9.1782-29.038 17.076-40.196 4.7292-6.6811 16.965-19.208 23.142-23.693 15.596-11.324 32.413-17.834 51.426-19.908 23.594-2.5738 48.033 3.7635 68.868 17.858 7.7905 5.2702 20.506 17.81 26.103 25.743 7.9044 11.203 14.19 26.01 17.064 40.196 1.8 8.8862 1.9579 28.945 0.29401 37.347-4.1622 21.016-13.465 38.983-27.98 54.041-2.7765 2.8802-4.9409 5.3173-4.8098 5.4157 0.13116 0.0984 2.3613 1.0486 4.9559 2.1115 6.7468 2.7639 20.209 9.7723 27.323 14.225 35.471 22.199 64.089 57.42 78.201 96.247 0.91357 2.5135 1.8556 4.57 2.0934 4.57 0.23783 0 2.4989-3.103 5.0247-6.8955zm-168.89-101.57c23.239-4.9485 42.298-17.814 55.454-37.432 5.713-8.5194 9.2016-16.328 11.878-26.585 4.1959-16.084 3.5929-34.428-1.6514-50.237-8.5036-25.635-29.888-47.037-55.512-55.558-22.498-7.4815-46.994-5.7314-67.869 4.8489-26.161 13.26-43.923 38.2-47.88 67.23-0.8067 5.9183-0.80637 17.293 5.9e-4 23.207 5.3119 38.927 34.82 68.971 74.024 75.369 7.4582 1.2172 23.952 0.77647 31.557-0.84316zm204.84-46.856c-5.169-45.097-22.939-86.208-52.144-120.64-6.7241-7.9265-21.341-22.273-28.944-28.408-29.273-23.621-62.146-39.087-98.171-46.188-11.263-2.22-24.755-3.888-30.426-3.7615-2.8166 0.06282-2.053 0.20662 3.0055 0.56602 55.561 3.9475 109.46 29.905 147.49 71.029 31.16 33.695 51.193 75.463 57.683 120.26 0.65768 4.5405 1.3991 11.44 1.6476 15.332 0.33814 5.295 0.49705 6.2006 0.63134 3.5977 0.0987-1.9131-0.24942-7.2203-0.77362-11.794zm-218-199.51c-2.4981-0.11026-6.7438-0.11087-9.4349-0.0014-2.6911 0.10951-0.64716 0.19972 4.542 0.20047 5.1892 7.67e-4 7.391-0.08886 4.8929-0.19911z" stop-color="#000000" style="-inkscape-stroke:none;font-variation-settings:normal"/><path d="m222.6 479.05c-90.512-7.1833-167.69-62.593-203.37-146.01-8.9867-21.01-15.285-45.579-17.879-69.747-1.1232-10.465-0.93773-38.533 0.32541-49.238 6.1594-52.2 27.061-97.865 62.584-136.73 30.406-33.269 72.785-58.507 116.89-69.611 21.02-5.2922 35.836-7.0731 58.845-7.0731 23.038 0 37.751 1.7712 58.968 7.0984 50.598 12.705 97.288 43.238 129.74 84.845 27.685 35.496 44.235 76.018 49.614 121.47 1.4527 12.277 1.448 39.47-9e-3 51.892-6.4928 55.352-30.14 104.44-69.041 143.32-19.48 19.469-38.705 33.327-62.96 45.383-38.107 18.942-82.406 27.68-123.71 24.402zm31.843-15.286c47.791-3.345 90.754-20.275 127.48-50.235 7.2446-5.9104 19.16-17.254 24.789-23.601l3.5292-3.9786-1.7683-5.7904c-5.894-19.301-17.559-41.584-29.844-57.014-7.9015-9.9236-21.302-23.197-30.717-30.427-14.062-10.798-31.01-20.181-47.314-26.195l-6.0367-2.2266-6.9363 3.5734c-12.276 6.3241-25.329 10.072-39.863 11.445-17.613 1.6645-38.181-2.5823-55.356-11.43l-6.9066-3.558-6.9509 2.5432c-14.962 5.4742-34.212 16.281-47.476 26.652-27.394 21.419-48.323 51.666-59.143 85.474l-2.2107 6.9075 3.5496 4.0016c9.3555 10.547 24.724 24.243 37.193 33.145 41.135 29.368 93.703 44.232 143.99 40.713zm-194.61-96.835c14.199-39.453 42.699-74.7 78.536-97.131 7.1121-4.4516 20.574-11.46 27.322-14.225 2.5946-1.0629 4.8153-2.0036 4.9348-2.0904 0.11957-0.0868-2.3444-2.8905-5.4756-6.2304-14.507-15.474-23.153-32.342-27.293-53.247-1.6639-8.4014-1.506-28.46 0.29401-37.347 2.8779-14.208 9.1782-29.038 17.076-40.196 4.7292-6.6811 16.965-19.208 23.142-23.693 15.596-11.324 32.413-17.834 51.426-19.908 23.594-2.5738 48.033 3.7635 68.868 17.858 7.7905 5.2702 20.506 17.81 26.103 25.743 7.9044 11.203 14.19 26.01 17.064 40.196 1.8 8.8862 1.9579 28.945 0.29401 37.347-4.1622 21.016-13.465 38.983-27.98 54.041-2.7765 2.8802-4.9409 5.3173-4.8098 5.4157 0.13116 0.0984 2.3613 1.0486 4.9559 2.1115 6.7468 2.7639 20.209 9.7723 27.323 14.225 35.471 22.199 64.089 57.42 78.201 96.247 0.91357 2.5135 1.8556 4.57 2.0934 4.57 0.77549 0 9.5016-13.584 14.495-22.564 14.041-25.252 22.847-52.953 26.568-83.578 1.4338-11.8 1.4295-37.013-8e-3 -48.943-5.5551-46.085-22.965-86.382-52.222-120.87-6.7241-7.9265-21.341-22.273-28.944-28.408-34.165-27.568-73.394-44.063-117.04-49.21-12.225-1.4417-37.354-1.4489-49.238-0.014196-44.297 5.3477-81.842 20.995-116.53 48.563-8.2626 6.5671-26.844 25.149-33.411 33.411-27.567 34.684-43.185 72.155-48.568 116.53-1.4403 11.871-1.4403 37.072 0 48.943 3.7192 30.655 12.501 58.282 26.567 83.578 4.9934 8.9802 13.72 22.564 14.495 22.564 0.23781 0 1.0293-1.6585 1.7588-3.6855zm198.21-104.78c23.239-4.9485 42.298-17.814 55.454-37.432 5.713-8.5194 9.2016-16.328 11.878-26.585 4.1959-16.084 3.5929-34.428-1.6514-50.237-8.5036-25.635-29.888-47.037-55.512-55.558-22.498-7.4815-46.994-5.7314-67.869 4.8489-26.161 13.26-43.923 38.2-47.88 67.23-0.8067 5.9183-0.80637 17.293 5.9e-4 23.207 5.3119 38.927 34.82 68.971 74.024 75.369 7.4582 1.2172 23.952 0.77647 31.557-0.84316z" stop-color="#000000" style="-inkscape-stroke:none;font-variation-settings:normal"/><path d="m222.6 479.05c-90.512-7.1833-167.69-62.593-203.37-146.01-8.9867-21.01-15.285-45.579-17.879-69.747-1.1232-10.465-0.93773-38.533 0.32541-49.238 6.1594-52.2 27.061-97.865 62.584-136.73 30.406-33.269 72.785-58.507 116.89-69.611 21.02-5.2922 35.836-7.0731 58.845-7.0731 23.038 0 37.751 1.7712 58.968 7.0984 50.598 12.705 97.288 43.238 129.74 84.845 27.685 35.496 44.235 76.018 49.614 121.47 1.4527 12.277 1.448 39.47-9e-3 51.892-6.4928 55.352-30.14 104.44-69.041 143.32-19.48 19.469-38.705 33.327-62.96 45.383-38.107 18.942-82.406 27.68-123.71 24.402zm31.843-15.286c47.791-3.345 90.754-20.275 127.48-50.235 7.2446-5.9104 19.16-17.254 24.789-23.601l3.5292-3.9786-1.7683-5.7904c-5.894-19.301-17.559-41.584-29.844-57.014-7.9015-9.9236-21.302-23.197-30.717-30.427-14.062-10.798-31.01-20.181-47.314-26.195l-6.0367-2.2266-6.9363 3.5734c-12.276 6.3241-25.329 10.072-39.863 11.445-17.613 1.6645-38.181-2.5823-55.356-11.43l-6.9066-3.558-6.9509 2.5432c-14.962 5.4742-34.212 16.281-47.476 26.652-27.394 21.419-48.323 51.666-59.143 85.474l-2.2107 6.9075 3.5496 4.0016c9.3555 10.547 24.724 24.243 37.193 33.145 41.135 29.368 93.703 44.232 143.99 40.713zm-194.61-96.835c14.199-39.453 42.699-74.7 78.536-97.131 7.1121-4.4516 20.574-11.46 27.322-14.225 2.5946-1.0629 4.8153-2.0036 4.9348-2.0904 0.11957-0.0868-2.3444-2.8905-5.4756-6.2304-14.507-15.474-23.153-32.342-27.293-53.247-1.6639-8.4014-1.506-28.46 0.29401-37.347 2.8779-14.208 9.1782-29.038 17.076-40.196 4.7292-6.6811 16.965-19.208 23.142-23.693 15.596-11.324 32.413-17.834 51.426-19.908 23.594-2.5738 48.033 3.7635 68.868 17.858 7.7905 5.2702 20.506 17.81 26.103 25.743 7.9044 11.203 14.19 26.01 17.064 40.196 1.8 8.8862 1.9579 28.945 0.29401 37.347-4.1622 21.016-13.465 38.983-27.98 54.041-2.7765 2.8802-4.9409 5.3173-4.8098 5.4157 0.13116 0.0984 2.3613 1.0486 4.9559 2.1115 6.7468 2.7639 20.209 9.7723 27.323 14.225 35.471 22.199 64.089 57.42 78.201 96.247 0.91357 2.5135 1.8556 4.57 2.0934 4.57 0.77549 0 9.5016-13.584 14.495-22.564 14.041-25.252 22.847-52.953 26.568-83.578 1.4338-11.8 1.4295-37.013-8e-3 -48.943-5.5551-46.085-22.965-86.382-52.222-120.87-6.7241-7.9265-21.341-22.273-28.944-28.408-34.165-27.568-73.394-44.063-117.04-49.21-12.225-1.4417-37.354-1.4489-49.238-0.014196-44.297 5.3477-81.842 20.995-116.53 48.563-8.2626 6.5671-26.844 25.149-33.411 33.411-27.567 34.684-43.185 72.155-48.568 116.53-1.4403 11.871-1.4403 37.072 0 48.943 3.7192 30.655 12.501 58.282 26.567 83.578 4.9934 8.9802 13.72 22.564 14.495 22.564 0.23781 0 1.0293-1.6585 1.7588-3.6855zm198.21-104.78c23.239-4.9485 42.298-17.814 55.454-37.432 5.713-8.5194 9.2016-16.328 11.878-26.585 4.1959-16.084 3.5929-34.428-1.6514-50.237-8.5036-25.635-29.888-47.037-55.512-55.558-22.498-7.4815-46.994-5.7314-67.869 4.8489-26.161 13.26-43.923 38.2-47.88 67.23-0.8067 5.9183-0.80637 17.293 5.9e-4 23.207 5.3119 38.927 34.82 68.971 74.024 75.369 7.4582 1.2172 23.952 0.77647 31.557-0.84316z" stop-color="#000000" style="-inkscape-stroke:none;font-variation-settings:normal"/></g></svg>
