<?xml version="1.0" encoding="UTF-8" standalone="no"?>
<!-- Generator: Adobe Illustrator 19.0.0, SVG Export Plug-In . SVG Version: 6.00 Build 0)  -->

<svg
   version="1.1"
   id="Capa_1"
   x="0px"
   y="0px"
   viewBox="0 0 480 480"
   style="enable-background:new 0 0 480 480;"
   xml:space="preserve"
   sodipodi:docname="user.svg"
   inkscape:version="1.2.2 (b0a8486, 2022-12-01)"
   xmlns:inkscape="http://www.inkscape.org/namespaces/inkscape"
   xmlns:sodipodi="http://sodipodi.sourceforge.net/DTD/sodipodi-0.dtd"
   xmlns="http://www.w3.org/2000/svg"
   xmlns:svg="http://www.w3.org/2000/svg"><defs
   id="defs48" /><sodipodi:namedview
   id="namedview46"
   pagecolor="#ffffff"
   bordercolor="#000000"
   borderopacity="0.25"
   inkscape:showpageshadow="2"
   inkscape:pageopacity="0.0"
   inkscape:pagecheckerboard="0"
   inkscape:deskcolor="#d1d1d1"
   showgrid="false"
   inkscape:zoom="1.6958333"
   inkscape:cx="239.70516"
   inkscape:cy="240"
   inkscape:window-width="1920"
   inkscape:window-height="936"
   inkscape:window-x="0"
   inkscape:window-y="25"
   inkscape:window-maximized="1"
   inkscape:current-layer="g13" />
<g
   id="g13">
	<g
   id="g11"
   style="fill:#e6e6e6">
		<path
   d="M 240,0 C 107.664,0 0,107.664 0,240 c 0,57.96 20.656,111.184 54.992,152.704 0.088,0.12 0.096,0.272 0.192,0.384 24.792,29.896 55.928,52.816 90.624,67.624 0.4,0.168 0.792,0.352 1.192,0.52 2.808,1.184 5.648,2.28 8.496,3.352 1.12,0.424 2.24,0.856 3.376,1.264 2.456,0.88 4.928,1.712 7.416,2.512 1.592,0.512 3.184,1.016 4.792,1.496 2.2,0.656 4.408,1.288 6.632,1.888 1.952,0.528 3.92,1.016 5.888,1.488 1.992,0.48 3.992,0.96 6,1.384 2.24,0.48 4.504,0.904 6.776,1.32 1.824,0.336 3.64,0.688 5.48,0.984 2.52,0.408 5.056,0.728 7.6,1.056 1.64,0.208 3.272,0.448 4.92,0.624 2.88,0.304 5.784,0.52 8.696,0.72 1.352,0.096 2.696,0.24 4.056,0.312 4.248,0.24 8.544,0.368 12.872,0.368 4.328,0 8.624,-0.128 12.888,-0.352 1.36,-0.072 2.704,-0.216 4.056,-0.312 2.912,-0.208 5.816,-0.416 8.696,-0.72 1.648,-0.176 3.28,-0.416 4.92,-0.624 2.544,-0.328 5.08,-0.648 7.6,-1.056 1.832,-0.296 3.656,-0.648 5.48,-0.984 2.264,-0.416 4.528,-0.84 6.776,-1.32 2.008,-0.432 4,-0.904 6,-1.384 1.968,-0.48 3.936,-0.968 5.888,-1.488 2.224,-0.592 4.432,-1.232 6.632,-1.888 1.608,-0.48 3.2,-0.984 4.792,-1.496 2.488,-0.8 4.96,-1.632 7.416,-2.512 1.128,-0.408 2.248,-0.84 3.376,-1.264 2.856,-1.072 5.688,-2.176 8.496,-3.352 0.4,-0.168 0.792,-0.352 1.192,-0.52 34.688,-14.808 65.832,-37.728 90.624,-67.624 0.096,-0.112 0.104,-0.272 0.192,-0.384 C 459.344,351.184 480,297.96 480,240 480,107.664 372.336,0 240,0 Z m 97.256,441.76 c -0.12,0.056 -0.232,0.12 -0.352,0.176 -2.856,1.376 -5.76,2.672 -8.688,3.936 -0.664,0.28 -1.32,0.568 -1.984,0.848 -2.56,1.072 -5.152,2.088 -7.76,3.064 -1.088,0.408 -2.176,0.808 -3.272,1.192 -2.312,0.824 -4.632,1.616 -6.976,2.368 -1.456,0.464 -2.92,0.904 -4.384,1.336 -2.08,0.624 -4.168,1.224 -6.28,1.784 -1.776,0.472 -3.568,0.904 -5.36,1.328 -1.88,0.448 -3.752,0.904 -5.648,1.304 -2.072,0.44 -4.16,0.816 -6.24,1.192 -1.688,0.312 -3.368,0.64 -5.072,0.912 -2.344,0.368 -4.712,0.664 -7.072,0.96 -1.496,0.192 -2.984,0.416 -4.496,0.576 -2.696,0.288 -5.416,0.472 -8.128,0.664 -1.208,0.08 -2.408,0.216 -3.632,0.28 -3.96,0.208 -7.928,0.32 -11.912,0.32 -3.984,0 -7.952,-0.112 -11.904,-0.32 -1.216,-0.064 -2.416,-0.192 -3.632,-0.28 -2.72,-0.184 -5.432,-0.376 -8.128,-0.664 -1.512,-0.16 -3,-0.384 -4.496,-0.576 -2.36,-0.296 -4.728,-0.592 -7.072,-0.96 -1.704,-0.272 -3.384,-0.6 -5.072,-0.912 -2.088,-0.376 -4.176,-0.76 -6.24,-1.192 -1.896,-0.4 -3.776,-0.856 -5.648,-1.304 -1.792,-0.432 -3.584,-0.856 -5.36,-1.328 -2.104,-0.56 -4.2,-1.168 -6.28,-1.784 -1.464,-0.432 -2.928,-0.872 -4.384,-1.336 -2.344,-0.752 -4.672,-1.544 -6.976,-2.368 -1.096,-0.392 -2.184,-0.792 -3.272,-1.192 -2.608,-0.976 -5.2,-1.992 -7.76,-3.064 -0.664,-0.272 -1.312,-0.56 -1.976,-0.84 -2.928,-1.256 -5.832,-2.56 -8.696,-3.936 -0.12,-0.056 -0.232,-0.112 -0.352,-0.176 -27.912,-13.504 -52.568,-32.672 -72.576,-55.952 15.464,-56.944 59.24,-102.848 115.56,-121.112 1.112,0.68 2.272,1.288 3.416,1.928 0.672,0.376 1.336,0.776 2.016,1.136 2.384,1.264 4.8,2.448 7.272,3.512 1.896,0.832 3.856,1.536 5.808,2.256 0.384,0.136 0.768,0.288 1.152,0.424 10.848,3.84 22.456,6.04 34.6,6.04 12.144,0 23.752,-2.2 34.592,-6.04 0.384,-0.136 0.768,-0.288 1.152,-0.424 1.952,-0.72 3.912,-1.424 5.808,-2.256 2.472,-1.064 4.888,-2.248 7.272,-3.512 0.68,-0.368 1.344,-0.76 2.016,-1.136 1.144,-0.64 2.312,-1.248 3.432,-1.936 56.32,18.272 100.088,64.176 115.56,121.112 -20.008,23.272 -44.664,42.44 -72.576,55.952 z M 152,176 c 0,-48.52 39.48,-88 88,-88 48.52,0 88,39.48 88,88 0,30.864 -16.008,58.024 -40.128,73.736 -3.152,2.048 -6.432,3.88 -9.8,5.48 -0.4,0.192 -0.792,0.392 -1.192,0.576 -23.168,10.536 -50.592,10.536 -73.76,0 -0.4,-0.184 -0.8,-0.384 -1.192,-0.576 -3.376,-1.6 -6.648,-3.432 -9.8,-5.48 C 168.008,234.024 152,206.864 152,176 Z M 421.832,370.584 C 403.696,317.032 362.32,273.752 309.456,253.192 330.6,234.144 344,206.64 344,176 344,118.656 297.344,72 240,72 c -57.344,0 -104,46.656 -104,104 0,30.64 13.4,58.144 34.552,77.192 C 117.688,273.76 76.312,317.032 58.176,370.584 31.672,333.792 16,288.704 16,240 16,116.488 116.488,16 240,16 c 123.512,0 224,100.488 224,224 0,48.704 -15.672,93.792 -42.168,130.584 z"
   id="path9"
   style="display:inline;fill:#e6e6e6" />
	</g>
</g>
<g
   id="g15">
</g>
<g
   id="g17">
</g>
<g
   id="g19">
</g>
<g
   id="g21">
</g>
<g
   id="g23">
</g>
<g
   id="g25">
</g>
<g
   id="g27">
</g>
<g
   id="g29">
</g>
<g
   id="g31">
</g>
<g
   id="g33">
</g>
<g
   id="g35">
</g>
<g
   id="g37">
</g>
<g
   id="g39">
</g>
<g
   id="g41">
</g>
<g
   id="g43">
</g>
<path
   style="font-variation-settings:normal;opacity:1;vector-effect:none;fill:#666666;fill-opacity:0;stroke-width:0.999998;stroke-linecap:butt;stroke-linejoin:miter;stroke-miterlimit:4;stroke-dasharray:none;stroke-dashoffset:0;stroke-opacity:1;-inkscape-stroke:none;stop-color:#000000;stop-opacity:1"
   d="M 222.60442,479.04967 C 132.09264,471.86639 54.915719,416.45671 19.235007,333.03926 10.248356,312.02948 3.9503363,287.46006 1.3563921,263.29238 0.23315941,252.82727 0.4186603,224.75899 1.6818041,214.05405 7.8412122,161.8541 28.742519,116.1889 64.265531,77.321065 94.67191,44.05164 137.05078,18.813654 181.15501,7.7096085 202.17502,2.4174361 216.99138,0.63653254 240,0.63653254 c 23.03753,0 37.75148,1.77123056 58.96806,7.09843396 50.5985,12.7046165 97.288,43.2379815 129.73892,84.8448865 27.68489,35.496137 44.23542,76.018107 49.61415,121.474197 1.45273,12.27713 1.44796,39.4704 -0.009,51.8919 -6.49282,55.35179 -30.13999,104.43945 -69.04141,143.31859 -19.48047,19.46932 -38.70494,33.32681 -62.95957,45.38289 -38.10706,18.94159 -82.40609,27.67997 -123.70665,24.40224 z m 31.84275,-15.28633 c 47.79125,-3.34502 90.75363,-20.27535 127.47565,-50.23476 7.24457,-5.91043 19.15958,-17.25412 24.78916,-23.60053 l 3.52921,-3.97858 -1.76828,-5.79038 c -5.89404,-19.3006 -17.55852,-41.58433 -29.8442,-57.01413 -7.9015,-9.92363 -21.3017,-23.19739 -30.71716,-30.42736 -14.06209,-10.79801 -31.01018,-20.18105 -47.31432,-26.19481 l -6.03667,-2.22662 -6.9363,3.57337 c -12.27571,6.32408 -25.32901,10.07192 -39.86326,11.44548 -17.61335,1.66454 -38.18082,-2.58234 -55.35555,-11.43012 l -6.9066,-3.55802 -6.9509,2.5432 c -14.96166,5.47417 -34.21205,16.28086 -47.47636,26.65205 -27.39382,21.41887 -48.323016,51.66593 -59.142888,85.47383 l -2.210672,6.9075 3.549595,4.00159 c 9.355494,10.54678 24.724475,24.24304 37.193265,33.14524 41.1347,29.36847 93.70298,44.2325 143.98628,40.71305 z M 59.841624,366.92875 c 14.199207,-39.45266 42.698626,-74.6999 78.536186,-97.13125 7.11213,-4.4516 20.57395,-11.46017 27.32244,-14.22475 2.59459,-1.0629 4.81527,-2.0036 4.93484,-2.09044 0.11957,-0.0868 -2.34445,-2.89053 -5.4756,-6.23042 -14.50692,-15.47404 -23.15317,-32.34217 -27.29326,-53.24698 -1.66387,-8.40139 -1.50595,-28.4605 0.29401,-37.3467 2.87787,-14.20778 9.17821,-29.03817 17.07644,-40.19629 4.72916,-6.68107 16.96471,-19.208224 23.1417,-23.693234 15.59582,-11.323884 32.41257,-17.833975 51.42639,-19.908159 23.59401,-2.573826 48.0332,3.763489 68.86845,17.858258 7.79048,5.270153 20.50558,17.810015 26.10289,25.743135 7.90443,11.20302 14.19015,26.01009 17.06365,40.19629 1.79996,8.8862 1.95788,28.94531 0.29401,37.3467 -4.16217,21.01631 -13.46473,38.98318 -27.98017,54.04065 -2.77652,2.8802 -4.94091,5.31726 -4.80976,5.41569 0.13116,0.0984 2.36132,1.0486 4.95591,2.1115 6.74683,2.7639 20.20885,9.77233 27.32337,14.22475 35.47103,22.19852 64.08877,57.42028 78.20061,96.24673 0.91357,2.51351 1.85561,4.57002 2.09343,4.57002 0.77549,0 9.50162,-13.58369 14.49508,-22.56403 14.04095,-25.25151 22.84701,-52.95338 26.56849,-83.57848 1.43384,-11.79954 1.4295,-37.01339 -0.008,-48.94348 C 457.41759,169.4428 440.00763,129.14606 410.75088,94.65761 404.0268,86.731123 389.40949,72.384543 381.80727,66.250066 347.64271,38.68157 308.4133,22.187547 264.76658,17.040246 252.5418,15.598565 227.41254,15.59132 215.52826,17.02605 171.23158,22.373766 133.68627,38.020838 99.000425,65.589223 90.737838,72.156342 72.156342,90.737838 65.589223,99.000425 38.022006,133.6848 22.40439,171.15548 17.020933,215.52826 c -1.440254,11.8712 -1.440254,37.07228 0,48.94348 3.7192,30.65526 12.500762,58.2818 26.566826,83.57848 4.993392,8.98021 13.719588,22.56403 14.495051,22.56403 0.237809,0 1.029278,-1.65848 1.758814,-3.6855 z M 258.05348,262.14923 c 23.23863,-4.94853 42.2977,-17.81358 55.45354,-37.43165 5.71305,-8.51935 9.20156,-16.3275 11.87756,-26.5849 4.19593,-16.08353 3.59293,-34.42787 -1.65136,-50.23743 -8.50357,-25.63508 -29.88763,-47.03669 -55.51248,-55.558075 -22.49791,-7.481543 -46.99438,-5.731382 -67.86905,4.84892 -26.16107,13.259715 -43.9232,38.200055 -47.8802,67.230035 -0.8067,5.91833 -0.80637,17.29263 5.9e-4,23.20705 5.31188,38.92709 34.81975,68.97126 74.02383,75.36921 7.45821,1.21715 23.95153,0.77647 31.55747,-0.84316 z"
   id="path1233" /><path
   style="font-variation-settings:normal;opacity:1;vector-effect:none;fill:#666666;fill-opacity:0;stroke-width:0.999998;stroke-linecap:butt;stroke-linejoin:miter;stroke-miterlimit:4;stroke-dasharray:none;stroke-dashoffset:0;stroke-opacity:1;-inkscape-stroke:none;stop-color:#000000;stop-opacity:1"
   d="M 53.529182,363.09996 C 23.178698,317.17768 10.812897,262.29823 18.616467,208.15725 25.061184,163.44396 45.369569,121.11617 76.306408,87.916883 95.921354,66.867472 117.28227,51.162473 143.7461,38.333795 c 60.56226,-29.3583298 131.94554,-29.3583298 192.5078,0 11.88785,5.762784 18.80405,9.733592 29.34807,16.849628 51.56569,34.801116 87.0085,91.416347 95.76615,152.973827 2.32111,16.31507 2.90989,31.45758 1.81134,46.58476 -2.84472,39.17217 -14.86075,74.88556 -36.16214,107.47913 -2.60006,3.97838 -4.90309,7.02998 -5.11786,6.78132 -0.21477,-0.24865 -1.67039,-3.76904 -3.23472,-7.8231 -12.71277,-32.94597 -37.06076,-64.05001 -66.79171,-85.32498 -12.38751,-8.86429 -28.02398,-17.46409 -40.13465,-22.07339 -1.3323,-0.50707 -1.21892,-0.69936 3.15215,-5.34583 16.24877,-17.27255 25.8732,-37.51102 28.63918,-60.22313 1.0154,-8.33769 0.39633,-24.98421 -1.21,-32.53635 -5.66129,-26.6165 -20.3947,-49.28303 -42.17229,-64.879759 -6.0633,-4.342425 -19.58701,-11.268064 -26.50721,-13.574618 -13.2291,-4.409359 -28.23241,-6.24295 -41.76486,-5.104181 -14.66341,1.23394 -25.23164,4.19405 -38.46012,10.772504 -28.89905,14.371335 -48.85275,40.429524 -55.73494,72.786054 -1.60633,7.55214 -2.2254,24.19866 -1.21,32.53635 2.76598,22.71211 12.39041,42.95058 28.63918,60.22313 4.37107,4.64647 4.48445,4.83876 3.15215,5.34583 -12.07095,4.59418 -27.74723,13.20916 -40.03111,21.9993 -30.029439,21.48856 -54.153808,52.44237 -67.246579,86.28359 -1.380249,3.56757 -2.678952,6.68736 -2.886005,6.93288 -0.207054,0.24552 -2.262989,-2.40805 -4.568744,-5.8968 z"
   id="path1235" /><path
   style="font-variation-settings:normal;opacity:1;vector-effect:none;fill:#666666;fill-opacity:0;stroke-width:0.999998;stroke-linecap:butt;stroke-linejoin:miter;stroke-miterlimit:4;stroke-dasharray:none;stroke-dashoffset:0;stroke-opacity:1;-inkscape-stroke:none;stop-color:#000000;stop-opacity:1"
   d="M 53.529182,363.09996 C 23.178698,317.17768 10.812897,262.29823 18.616467,208.15725 25.061184,163.44396 45.369569,121.11617 76.306408,87.916883 95.921354,66.867472 117.28227,51.162473 143.7461,38.333795 c 60.56226,-29.3583298 131.94554,-29.3583298 192.5078,0 11.88785,5.762784 18.80405,9.733592 29.34807,16.849628 51.56569,34.801116 87.0085,91.416347 95.76615,152.973827 2.32111,16.31507 2.90989,31.45758 1.81134,46.58476 -2.84472,39.17217 -14.86075,74.88556 -36.16214,107.47913 -2.60006,3.97838 -4.90309,7.02998 -5.11786,6.78132 -0.21477,-0.24865 -1.67039,-3.76904 -3.23472,-7.8231 -12.71277,-32.94597 -37.06076,-64.05001 -66.79171,-85.32498 -12.38751,-8.86429 -28.02398,-17.46409 -40.13465,-22.07339 -1.3323,-0.50707 -1.21892,-0.69936 3.15215,-5.34583 16.24877,-17.27255 25.8732,-37.51102 28.63918,-60.22313 1.0154,-8.33769 0.39633,-24.98421 -1.21,-32.53635 -5.66129,-26.6165 -20.3947,-49.28303 -42.17229,-64.879759 -6.0633,-4.342425 -19.58701,-11.268064 -26.50721,-13.574618 -13.2291,-4.409359 -28.23241,-6.24295 -41.76486,-5.104181 -14.66341,1.23394 -25.23164,4.19405 -38.46012,10.772504 -28.89905,14.371335 -48.85275,40.429524 -55.73494,72.786054 -1.60633,7.55214 -2.2254,24.19866 -1.21,32.53635 2.76598,22.71211 12.39041,42.95058 28.63918,60.22313 4.37107,4.64647 4.48445,4.83876 3.15215,5.34583 -12.07095,4.59418 -27.74723,13.20916 -40.03111,21.9993 -30.029439,21.48856 -54.153808,52.44237 -67.246579,86.28359 -1.380249,3.56757 -2.678952,6.68736 -2.886005,6.93288 -0.207054,0.24552 -2.262989,-2.40805 -4.568744,-5.8968 z"
   id="path1237" /><path
   style="font-variation-settings:normal;opacity:1;vector-effect:none;fill:#666666;fill-opacity:0;stroke-width:0.999998;stroke-linecap:butt;stroke-linejoin:miter;stroke-miterlimit:4;stroke-dasharray:none;stroke-dashoffset:0;stroke-opacity:1;-inkscape-stroke:none;stop-color:#000000;stop-opacity:1"
   d="M 53.529182,363.09996 C 23.178698,317.17768 10.812897,262.29823 18.616467,208.15725 25.061184,163.44396 45.369569,121.11617 76.306408,87.916883 95.921354,66.867472 117.28227,51.162473 143.7461,38.333795 c 60.56226,-29.3583298 131.94554,-29.3583298 192.5078,0 11.88785,5.762784 18.80405,9.733592 29.34807,16.849628 51.56569,34.801116 87.0085,91.416347 95.76615,152.973827 2.32111,16.31507 2.90989,31.45758 1.81134,46.58476 -2.84472,39.17217 -14.86075,74.88556 -36.16214,107.47913 -2.60006,3.97838 -4.90309,7.02998 -5.11786,6.78132 -0.21477,-0.24865 -1.67039,-3.76904 -3.23472,-7.8231 -12.71277,-32.94597 -37.06076,-64.05001 -66.79171,-85.32498 -12.38751,-8.86429 -28.02398,-17.46409 -40.13465,-22.07339 -1.3323,-0.50707 -1.21892,-0.69936 3.15215,-5.34583 16.24877,-17.27255 25.8732,-37.51102 28.63918,-60.22313 1.0154,-8.33769 0.39633,-24.98421 -1.21,-32.53635 -5.66129,-26.6165 -20.3947,-49.28303 -42.17229,-64.879759 -6.0633,-4.342425 -19.58701,-11.268064 -26.50721,-13.574618 -13.2291,-4.409359 -28.23241,-6.24295 -41.76486,-5.104181 -14.66341,1.23394 -25.23164,4.19405 -38.46012,10.772504 -28.89905,14.371335 -48.85275,40.429524 -55.73494,72.786054 -1.60633,7.55214 -2.2254,24.19866 -1.21,32.53635 2.76598,22.71211 12.39041,42.95058 28.63918,60.22313 4.37107,4.64647 4.48445,4.83876 3.15215,5.34583 -12.07095,4.59418 -27.74723,13.20916 -40.03111,21.9993 -30.029439,21.48856 -54.153808,52.44237 -67.246579,86.28359 -1.380249,3.56757 -2.678952,6.68736 -2.886005,6.93288 -0.207054,0.24552 -2.262989,-2.40805 -4.568744,-5.8968 z"
   id="path1239" /><path
   style="font-variation-settings:normal;opacity:1;vector-effect:none;fill:#666666;fill-opacity:0;stroke-width:0.999998;stroke-linecap:butt;stroke-linejoin:miter;stroke-miterlimit:4;stroke-dasharray:none;stroke-dashoffset:0;stroke-opacity:1;-inkscape-stroke:none;stop-color:#000000;stop-opacity:1"
   d="M 222.60442,479.04967 C 132.09264,471.86639 54.915719,416.45671 19.235007,333.03926 10.248356,312.02948 3.9503363,287.46006 1.3563921,263.29238 0.23315941,252.82727 0.4186603,224.75899 1.6818041,214.05405 7.8412122,161.8541 28.742519,116.1889 64.265531,77.321065 94.67191,44.05164 137.05078,18.813654 181.15501,7.7096085 202.17502,2.4174361 216.99138,0.63653254 240,0.63653254 c 23.03753,0 37.75148,1.77123056 58.96806,7.09843396 50.5985,12.7046165 97.288,43.2379815 129.73892,84.8448865 27.68489,35.496137 44.23542,76.018107 49.61415,121.474197 1.45273,12.27713 1.44796,39.4704 -0.009,51.8919 -6.49282,55.35179 -30.13999,104.43945 -69.04141,143.31859 -19.48047,19.46932 -38.70494,33.32681 -62.95957,45.38289 -38.10706,18.94159 -82.40609,27.67997 -123.70665,24.40224 z m 22.28844,-15.11401 c -2.49811,-0.11026 -6.74381,-0.11088 -9.43489,-10e-4 -2.69107,0.10951 -0.64716,0.19972 4.54203,0.20046 5.18919,5.9e-4 7.39098,-0.0888 4.89286,-0.19911 z m -20.81424,-0.81357 C 178.58719,459.6472 135.86445,442.81274 100.2457,414.327 93.072719,408.59048 78.605449,394.86883 73.370966,388.83736 l -2.864143,-3.30023 1.521547,-4.9553 c 11.178981,-36.40698 35.39904,-69.78727 66.54574,-91.71388 3.08466,-2.17154 5.48574,-4.07101 5.3357,-4.22103 -0.39955,-0.39956 -11.46825,7.6176 -17.3551,12.57047 -5.82844,4.90371 -17.34387,16.46339 -22.01008,22.09465 -14.759162,17.81158 -25.513019,37.49007 -32.615928,59.68392 l -2.210672,6.9075 3.549595,4.00159 c 1.952279,2.20087 6.83083,7.19092 10.84123,11.08899 34.662325,33.6915 78.329955,54.85059 126.407115,61.2504 9.46059,1.25935 10.4867,1.34878 15.62654,1.36186 3.80538,0.01 3.51735,-0.0579 -2.06389,-0.48421 z m 45.41099,-0.81964 c 42.46418,-5.91442 79.69667,-22.06599 112.43321,-48.77387 7.24457,-5.91043 19.15958,-17.25412 24.78916,-23.60053 l 3.52921,-3.97858 -1.76828,-5.79038 c -5.89404,-19.3006 -17.55852,-41.58433 -29.8442,-57.01413 -7.9015,-9.92363 -21.3017,-23.19739 -30.71716,-30.42736 -14.06209,-10.79801 -31.01018,-20.18105 -47.31432,-26.19481 l -6.03667,-2.22662 -6.9363,3.57337 c -17.20518,8.86359 -37.75953,13.11119 -55.38526,11.44548 -14.52278,-1.37247 -27.5877,-5.12151 -39.83492,-11.43082 l -6.90795,-3.55873 -6.06502,2.20158 c -11.13504,4.04197 -35.08284,16.25023 -34.31468,17.49315 0.17019,0.27538 43.05118,0.50068 95.29108,0.50068 h 94.98164 l 5.82943,4.16198 c 11.4125,8.14805 21.0945,16.81802 29.79306,26.67889 16.72932,18.96468 28.00473,38.46622 35.89476,62.0822 l 2.67131,7.9956 -2.90641,3.34902 c -5.36079,6.17717 -19.77148,19.82687 -27.21184,25.77485 -13.80382,11.03505 -26.74472,19.14753 -43.25801,27.11786 -24.76878,11.95494 -51.30085,19.0572 -80.28007,21.48984 l -6.48649,0.5445 6.78691,-0.25526 c 3.7328,-0.14039 9.70332,-0.66145 13.26781,-1.15791 z M 59.841624,366.92875 c 13.855046,-38.4964 42.247136,-74.11457 76.247006,-95.65265 2.49948,-1.58336 4.4232,-3.00014 4.27493,-3.14841 -0.34381,-0.34382 -4.94529,2.57166 -12.22254,7.74414 -29.717533,21.12242 -54.07909,52.38901 -67.157091,86.19205 -1.380247,3.56757 -2.678948,6.68736 -2.886003,6.93288 -0.207054,0.24552 -2.262989,-2.40805 -4.568744,-5.8968 C 23.178698,317.17768 10.812897,262.29823 18.616467,208.15725 25.061184,163.44396 45.369569,121.11617 76.306408,87.916883 107.47175,54.472375 147.71088,31.384503 191.94103,21.569589 c 9.56344,-2.12218 22.58423,-4.045339 31.84275,-4.703145 5.15974,-0.366593 5.86478,-0.501771 2.94841,-0.565301 -2.10811,-0.04592 -7.41524,0.331541 -11.79362,0.83881 C 171.86674,22.130152 133.51511,38.156871 99.000425,65.589223 90.737838,72.156342 72.156342,90.737838 65.589223,99.000425 38.022006,133.6848 22.40439,171.15548 17.020933,215.52826 c -1.440254,11.8712 -1.440254,37.07228 0,48.94348 3.7192,30.65526 12.500762,58.2818 26.566826,83.57848 4.993392,8.98021 13.719588,22.56403 14.495051,22.56403 0.237809,0 1.029278,-1.65848 1.758814,-3.6855 z m 367.100206,-3.21003 c 16.40402,-24.63157 28.19399,-53.76459 33.56901,-82.94903 2.30913,-12.53774 3.29259,-22.83111 3.50089,-36.64193 0.10762,-7.13513 0.10827,-10.05405 10e-4,-6.48648 -0.5177,17.28935 -2.21743,34.01542 -4.68972,46.14891 -5.71715,28.05862 -16.5102,54.26136 -32.30613,78.43095 -2.60006,3.97838 -4.90309,7.02998 -5.11786,6.78132 -0.21451,-0.24865 -1.67013,-3.76904 -3.23446,-7.8231 -12.71277,-32.94597 -37.06076,-64.05001 -66.79171,-85.32498 -12.38751,-8.86429 -28.02398,-17.46409 -40.13465,-22.07339 -1.3323,-0.50707 -1.21892,-0.69936 3.15215,-5.34583 16.24877,-17.27255 25.8732,-37.51102 28.63918,-60.22313 1.0154,-8.33769 0.39633,-24.98421 -1.21,-32.53635 -5.66129,-26.6165 -20.3947,-49.28303 -42.17229,-64.879759 -6.0633,-4.342425 -19.58701,-11.268064 -26.50721,-13.574618 -13.2291,-4.40936 -28.23241,-6.242948 -41.76486,-5.104181 -14.66341,1.233942 -25.23164,4.19405 -38.46012,10.772504 -28.89905,14.371335 -48.85275,40.429524 -55.73494,72.786054 -1.60633,7.55214 -2.2254,24.19866 -1.21,32.53635 2.76598,22.71211 12.39041,42.95058 28.63918,60.22313 4.37107,4.64647 4.48445,4.83876 3.15215,5.34583 -9.13993,3.47864 -28.87261,13.59677 -26.57914,13.62873 0.41185,0.006 1.76481,-0.63094 3.00658,-1.41484 3.11947,-1.96923 16.59567,-8.62986 21.60087,-10.67626 2.27027,-0.92821 4.22559,-1.75663 4.34516,-1.84093 0.11957,-0.0843 -2.34445,-2.88591 -5.4756,-6.2258 -14.50692,-15.47404 -23.15317,-32.34217 -27.29326,-53.24698 -1.66387,-8.40139 -1.50595,-28.4605 0.29401,-37.3467 2.87787,-14.20778 9.17821,-29.03817 17.07644,-40.19629 4.72916,-6.68107 16.96471,-19.208224 23.1417,-23.693234 15.59582,-11.323884 32.41257,-17.833975 51.42639,-19.908159 23.59401,-2.573826 48.0332,3.763489 68.86845,17.858258 7.79048,5.270153 20.50558,17.810015 26.10289,25.743135 7.90443,11.20302 14.19015,26.01009 17.06365,40.19629 1.79996,8.8862 1.95788,28.94531 0.29401,37.3467 -4.16217,21.01631 -13.46473,38.98318 -27.98017,54.04065 -2.77652,2.8802 -4.94091,5.31726 -4.80976,5.41569 0.13116,0.0984 2.36132,1.0486 4.95591,2.1115 6.74683,2.7639 20.20885,9.77233 27.32337,14.22475 35.47103,22.19852 64.08877,57.42028 78.20061,96.24673 0.91357,2.51351 1.85561,4.57002 2.09343,4.57002 0.23783,0 2.49893,-3.10299 5.02467,-6.89553 z M 258.05348,262.14923 c 23.23863,-4.94853 42.2977,-17.81358 55.45354,-37.43165 5.71305,-8.51935 9.20156,-16.3275 11.87756,-26.5849 4.19593,-16.08353 3.59293,-34.42787 -1.65136,-50.23743 -8.50357,-25.63508 -29.88763,-47.03669 -55.51248,-55.558075 -22.49791,-7.481543 -46.99438,-5.731382 -67.86905,4.84892 -26.16107,13.259715 -43.9232,38.200055 -47.8802,67.230035 -0.8067,5.91833 -0.80637,17.29263 5.9e-4,23.20705 5.31188,38.92709 34.81975,68.97126 74.02383,75.36921 7.45821,1.21715 23.95153,0.77647 31.55747,-0.84316 z M 462.89479,215.29307 C 457.72582,170.19642 439.9555,129.08461 410.75088,94.65761 404.0268,86.731123 389.40949,72.384543 381.80727,66.250066 352.53458,42.628977 319.6616,27.162673 283.63636,20.061936 272.37338,17.84195 258.8815,16.173955 253.21074,16.300428 c -2.81658,0.06282 -2.05303,0.206616 3.00548,0.566016 55.56051,3.947505 109.46076,29.904833 147.49065,71.028668 31.1601,33.695158 51.19349,75.462688 57.68255,120.262138 0.65768,4.54054 1.39912,11.4398 1.64765,15.33169 0.33814,5.29503 0.49705,6.20062 0.63134,3.59774 0.0987,-1.91314 -0.24942,-7.22026 -0.77362,-11.79361 z M 244.89286,15.778406 c -2.49811,-0.11026 -6.74381,-0.11087 -9.43489,-0.0014 -2.69107,0.109513 -0.64716,0.199725 4.54203,0.200471 5.18919,7.67e-4 7.39098,-0.08886 4.89286,-0.199114 z"
   id="path1241" /><path
   style="font-variation-settings:normal;opacity:1;vector-effect:none;fill:#00ffff;fill-opacity:0;stroke-width:0.999998;stroke-linecap:butt;stroke-linejoin:miter;stroke-miterlimit:4;stroke-dasharray:none;stroke-dashoffset:0;stroke-opacity:1;-inkscape-stroke:none;stop-color:#000000;stop-opacity:1"
   d="M 222.60442,479.04967 C 132.09264,471.86639 54.915719,416.45671 19.235007,333.03926 10.248356,312.02948 3.9503363,287.46006 1.3563921,263.29238 0.23315941,252.82727 0.4186603,224.75899 1.6818041,214.05405 7.8412122,161.8541 28.742519,116.1889 64.265531,77.321065 94.67191,44.05164 137.05078,18.813654 181.15501,7.7096085 202.17502,2.4174361 216.99138,0.63653254 240,0.63653254 c 23.03753,0 37.75148,1.77123056 58.96806,7.09843396 50.5985,12.7046165 97.288,43.2379815 129.73892,84.8448865 27.68489,35.496137 44.23542,76.018107 49.61415,121.474197 1.45273,12.27713 1.44796,39.4704 -0.009,51.8919 -6.49282,55.35179 -30.13999,104.43945 -69.04141,143.31859 -19.48047,19.46932 -38.70494,33.32681 -62.95957,45.38289 -38.10706,18.94159 -82.40609,27.67997 -123.70665,24.40224 z m 31.84275,-15.28633 c 47.79125,-3.34502 90.75363,-20.27535 127.47565,-50.23476 7.24457,-5.91043 19.15958,-17.25412 24.78916,-23.60053 l 3.52921,-3.97858 -1.76828,-5.79038 c -5.89404,-19.3006 -17.55852,-41.58433 -29.8442,-57.01413 -7.9015,-9.92363 -21.3017,-23.19739 -30.71716,-30.42736 -14.06209,-10.79801 -31.01018,-20.18105 -47.31432,-26.19481 l -6.03667,-2.22662 -6.9363,3.57337 c -12.27571,6.32408 -25.32901,10.07192 -39.86326,11.44548 -17.61335,1.66454 -38.18082,-2.58234 -55.35555,-11.43012 l -6.9066,-3.55802 -6.9509,2.5432 c -14.96166,5.47417 -34.21205,16.28086 -47.47636,26.65205 -27.39382,21.41887 -48.323016,51.66593 -59.142888,85.47383 l -2.210672,6.9075 3.549595,4.00159 c 9.355494,10.54678 24.724475,24.24304 37.193265,33.14524 41.1347,29.36847 93.70298,44.2325 143.98628,40.71305 z M 59.841624,366.92875 c 14.199207,-39.45266 42.698626,-74.6999 78.536186,-97.13125 7.11213,-4.4516 20.57395,-11.46017 27.32244,-14.22475 2.59459,-1.0629 4.81527,-2.0036 4.93484,-2.09044 0.11957,-0.0868 -2.34445,-2.89053 -5.4756,-6.23042 -14.50692,-15.47404 -23.15317,-32.34217 -27.29326,-53.24698 -1.66387,-8.40139 -1.50595,-28.4605 0.29401,-37.3467 2.87787,-14.20778 9.17821,-29.03817 17.07644,-40.19629 4.72916,-6.68107 16.96471,-19.208224 23.1417,-23.693234 15.59582,-11.323884 32.41257,-17.833975 51.42639,-19.908159 23.59401,-2.573826 48.0332,3.763489 68.86845,17.858258 7.79048,5.270153 20.50558,17.810015 26.10289,25.743135 7.90443,11.20302 14.19015,26.01009 17.06365,40.19629 1.79996,8.8862 1.95788,28.94531 0.29401,37.3467 -4.16217,21.01631 -13.46473,38.98318 -27.98017,54.04065 -2.77652,2.8802 -4.94091,5.31726 -4.80976,5.41569 0.13116,0.0984 2.36132,1.0486 4.95591,2.1115 6.74683,2.7639 20.20885,9.77233 27.32337,14.22475 35.47103,22.19852 64.08877,57.42028 78.20061,96.24673 0.91357,2.51351 1.85561,4.57002 2.09343,4.57002 0.77549,0 9.50162,-13.58369 14.49508,-22.56403 14.04095,-25.25151 22.84701,-52.95338 26.56849,-83.57848 1.43384,-11.79954 1.4295,-37.01339 -0.008,-48.94348 C 457.41759,169.4428 440.00763,129.14606 410.75088,94.65761 404.0268,86.731123 389.40949,72.384543 381.80727,66.250066 347.64271,38.68157 308.4133,22.187547 264.76658,17.040246 252.5418,15.598565 227.41254,15.59132 215.52826,17.02605 171.23158,22.373766 133.68627,38.020838 99.000425,65.589223 90.737838,72.156342 72.156342,90.737838 65.589223,99.000425 38.022006,133.6848 22.40439,171.15548 17.020933,215.52826 c -1.440254,11.8712 -1.440254,37.07228 0,48.94348 3.7192,30.65526 12.500762,58.2818 26.566826,83.57848 4.993392,8.98021 13.719588,22.56403 14.495051,22.56403 0.237809,0 1.029278,-1.65848 1.758814,-3.6855 z M 258.05348,262.14923 c 23.23863,-4.94853 42.2977,-17.81358 55.45354,-37.43165 5.71305,-8.51935 9.20156,-16.3275 11.87756,-26.5849 4.19593,-16.08353 3.59293,-34.42787 -1.65136,-50.23743 -8.50357,-25.63508 -29.88763,-47.03669 -55.51248,-55.558075 -22.49791,-7.481543 -46.99438,-5.731382 -67.86905,4.84892 -26.16107,13.259715 -43.9232,38.200055 -47.8802,67.230035 -0.8067,5.91833 -0.80637,17.29263 5.9e-4,23.20705 5.31188,38.92709 34.81975,68.97126 74.02383,75.36921 7.45821,1.21715 23.95153,0.77647 31.55747,-0.84316 z"
   id="path1297" /><path
   style="font-variation-settings:normal;opacity:1;vector-effect:none;fill:#666666;fill-opacity:0;stroke-width:0.999998;stroke-linecap:butt;stroke-linejoin:miter;stroke-miterlimit:4;stroke-dasharray:none;stroke-dashoffset:0;stroke-opacity:1;-inkscape-stroke:none;stop-color:#000000;stop-opacity:1"
   d="M 222.60442,479.04967 C 132.09264,471.86639 54.915719,416.45671 19.235007,333.03926 10.248356,312.02948 3.9503363,287.46006 1.3563921,263.29238 0.23315941,252.82727 0.4186603,224.75899 1.6818041,214.05405 7.8412122,161.8541 28.742519,116.1889 64.265531,77.321065 94.67191,44.05164 137.05078,18.813654 181.15501,7.7096085 202.17502,2.4174361 216.99138,0.63653254 240,0.63653254 c 23.03753,0 37.75148,1.77123056 58.96806,7.09843396 50.5985,12.7046165 97.288,43.2379815 129.73892,84.8448865 27.68489,35.496137 44.23542,76.018107 49.61415,121.474197 1.45273,12.27713 1.44796,39.4704 -0.009,51.8919 -6.49282,55.35179 -30.13999,104.43945 -69.04141,143.31859 -19.48047,19.46932 -38.70494,33.32681 -62.95957,45.38289 -38.10706,18.94159 -82.40609,27.67997 -123.70665,24.40224 z m 31.84275,-15.28633 c 47.79125,-3.34502 90.75363,-20.27535 127.47565,-50.23476 7.24457,-5.91043 19.15958,-17.25412 24.78916,-23.60053 l 3.52921,-3.97858 -1.76828,-5.79038 c -5.89404,-19.3006 -17.55852,-41.58433 -29.8442,-57.01413 -7.9015,-9.92363 -21.3017,-23.19739 -30.71716,-30.42736 -14.06209,-10.79801 -31.01018,-20.18105 -47.31432,-26.19481 l -6.03667,-2.22662 -6.9363,3.57337 c -12.27571,6.32408 -25.32901,10.07192 -39.86326,11.44548 -17.61335,1.66454 -38.18082,-2.58234 -55.35555,-11.43012 l -6.9066,-3.55802 -6.9509,2.5432 c -14.96166,5.47417 -34.21205,16.28086 -47.47636,26.65205 -27.39382,21.41887 -48.323016,51.66593 -59.142888,85.47383 l -2.210672,6.9075 3.549595,4.00159 c 9.355494,10.54678 24.724475,24.24304 37.193265,33.14524 41.1347,29.36847 93.70298,44.2325 143.98628,40.71305 z M 59.841624,366.92875 c 14.199207,-39.45266 42.698626,-74.6999 78.536186,-97.13125 7.11213,-4.4516 20.57395,-11.46017 27.32244,-14.22475 2.59459,-1.0629 4.81527,-2.0036 4.93484,-2.09044 0.11957,-0.0868 -2.34445,-2.89053 -5.4756,-6.23042 -14.50692,-15.47404 -23.15317,-32.34217 -27.29326,-53.24698 -1.66387,-8.40139 -1.50595,-28.4605 0.29401,-37.3467 2.87787,-14.20778 9.17821,-29.03817 17.07644,-40.19629 4.72916,-6.68107 16.96471,-19.208224 23.1417,-23.693234 15.59582,-11.323884 32.41257,-17.833975 51.42639,-19.908159 23.59401,-2.573826 48.0332,3.763489 68.86845,17.858258 7.79048,5.270153 20.50558,17.810015 26.10289,25.743135 7.90443,11.20302 14.19015,26.01009 17.06365,40.19629 1.79996,8.8862 1.95788,28.94531 0.29401,37.3467 -4.16217,21.01631 -13.46473,38.98318 -27.98017,54.04065 -2.77652,2.8802 -4.94091,5.31726 -4.80976,5.41569 0.13116,0.0984 2.36132,1.0486 4.95591,2.1115 6.74683,2.7639 20.20885,9.77233 27.32337,14.22475 35.47103,22.19852 64.08877,57.42028 78.20061,96.24673 0.91357,2.51351 1.85561,4.57002 2.09343,4.57002 0.77549,0 9.50162,-13.58369 14.49508,-22.56403 14.04095,-25.25151 22.84701,-52.95338 26.56849,-83.57848 1.43384,-11.79954 1.4295,-37.01339 -0.008,-48.94348 C 457.41759,169.4428 440.00763,129.14606 410.75088,94.65761 404.0268,86.731123 389.40949,72.384543 381.80727,66.250066 347.64271,38.68157 308.4133,22.187547 264.76658,17.040246 252.5418,15.598565 227.41254,15.59132 215.52826,17.02605 171.23158,22.373766 133.68627,38.020838 99.000425,65.589223 90.737838,72.156342 72.156342,90.737838 65.589223,99.000425 38.022006,133.6848 22.40439,171.15548 17.020933,215.52826 c -1.440254,11.8712 -1.440254,37.07228 0,48.94348 3.7192,30.65526 12.500762,58.2818 26.566826,83.57848 4.993392,8.98021 13.719588,22.56403 14.495051,22.56403 0.237809,0 1.029278,-1.65848 1.758814,-3.6855 z M 258.05348,262.14923 c 23.23863,-4.94853 42.2977,-17.81358 55.45354,-37.43165 5.71305,-8.51935 9.20156,-16.3275 11.87756,-26.5849 4.19593,-16.08353 3.59293,-34.42787 -1.65136,-50.23743 -8.50357,-25.63508 -29.88763,-47.03669 -55.51248,-55.558075 -22.49791,-7.481543 -46.99438,-5.731382 -67.86905,4.84892 -26.16107,13.259715 -43.9232,38.200055 -47.8802,67.230035 -0.8067,5.91833 -0.80637,17.29263 5.9e-4,23.20705 5.31188,38.92709 34.81975,68.97126 74.02383,75.36921 7.45821,1.21715 23.95153,0.77647 31.55747,-0.84316 z"
   id="path1299" /></svg>
