<?xml version="1.0" encoding="UTF-8" standalone="no"?>
<svg
   width="25"
   height="24"
   viewBox="0 0 25 24"
   fill="none"
   version="1.1"
   id="svg6705"
   sodipodi:docname="wizard_account_access_share.svg"
   inkscape:version="1.2.2 (b0a8486, 2022-12-01)"
   xmlns:inkscape="http://www.inkscape.org/namespaces/inkscape"
   xmlns:sodipodi="http://sodipodi.sourceforge.net/DTD/sodipodi-0.dtd"
   xmlns="http://www.w3.org/2000/svg"
   xmlns:svg="http://www.w3.org/2000/svg">
  <defs
     id="defs6709" />
  <sodipodi:namedview
     id="namedview6707"
     pagecolor="#c6c6c6"
     bordercolor="#000000"
     borderopacity="0.25"
     inkscape:showpageshadow="2"
     inkscape:pageopacity="0"
     inkscape:pagecheckerboard="0"
     inkscape:deskcolor="#d1d1d1"
     showgrid="false"
     inkscape:zoom="33.916667"
     inkscape:cx="10.555283"
     inkscape:cy="12"
     inkscape:window-width="1741"
     inkscape:window-height="936"
     inkscape:window-x="0"
     inkscape:window-y="25"
     inkscape:window-maximized="0"
     inkscape:current-layer="share-2" />
  <g
     id="share-2">
    <path
       id="Vector"
       d="M18.875 8C20.5319 8 21.875 6.65685 21.875 5C21.875 3.34315 20.5319 2 18.875 2C17.2181 2 15.875 3.34315 15.875 5C15.875 6.65685 17.2181 8 18.875 8Z"
       stroke="#663399"
       stroke-width="2"
       stroke-linecap="round"
       stroke-linejoin="round"
       style="stroke:#ffffff;stroke-opacity:1" />
    <path
       id="Vector_2"
       d="M6.875 15C8.53185 15 9.875 13.6569 9.875 12C9.875 10.3431 8.53185 9 6.875 9C5.21815 9 3.875 10.3431 3.875 12C3.875 13.6569 5.21815 15 6.875 15Z"
       stroke="#663399"
       stroke-width="2"
       stroke-linecap="round"
       stroke-linejoin="round"
       style="stroke:#ffffff;stroke-opacity:1" />
    <path
       id="Vector_3"
       d="M18.875 22C20.5319 22 21.875 20.6569 21.875 19C21.875 17.3431 20.5319 16 18.875 16C17.2181 16 15.875 17.3431 15.875 19C15.875 20.6569 17.2181 22 18.875 22Z"
       stroke="#663399"
       stroke-width="2"
       stroke-linecap="round"
       stroke-linejoin="round"
       style="stroke:#ffffff;stroke-opacity:1" />
    <path
       id="Vector_4"
       d="M9.46484 13.51L16.2948 17.49"
       stroke="#663399"
       stroke-width="2"
       stroke-linecap="round"
       stroke-linejoin="round"
       style="stroke:#ffffff;stroke-opacity:1" />
    <path
       id="Vector_5"
       d="M16.2848 6.51001L9.46484 10.49"
       stroke="#663399"
       stroke-width="2"
       stroke-linecap="round"
       stroke-linejoin="round"
       style="stroke:#ffffff;stroke-opacity:1" />
  </g>
</svg>
