<svg width="25" height="24" viewBox="0 0 25 24" fill="none" xmlns="http://www.w3.org/2000/svg">
<g id="target">
<path id="Vector" d="M12.875 22C18.3978 22 22.875 17.5228 22.875 12C22.875 6.47715 18.3978 2 12.875 2C7.35215 2 2.875 6.47715 2.875 12C2.875 17.5228 7.35215 22 12.875 22Z" stroke="white" stroke-width="2" stroke-linecap="round" stroke-linejoin="round"/>
<path id="Vector_2" d="M12.875 18C16.1887 18 18.875 15.3137 18.875 12C18.875 8.68629 16.1887 6 12.875 6C9.56129 6 6.875 8.68629 6.875 12C6.875 15.3137 9.56129 18 12.875 18Z" stroke="white" stroke-width="2" stroke-linecap="round" stroke-linejoin="round"/>
<path id="Vector_3" d="M12.875 14C13.9796 14 14.875 13.1046 14.875 12C14.875 10.8954 13.9796 10 12.875 10C11.7704 10 10.875 10.8954 10.875 12C10.875 13.1046 11.7704 14 12.875 14Z" stroke="white" stroke-width="2" stroke-linecap="round" stroke-linejoin="round"/>
</g>
</svg>
