<?xml version="1.0" encoding="UTF-8" standalone="no"?>
<svg
   width="177"
   height="161"
   viewBox="0 0 177 161"
   fill="none"
   version="1.1"
   id="svg88"
   sodipodi:docname="fav_logo.svg"
   inkscape:version="1.2.2 (b0a8486, 2022-12-01)"
   xmlns:inkscape="http://www.inkscape.org/namespaces/inkscape"
   xmlns:sodipodi="http://sodipodi.sourceforge.net/DTD/sodipodi-0.dtd"
   xmlns="http://www.w3.org/2000/svg"
   xmlns:svg="http://www.w3.org/2000/svg">
  <sodipodi:namedview
     id="namedview90"
     pagecolor="#ffffff"
     bordercolor="#000000"
     borderopacity="0.25"
     inkscape:showpageshadow="2"
     inkscape:pageopacity="0.0"
     inkscape:pagecheckerboard="0"
     inkscape:deskcolor="#d1d1d1"
     showgrid="false"
     inkscape:zoom="2.5217391"
     inkscape:cx="76.931035"
     inkscape:cy="79.310346"
     inkscape:window-width="1390"
     inkscape:window-height="934"
     inkscape:window-x="2115"
     inkscape:window-y="25"
     inkscape:window-maximized="0"
     inkscape:current-layer="g81" />
  <g
     clip-path="url(#clip0_38_863)"
     id="g81"
     transform="translate(0.39655172,0.19827587)">
    <path
       d="M 73.492979,7.9200344 C 178.17438,-8.7237956 204.03038,144.49703 94.554879,156.09703 -5.4934206,166.69703 -28.130121,24.078534 73.492979,7.9200344 Z"
       fill="#ffca62"
       id="path29" />
    <path
       d="m 96.313079,155.88703 c -0.5815,0.069 -1.1716,0.139 -1.7602,0.201 -100.0443996,10.606 -122.6788,-132.016996 -21.0611,-148.1731956 3.3663,-0.5349 6.6489,-0.8967 9.8478,-1.0854 -0.7684,0.1163 -1.5353,0.2404 -2.3193,0.3722 -7.9473,1.3229 -15.6542,3.8178996 -22.8686,7.4035996 -1.5663,0.7907 -3.0862,1.628 -4.5447,2.5118 -8.653,5.136 -16.0067,12.1954 -21.4907,20.6309 -12.2369,18.8464 -14.0979,42.7473 -9.0034,62.989096 2.649,10.592 7.4095,20.541 13.9963,29.25 12.2516,16.015 31.6991,27.815 59.2039,25.9 z"
       fill="#ffae5d"
       id="path31" />
    <path
       d="m 118.59038,139.44403 c -0.132,0.062 -0.264,0.125 -0.396,0.179 -8.321,3.66 -17.1747,5.966 -26.224601,6.83 -43.3916,4.597 -66.786,-22.785 -73.6329,-47.623996 -6.91675,-25.0869 -0.3808,-56.6163 29.0549,-72.7105 1.3872,-0.7675 2.8372,-1.4963 4.3346,-2.1862 6.9317,-3.1308 14.2603,-5.2958 21.7807,-6.4346 44.664301,-7.1013 69.555301,20.141 77.301301,45.6234 7.886,25.9632 1.169,60.918896 -32.218,76.322896 z"
       fill="#ffae5d"
       id="path33" />
    <path
       d="m 118.19438,139.62303 c -8.321,3.66 -17.1747,5.966 -26.224601,6.83 -43.3916,4.597 -66.786,-22.785 -73.6329,-47.623996 -6.91675,-25.0866 -0.3808,-56.616 29.0549,-72.7102 6.8363,-3.0578 14.0554,-5.1754 21.4604,-6.295 44.664201,-7.1013 67.771201,19.0223 75.750201,45.6234 7.73,25.7554 3.291,57.856796 -26.408,74.175796 z"
       fill="#ffca62"
       id="path35" />
    <path
       d="m 82.536779,147.74403 c -37.811,0 -58.5371,-25.45 -64.9475,-48.703996 -3.69556,-13.1876 -3.37891,-27.1769 0.9096,-40.1841 4.8936,-14.3328 14.7562,-25.8864 28.5214,-33.4133 1.3678,-0.7566 2.8434,-1.5008 4.3819,-2.2102 6.9965,-3.1605 14.3937,-5.3464 21.9846,-6.4966 45.152601,-7.1779996 70.330601,20.3821 78.162601,46.1638 7.979,26.2725 1.17,61.652396 -32.632,77.251396 -0.142,0.067 -0.286,0.133 -0.428,0.192 -8.39,3.689 -17.3169,6.013 -26.441401,6.884 -3.1591,0.34 -6.3339,0.512 -9.5112,0.517 z m 4.9363,-130.611996 c -4.6373,0.0138 -9.2662,0.3939 -13.8436,1.1365 -7.4505,1.1272 -14.711,3.2714 -21.5783,6.3725 -1.5043,0.6939 -2.9466,1.4211 -4.2834,2.1607 -13.4209,7.3392 -23.0361,18.5959 -27.8011,32.555 -4.18899,12.7125 -4.49592,26.3843 -0.8816,39.2723 6.2591,22.706996 26.5231,47.558996 63.4865,47.561996 3.1126,-0.004 6.2227,-0.172 9.3175,-0.504 8.966901,-0.857 17.739301,-3.14 25.985301,-6.763 0.145,-0.061 0.266,-0.117 0.388,-0.174 h 0.006 c 32.964,-15.208 39.592,-49.742296 31.802,-75.393796 -6.818,-22.4241 -27.074,-46.2242 -62.597301,-46.2242 z"
       fill="#670a39"
       id="path37" />
    <path
       d="m 109.84438,112.17503 c -0.208,0.42 -0.42,0.83 -0.649,1.233 -3.6342,6.521 -9.520201,11.495 -16.556801,13.99 -4.6593,1.667 -9.5811,2.48 -14.529,2.399 -19.5863,-0.102 -30.8546,-24.265 -26.4681,-29.087 4.0322,-4.413796 9.9362,6.304 22.8144,5.664 20.6858,-1.026 27.241901,-14.771196 34.350501,-9.002996 3.771,3.055996 2.939,10.945996 1.038,14.803996 z"
       fill="#670a39"
       id="path39" />
    <path
       d="m 78.379279,130.56903 h -0.2753 c -12.3857,-0.065 -22.132,-9.66 -26.2975,-19.14 -2.203,-5.016 -2.486,-9.324 -0.7398,-11.242 2.3472,-2.569996 5.2364,-0.914996 8.5824,1 3.6855,2.11 8.2706,4.734 14.767,4.413 10.3565,-0.515 17.2143,-4.328 22.215,-7.112996 5.090601,-2.8317 8.768401,-4.8799 12.664301,-1.718 4.284,3.472996 3.107,11.968996 1.24,15.748996 -0.214,0.432 -0.434,0.853 -0.67,1.27 -3.7173,6.686 -9.7496,11.784 -16.962501,14.336 -4.6588,1.666 -9.576,2.494 -14.5236,2.445 z m -24.4528,-30.152 c -0.3279,0 -0.6516,0.073 -0.948,0.213 -0.2963,0.14 -0.5578,0.344 -0.7657,0.598 -1.2872,1.415 -0.8801,5.264 1.0142,9.576 3.9632,9.022 13.1953,18.152 24.8855,18.213 4.8549,0.078 9.6842,-0.718 14.2569,-2.351 6.8649,-2.427 12.606601,-7.277 16.146001,-13.639 0.225,-0.399 0.432,-0.795 0.632,-1.201 1.849,-3.752 2.461,-11.193 -0.829,-13.859996 -2.9468,-2.3944 -5.6305,-1.081 -10.933601,1.869 -5.1379,2.858996 -12.1741,6.774996 -22.8927,7.305996 -6.9462,0.351 -11.9569,-2.522 -15.6146,-4.615 -2.2456,-1.283 -3.767,-2.109 -4.951,-2.109 z"
       fill="#670a39"
       id="path41" />
    <path
       d="m 109.19538,113.40803 c -3.6346,6.521 -9.520601,11.495 -16.557201,13.991 -4.6052,-2.208 -6.9462,-7.438 -6.7174,-11.887 0.3745,-7.25 6.8174,-8.122 8.8979,-6.589 0.7281,-2.074 5.660501,-5.359 10.586801,-1.913 1.5869,1.104 3.4889,4.305 3.7899,6.398 z"
       fill="#ec4949"
       id="path43" />
    <path
       d="m 92.637779,128.17103 c -0.1163,0 -0.231,-0.027 -0.3358,-0.077 -5.234,-2.509 -7.3789,-8.303 -7.1563,-12.625 0.2411,-4.67 2.8055,-6.565 4.3121,-7.279 1.5689,-0.771 3.3795,-0.89 5.0356,-0.329 0.9724,-1.306 2.3377,-2.266 3.8957,-2.739 1.2536,-0.396 2.582901,-0.489 3.879501,-0.273 1.2965,0.217 2.5235,0.737 3.5807,1.518 1.7831,1.244 3.7811,4.611 4.1101,6.927 0.023,0.167 -0.008,0.336 -0.089,0.484 -3.7177,6.689 -9.7519,11.789 -16.967401,14.342 -0.0848,0.033 -0.1745,0.05 -0.2652,0.051 z m -0.1551,-19.115 c -0.8171,0.004 -1.6234,0.187 -2.3619,0.536 -2.0619,0.977 -3.2793,3.093 -3.4266,5.958 -0.1931,3.743 1.6043,8.727 5.9862,11.002 6.6438,-2.427 12.208901,-7.135 15.702001,-13.284 -0.377,-1.876 -2.0663,-4.682 -3.4225,-5.628 -0.8578,-0.651 -1.8599,-1.085 -2.9213,-1.266 -1.0614,-0.181 -2.150701,-0.103 -3.175801,0.226 -1.7005,0.547 -3.0202,1.737 -3.3141,2.574 -0.0402,0.114 -0.1066,0.217 -0.1939,0.302 -0.0874,0.084 -0.1932,0.146 -0.309,0.182 -0.1158,0.035 -0.2384,0.043 -0.3579,0.023 -0.1195,-0.02 -0.2326,-0.068 -0.3303,-0.14 -0.5613,-0.347 -1.2147,-0.516 -1.8741,-0.485 z"
       fill="#670a39"
       id="path45" />
    <path
       d="m 94.822079,108.91503 c -0.8703,1.588 -1.3253,3.369 -1.3229,5.18 z"
       fill="#ec4949"
       id="path47" />
    <path
       d="m 93.499279,114.87003 c -0.2057,0 -0.4029,-0.081 -0.5483,-0.227 -0.1455,-0.145 -0.2272,-0.342 -0.2272,-0.548 -0.0041,-1.942 0.4841,-3.853 1.4191,-5.555 0.048,-0.091 0.1137,-0.172 0.1933,-0.237 0.0795,-0.066 0.1713,-0.115 0.2699,-0.144 0.0986,-0.03 0.2022,-0.039 0.3045,-0.028 0.1024,0.011 0.2016,0.042 0.2918,0.091 0.0902,0.05 0.1696,0.117 0.2336,0.198 0.064,0.08 0.1113,0.173 0.1392,0.272 0.0278,0.099 0.0356,0.203 0.0229,0.305 -0.0126,0.102 -0.0455,0.201 -0.0967,0.29 -0.8088,1.473 -1.2309,3.126 -1.2267,4.807 0,0.205 -0.0817,0.402 -0.2271,0.548 -0.1454,0.145 -0.3427,0.227 -0.5483,0.227 z"
       fill="#670a39"
       id="path49" />
    <path
       d="m 32.349479,58.532034 c -0.1459,-2e-4 -0.2889,-0.0416 -0.4124,-0.1195 -0.1234,-0.0779 -0.2224,-0.189 -0.2855,-0.3206 -0.0631,-0.1316 -0.0878,-0.2783 -0.0712,-0.4233 0.0166,-0.145 0.0739,-0.2824 0.1651,-0.3963 2.5318,-3.1571 5.7597,-5.6857 9.4314,-7.3882 6.2809,-2.8963 12.9037,-2.98 18.6573,-0.2325 0.0988,0.0392 0.1885,0.0982 0.2635,0.1736 0.075,0.0753 0.1337,0.1652 0.1725,0.2641 0.0388,0.099 0.0568,0.2048 0.0529,0.311 -0.0038,0.1062 -0.0295,0.2105 -0.0754,0.3064 -0.0458,0.0958 -0.1109,0.1813 -0.1912,0.2509 -0.0803,0.0697 -0.174,0.1221 -0.2754,0.154 -0.1014,0.0319 -0.2083,0.0427 -0.314,0.0315 -0.1057,-0.0111 -0.208,-0.0438 -0.3005,-0.0961 -5.3295,-2.5428 -11.4878,-2.456 -17.3399,0.2442 -3.4535,1.6018 -6.4895,3.9805 -8.8708,6.9501 -0.0727,0.0909 -0.165,0.1642 -0.27,0.2145 -0.105,0.0504 -0.2199,0.0764 -0.3364,0.0762 z"
       fill="#670a39"
       id="path51" />
    <path
       d="m 82.538679,46.946534 c -0.1555,1e-4 -0.3075,-0.0466 -0.4362,-0.1341 -0.1287,-0.0874 -0.2281,-0.2115 -0.2853,-0.3561 -0.0572,-0.1447 -0.0696,-0.3032 -0.0355,-0.4549 0.0341,-0.1518 0.1131,-0.2898 0.2266,-0.3961 8.6545,-8.1169 20.703701,-9.6775 29.292101,-3.7941 0.086,0.057 0.159,0.1303 0.216,0.2157 0.056,0.0855 0.096,0.1813 0.115,0.2821 0.02,0.1007 0.019,0.2043 -0.002,0.3048 -0.021,0.1004 -0.061,0.1958 -0.119,0.2804 -0.058,0.0847 -0.133,0.157 -0.219,0.2127 -0.086,0.0558 -0.182,0.0939 -0.283,0.1122 -0.101,0.0182 -0.205,0.0162 -0.305,-0.0059 -0.1,-0.022 -0.195,-0.0638 -0.279,-0.1228 -7.9869,-5.4686 -19.235101,-3.9693 -27.355301,3.6437 -0.1433,0.1357 -0.333,0.2116 -0.5304,0.2124 z"
       fill="#670a39"
       id="path53" />
    <path
       d="m 53.310079,97.889034 c -5.4496,0.752 -10.8225,-2.0975 -14.4949,-7.1048 -2.2734,-3.1318 -3.7777,-6.7545 -4.3912,-10.5752 -0.2806,-1.6509 -0.4062,-3.3245 -0.3753,-4.9988 0.2753,-17.1067 17.6671,-25.2724 28.005,-10.4558 l 0.0054,0.0108 c 9.402,13.4599 2.7094,32.0508 -8.749,33.1238 z"
       fill="#fff8ea"
       id="path55" />
    <path
       d="m 55.746692,75.793026 c -1.157708,-4.923346 0.178205,-9.510187 2.993406,-10.253919 0.624445,-0.157782 1.278418,-0.126313 1.88654,0.09101 0.06363,0.08498 0.131418,0.177627 0.199935,0.271923 2.363658,3.433909 3.927682,7.406072 4.565539,11.595335 0.156372,1.004143 0.263877,1.989426 0.322516,2.955631 -0.202534,0.683974 -0.558632,1.306437 -1.038143,1.81432 -0.479406,0.507883 -1.068086,0.886273 -1.715924,1.102934 -2.822479,0.732767 -6.04566,-2.659695 -7.213869,-7.57723 z"
       fill="#670a39"
       id="path57"
       inkscape:transform-center-x="7.0090262"
       inkscape:transform-center-y="1.7392221"
       style="stroke-width:1.0677" />
    <path
       d="m 59.438159,64.270237 c 0.502406,0.0017 1.001286,0.08346 1.478212,0.242023 0.162995,0.05316 0.307108,0.152966 0.414596,0.287182 0.0679,0.0886 0.141042,0.177203 0.214292,0.277351 2.679004,3.702383 4.452835,7.986446 5.178178,12.505673 0.176416,1.072359 0.297212,2.138659 0.364207,3.170319 0.008,0.130443 -0.01252,0.261116 -0.05994,0.382871 -0.27162,0.844512 -0.742176,1.610711 -1.371862,2.233205 -0.62957,0.622494 -1.3995,1.082991 -2.244274,1.34205 -3.609994,0.895156 -7.54541,-2.85913 -8.961858,-8.54389 -1.403256,-5.69002 0.316548,-10.858036 3.916874,-11.764626 0.350672,-0.087 0.710442,-0.131243 1.071578,-0.132158 z m 0.686216,1.85685 c -0.438482,-0.109865 -0.896868,-0.111694 -1.33626,-0.0054 -2.54797,0.6417 -3.754562,5.046604 -2.627364,9.616362 1.127086,4.569759 4.263452,7.888014 6.823024,7.253401 0.5396,-0.18269 1.03029,-0.487478 1.434079,-0.890813 0.403904,-0.403335 0.710215,-0.894584 0.895276,-1.435681 -0.06529,-0.911922 -0.176416,-1.849607 -0.329856,-2.792666 -0.675296,-4.228616 -2.329583,-8.238759 -4.829781,-11.70712 z"
       fill="#670a39"
       id="path59"
       style="stroke-width:1.14034" />
    <path
       d="m 51.598979,98.782034 c -4.8665,0 -9.6982,-2.631 -13.2108,-7.2809 -0.045,-0.0558 -0.1093,-0.1396 -0.1737,-0.2241 -2.3553,-3.2384 -3.9148,-6.9858 -4.5525,-10.9387 -0.1551,-0.9381 -0.2613,-1.8707 -0.3202,-2.7731 -0.0582,-0.752 -0.0776,-1.5505 -0.0659,-2.3676 0.1411,-8.8317 4.9386,-16.2027 11.9414,-18.3424 6.3328,-1.9382 12.8657,0.8527 17.474,7.4571 0.0109,0.0147 0.0202,0.0295 0.0295,0.0442 2.4978,3.6039 4.0272,7.7892 4.4415,12.1542 0.4143,4.3649 -0.3005,8.7631 -2.0757,12.7724 -2.548,5.4973 -6.8066,8.9149 -11.6863,9.3809 -0.5971,0.08 -1.1989,0.119 -1.8013,0.118 z m -2.4325,-40.9733 c -1.1858,0.0015 -2.3647,0.1797 -3.4979,0.5287 -6.3584,1.9382 -10.7124,8.7278 -10.8419,16.8865 -0.0139,0.7683 0.007,1.5188 0.062,2.2312 0.0559,0.8621 0.1551,1.7435 0.3032,2.6297 0.5937,3.6988 2.0481,7.2064 4.2462,10.2402 l 0.1729,0.2225 c 3.6212,4.7942 8.6948,7.2435 13.5931,6.5755 h 0.0326 c 4.3229,-0.405 8.1279,-3.4985 10.4402,-8.488 1.6668,-3.769 2.3349,-7.9036 1.9401,-12.0056 -0.3948,-4.102 -1.8392,-8.0334 -4.1942,-11.4155 -0.0101,-0.0147 -0.0194,-0.0294 -0.0287,-0.045 -3.3382,-4.7693 -7.7317,-7.3602 -12.2276,-7.3602 z"
       fill="#670a39"
       id="path61" />
    <path
       d="m 100.30778,92.617334 c -5.092901,0.262 -9.856301,-2.425 -13.232501,-6.8905 -2.8487,-3.8872 -4.535,-8.5032 -4.8626,-13.311 -0.0992,-1.2462 -0.1168,-2.4975 -0.0527,-3.746 0.9126,-18.9704 20.640801,-26.7663 30.347401,-9.8666 l -0.006,0.0155 c 8.578,14.9375 -0.121,33.7544 -12.1936,33.7986 z"
       fill="#fff8ea"
       id="path63" />
    <path
       d="m 99.626379,93.406134 c -4.91,0 -9.6757,-2.5994 -13.1744,-7.2176 -0.2636,-0.3411 -0.5087,-0.6977 -0.7591,-1.0659 -2.4754,-3.7811 -3.9392,-8.1338 -4.2516,-12.642 l -0.0055,-0.0775 c -0.1002,-1.2547 -0.1176,-2.5147 -0.0519,-3.7716 0.4722,-9.7821 6.0428,-17.6253 13.8613,-19.5092 6.926901,-1.6668 13.631201,1.8094 17.934201,9.303 0.024,0.0419 0.044,0.0857 0.06,0.131 2.256,3.9889 3.451,8.4895 3.471,13.0717 0.02,4.5822 -1.136,9.093 -3.356,13.1015 -3.161,5.481 -7.9093,8.6379 -13.0201,8.6642 -0.2326,0.0062 -0.472201,0.0124 -0.707901,0.0124 z m -1.0081,-43.1434 c -1.0132,0.0015 -2.0226,0.1233 -3.0071,0.3628 -5.9443,1.4319 -12.1694,7.5789 -12.6765,18.0843 -0.0616,1.1838 -0.0458,2.3704 0.0473,3.5522 l 0.0062,0.0775 c 0.2896,4.2471 1.664,8.3489 3.9919,11.9133 0.2326,0.3372 0.4575,0.6698 0.7064,0.9923 3.3591,4.4336 7.9472,6.8291 12.587301,6.5896 h 0.038 c 4.5548,-0.0163 8.8196,-2.8917 11.7006,-7.8882 2.099,-3.7922 3.184,-8.0611 3.153,-12.3949 -0.032,-4.3338 -1.181,-8.5862 -3.335,-12.3472 -0.023,-0.0405 -0.042,-0.0831 -0.058,-0.1271 -3.302,-5.6756 -8.065,-8.8146 -13.156401,-8.8146 z"
       fill="#670a39"
       id="path65" />
    <path
       d="m 104.00021,66.82888 c -1.21263,-5.290764 0.46521,-10.160501 3.74817,-10.879664 0.62757,-0.112267 1.2725,-0.09529 1.89308,0.04984 0.62047,0.145124 1.2026,0.415112 1.70896,0.792437 2.70275,4.020783 4.30144,8.646273 4.6442,13.436493 0,0.04074 0,0.06955 0.009,0.110294 -0.55699,2.520246 -1.92871,4.370508 -3.84694,4.790768 -3.29085,0.70821 -6.94273,-3.008413 -8.15626,-8.300163 z"
       fill="#670a39"
       id="path67"
       style="stroke-width:1.11128" />
    <path
       d="m 108.53524,55.416773 c 1.11461,0.02915 2.19391,0.405714 3.09361,1.079249 0.0862,0.06082 0.16039,0.137786 0.21843,0.226769 2.63897,4.126919 4.19951,8.87704 4.53251,13.79672 l 0.005,0.08462 c 0.006,0.08887 0.001,0.178074 -0.0134,0.265854 -0.62216,2.962399 -2.17768,4.941407 -4.26937,5.423876 -3.61648,0.817544 -7.43985,-3.097127 -8.70662,-8.915362 -1.26507,-5.815835 0.56766,-11.022987 4.17259,-11.855926 0.31724,-0.07184 0.64139,-0.107324 0.96631,-0.105795 z m 2.02712,2.386142 c -0.37526,-0.277646 -0.8009,-0.4757 -1.25194,-0.582806 -0.45113,-0.107216 -0.91861,-0.121082 -1.37496,-0.04105 -2.61464,0.60355 -3.95248,5.108125 -2.92408,9.836302 1.03011,4.729814 4.11135,8.222939 6.73006,7.631289 1.38756,-0.319899 2.4995,-1.815565 2.98768,-4.011187 -0.31179,-4.5679 -1.74493,-8.981636 -4.16676,-12.832546 z"
       fill="#670a39"
       id="path69"
       style="stroke-width:1.07934" />
    <path
       d="m 116.39938,115.35303 c -9.8699,-0.8 -19.792901,-8.855 -18.876401,-21.217396 0.9065,-12.2335 11.926401,-19.8968 22.840401,-20.0015 z"
       fill="#ffca62"
       id="path71" />
    <path
       d="m 52.006279,123.37803 c 11.8956,-4.907 15.7665,-22.361 3.6816,-30.175796 -8.4249,-5.4485 -16.9266,-2.9057 -22.636,1.7923 z"
       fill="#ffca62"
       id="path73" />
    <path
       d="m 84.117979,157.43003 c -19.442,0 -36.7075,-6.002 -50.4022,-17.617 -14.3747,-12.184 -23.70758,-29.605 -26.2827456,-49.050496 -2.517004,-19.0022 1.808276,-37.6175 12.1794456,-52.4154 11.6848,-16.6749 30.2739,-27.4625 53.7582,-31.1968996 31.309801,-4.97785 58.233701,4.6452996 75.802701,27.0980996 17.499,22.359 21.854,53.2139 11.097,78.610696 -10.599,25.018 -33.908,40.648 -65.633901,44.009 -3.4938,0.372 -7.0049,0.56 -10.5185,0.562 z m -10.6255,-149.5137956 0.1217,0.7659 c -23.0625,3.6661996 -41.2941,14.2320996 -52.7323,30.5548996 -10.14712,14.4794 -14.3739186,32.7024 -11.9119696,51.3216 2.5255396,19.064396 11.6684696,36.136396 25.7438696,48.073396 15.7898,13.388 36.454,19.158 59.7568,16.689 42.015801,-4.451 58.363801,-28.896 64.368801,-43.071 10.541,-24.881596 6.267,-55.124796 -10.89,-77.046596 -17.206,-21.9884 -43.6054,-31.4084496 -74.335201,-26.5243996 z"
       fill="#670a39"
       id="path75" />
    <path
       d="m 116.39738,116.13103 c -0.021,0 -0.042,0 -0.063,0 -10.3693,-0.841 -20.530401,-9.317 -19.586701,-22.047096 0.2198,-2.926 1.0389,-5.7757 2.4064,-8.372 1.367601,-2.5963 3.254301,-4.8838 5.543201,-6.7205 4.4441,-3.5718 9.9561,-5.5539 15.6571,-5.6307 0.206,-0.0019 0.404,0.0779 0.551,0.2219 0.146,0.144 0.23,0.3404 0.232,0.546 0.002,0.2056 -0.078,0.4036 -0.222,0.5503 -0.144,0.1468 -0.34,0.2304 -0.546,0.2323 -13.42,0.1264 -21.389201,10.0286 -22.075501,19.2813 -0.8723,11.769496 8.551501,19.607496 18.165501,20.389496 0.206,0.008 0.4,0.097 0.539,0.249 0.14,0.151 0.214,0.351 0.206,0.557 -0.009,0.205 -0.098,0.399 -0.249,0.539 -0.152,0.139 -0.352,0.213 -0.558,0.205 z"
       fill="#670a39"
       id="path77" />
    <path
       d="m 52.006979,124.15803 c -0.1797,0 -0.354,-0.062 -0.493,-0.176 -0.139,-0.114 -0.2342,-0.272 -0.2691,-0.448 -0.035,-0.177 -0.0077,-0.36 0.0773,-0.518 0.085,-0.158 0.2224,-0.282 0.3886,-0.35 2.8974,-1.249 5.4033,-3.257 7.2524,-5.813 1.849,-2.556 2.9725,-5.564 3.2514,-8.706 0.3057,-2.794 -0.1843,-5.617 -1.4135,-8.145 -1.2292,-2.527996 -3.1476,-4.656896 -5.5342,-6.142396 -6.8733,-4.446 -14.9943,-3.7941 -21.7218,1.7405 -0.1591,0.1276 -0.3621,0.1874 -0.565,0.1665 -0.2029,-0.021 -0.3893,-0.121 -0.519,-0.2785 -0.1296,-0.1574 -0.192,-0.3596 -0.1736,-0.5627 0.0185,-0.2031 0.1162,-0.3908 0.272,-0.5223 7.2758,-5.9865 16.0799,-6.6757 23.5503,-1.8451 2.6276,1.6356 4.7396,3.98 6.093,6.763 1.3533,2.782996 1.8928,5.891996 1.5565,8.967996 -0.306,3.424 -1.5323,6.702 -3.5491,9.486 -2.0169,2.784 -4.7492,4.971 -7.9077,6.329 -0.0941,0.037 -0.1945,0.055 -0.2955,0.054 z"
       fill="#670a39"
       id="path79" />
  </g>
  <defs
     id="defs86">
    <clipPath
       id="clip0_38_863">
      <rect
         width="177"
         height="161"
         fill="white"
         id="rect83" />
    </clipPath>
  </defs>
</svg>
