<?xml version="1.0" standalone="no"?>
<!DOCTYPE svg PUBLIC "-//W3C//DTD SVG 20010904//EN"
 "http://www.w3.org/TR/2001/REC-SVG-20010904/DTD/svg10.dtd">
<svg version="1.0" xmlns="http://www.w3.org/2000/svg"
 width="512.000000pt" height="512.000000pt" viewBox="0 0 512.000000 512.000000"
 preserveAspectRatio="xMidYMid meet">
<metadata>
Created by potrace 1.14, written by Peter Selinger 2001-2017
</metadata>
<g transform="translate(0.000000,512.000000) scale(0.100000,-0.100000)"
fill="#000000" stroke="none">
<path d="M2690 4873 c-331 -31 -600 -95 -870 -205 -112 -46 -531 -263 -745
-386 -387 -222 -654 -498 -838 -867 -151 -302 -217 -594 -217 -953 0 -280 32
-486 115 -740 107 -326 295 -630 537 -869 217 -215 430 -356 702 -463 253
-101 495 -148 796 -157 471 -13 930 81 1305 267 139 69 537 282 670 359 444
255 775 697 909 1213 60 228 69 316 64 607 -4 228 -8 271 -32 390 -125 617
-448 1116 -937 1451 -48 33 -89 60 -92 60 -2 0 -37 18 -78 41 -313 172 -694
261 -1099 257 -85 -1 -171 -3 -190 -5z m269 -37 c-2 -2 -98 -53 -214 -114
l-210 -110 -205 -5 c-226 -7 -407 -30 -609 -78 -68 -16 -126 -27 -129 -25 -8
9 284 146 387 181 203 69 465 125 676 143 103 10 312 15 304 8z m388 -37 c125
-24 249 -57 348 -94 98 -36 306 -137 303 -147 -2 -5 -104 -62 -228 -127 l-225
-119 -90 48 c-200 107 -470 192 -716 227 -66 9 -114 20 -107 24 7 4 103 55
213 114 l200 106 97 -5 c54 -3 146 -15 205 -27z m-607 -254 c657 -100 1180
-452 1520 -1022 238 -400 353 -906 309 -1359 -79 -814 -569 -1445 -1343 -1729
-424 -156 -963 -205 -1416 -129 -310 52 -640 195 -897 388 -787 590 -1079
1720 -678 2625 170 384 469 708 854 926 288 162 691 280 1081 315 132 12 444
4 570 -15z m1404 -72 c217 -151 401 -338 545 -552 66 -98 155 -250 150 -255
-10 -9 -463 -246 -470 -246 -4 0 -10 9 -14 19 -12 39 -120 209 -204 321 -134
181 -353 388 -539 510 -22 14 -15 19 205 137 125 67 232 122 237 123 4 0 45
-25 90 -57z m774 -980 c92 -230 143 -450 163 -693 6 -77 10 -142 8 -144 -7 -7
-457 -246 -462 -246 -3 0 -8 39 -12 88 -22 296 -80 540 -186 786 -21 50 -37
91 -36 92 9 10 454 244 463 244 6 0 34 -57 62 -127z m167 -995 c-14 -211 -62
-431 -135 -624 -66 -178 -33 -148 -377 -330 l-142 -75 30 73 c80 194 132 422
152 666 l12 153 225 119 c124 66 229 120 234 120 4 0 5 -46 1 -102z m-290
-943 c-192 -309 -442 -541 -770 -715 l-100 -53 67 62 c127 117 262 293 368
475 l46 81 214 116 c118 64 217 114 219 113 2 -2 -18 -37 -44 -79z"/>
<path d="M2151 4319 c-809 -72 -1411 -436 -1709 -1034 -214 -430 -247 -976
-86 -1463 44 -133 153 -358 232 -477 308 -463 769 -746 1335 -820 148 -19 403
-19 572 0 847 95 1449 526 1683 1206 75 218 102 388 102 640 0 416 -111 786
-338 1125 -304 452 -752 734 -1285 809 -136 19 -377 26 -506 14z m367 -39
c470 -42 845 -212 1158 -525 283 -282 461 -629 541 -1050 24 -128 29 -465 9
-605 -33 -224 -90 -406 -187 -589 -278 -531 -820 -862 -1549 -947 -263 -30
-570 -12 -805 47 -434 110 -804 372 -1056 748 -430 639 -446 1491 -41 2096
249 372 643 632 1144 755 270 66 551 91 786 70z"/>
<path d="M2595 3664 c-174 -42 -285 -96 -382 -187 -32 -30 -35 -47 -8 -47 7 0
35 18 61 40 27 22 84 58 126 80 192 100 396 105 566 15 65 -34 82 -36 82 -10
0 16 -98 69 -169 92 -46 14 -238 26 -276 17z"/>
<path d="M1155 3384 c-139 -31 -311 -132 -391 -229 -33 -41 -38 -65 -12 -65 6
0 28 20 50 45 50 57 146 126 230 165 142 66 306 76 443 26 71 -26 101 -22 75
9 -40 49 -269 77 -395 49z"/>
<path d="M2575 3356 c-87 -21 -147 -57 -220 -130 -79 -80 -124 -156 -154 -264
-99 -358 75 -767 366 -859 l53 -17 0 -78 0 -79 -132 -64 c-217 -104 -351 -138
-543 -139 -106 0 -130 3 -203 29 -46 15 -86 33 -88 39 -27 80 -50 132 -74 167
l-28 43 53 58 c272 293 166 868 -192 1045 -73 36 -82 38 -173 38 -91 0 -100
-2 -172 -38 -95 -47 -173 -128 -222 -230 -48 -103 -61 -165 -60 -297 1 -139
25 -236 88 -356 l43 -80 -52 -28 c-28 -14 -67 -40 -86 -55 -27 -23 -32 -32
-22 -42 10 -10 21 -7 55 18 220 157 479 149 665 -21 63 -57 98 -113 124 -197
64 -205 -44 -456 -244 -569 -58 -33 -68 -46 -42 -56 16 -6 91 33 138 73 l29
23 61 -56 c195 -176 398 -247 647 -225 363 33 622 182 795 458 0 1 28 -6 61
-17 85 -26 147 -30 152 -8 2 12 -7 18 -40 23 -233 35 -420 192 -482 404 -20
69 -21 209 -1 285 42 161 165 311 316 384 92 46 181 72 244 72 55 0 85 10 85
26 0 10 -16 14 -63 14 l-64 0 -6 100 c-11 180 -90 363 -206 479 -117 116 -263
162 -406 127z m248 -64 c34 -16 85 -50 112 -75 l50 -46 -37 -1 c-105 -1 -174
-164 -139 -331 23 -108 96 -223 162 -253 10 -4 11 -8 2 -12 -48 -23 -144 -94
-189 -141 -58 -62 -125 -180 -144 -256 -15 -57 -24 -58 -111 -15 -91 45 -185
143 -237 250 -59 120 -75 191 -76 333 -1 140 12 200 65 311 108 228 342 330
542 236z m-1432 -219 c67 -32 135 -85 168 -131 l19 -27 -43 0 c-56 0 -93 -27
-125 -91 -22 -43 -25 -61 -24 -144 1 -72 6 -109 23 -151 58 -151 177 -233 269
-185 l31 16 -15 -53 c-35 -123 -144 -284 -177 -262 -9 6 -39 26 -69 46 -126
86 -288 119 -425 86 -74 -17 -74 -18 -126 88 -46 92 -66 169 -73 285 -24 384
276 661 567 523z m1564 -43 c8 -16 15 -42 15 -58 0 -35 -34 -82 -60 -82 -10 0
-28 12 -39 26 -41 52 -16 144 39 144 23 0 33 -7 45 -30z m-1439 -238 c34 -23
43 -85 19 -132 -23 -44 -69 -40 -94 7 -34 65 23 160 75 125z m1229 -1145 c35
-45 121 -118 179 -152 15 -9 13 -16 -20 -63 -76 -113 -206 -221 -341 -284
l-65 -31 -41 30 c-46 32 -101 115 -118 178 -6 21 -9 74 -7 115 2 65 7 82 31
113 35 46 74 67 126 67 l40 0 -14 -41 c-8 -23 -15 -59 -15 -80 0 -32 4 -39 20
-39 14 0 20 9 25 38 11 72 26 111 52 143 25 29 75 59 98 58 6 0 28 -24 50 -52z"/>
</g>
</svg>
